<svg width="40" height="40" viewBox="0 0 40 40" fill="none" xmlns="http://www.w3.org/2000/svg">
<path d="M17.1605 34.0587C16.9102 34.0587 16.6576 34.0498 16.4139 34.0295C15.481 33.9554 14.6081 33.7376 13.8193 33.385C12.9707 33.0078 12.2018 32.4531 11.5903 31.7817C11.3177 31.8221 11.0408 31.84 10.7594 31.84C10.2099 31.84 9.6471 31.7637 9.08431 31.6132C8.28001 31.3976 7.48235 31.0339 6.71793 30.5353C5.33312 29.6236 4.18538 28.3862 3.39216 26.949C2.95567 26.1518 2.65876 25.3389 2.50145 24.5215C2.31976 23.5806 2.33749 22.6194 2.55241 21.7481C2.69422 21.1598 2.93794 20.5849 3.26365 20.0527C3.25922 20.0347 3.257 20.0167 3.25257 19.9988C2.9889 19.5946 2.78506 19.1724 2.6499 18.7479C2.49923 18.2966 2.41061 17.8317 2.38623 17.3624C2.33084 16.5068 2.48594 15.6018 2.84045 14.7395C2.84488 14.7305 2.8471 14.7215 2.85153 14.7125C3.19718 13.9153 3.67134 13.2169 4.26293 12.6376C4.81243 12.0919 5.46163 11.6338 6.18617 11.2812C6.9949 10.886 7.89226 10.6277 8.86717 10.5109C8.92034 10.3537 8.98682 10.1898 9.07101 10.0236C9.07544 10.0124 9.08874 9.9877 9.09539 9.97647C9.1264 9.91584 9.16629 9.84398 9.20839 9.77436L9.24162 9.71822C9.29258 9.63513 9.34354 9.55878 9.39894 9.48018C9.40115 9.47569 9.40558 9.4712 9.4078 9.46671C9.81992 8.89407 10.3871 8.41126 11.1006 8.0295C11.1117 8.02276 11.1205 8.01602 11.1316 8.00929C11.7232 7.61405 12.3901 7.33335 13.1058 7.18065C13.4692 7.10654 13.8281 7.07061 14.1849 7.07061C14.6878 7.07061 15.1864 7.14247 15.6649 7.2817C16.1214 7.41644 16.5401 7.59609 16.9124 7.81392C16.9966 7.85883 17.0741 7.90599 17.1473 7.95315L17.2691 7.85658C17.3024 7.82964 17.3356 7.80493 17.371 7.78248C17.4176 7.75104 17.4663 7.71735 17.5128 7.68367C17.6325 7.59834 17.7676 7.50402 17.925 7.4097C18.3061 7.16942 18.7226 6.94261 19.1658 6.73601C19.394 6.62822 19.6288 6.52716 19.8615 6.43958C19.8925 6.42836 19.9257 6.41713 19.9568 6.4059C20.021 6.38569 20.0853 6.36548 20.1495 6.34527C20.298 6.29586 20.4664 6.24197 20.6503 6.19481C21.5764 5.9433 22.4494 5.81979 23.298 5.81979C23.4864 5.81979 23.6747 5.82652 23.8586 5.83775C25.0994 5.9141 26.3092 6.27116 27.3506 6.87075C27.8912 7.1784 28.4119 7.55567 28.8861 7.98908C29.3536 8.42473 29.7812 8.90979 30.1601 9.43976C30.4526 9.84398 30.7229 10.2864 30.9644 10.7602C31.3123 11.0926 31.556 11.517 31.669 11.9975L32.0767 13.7177C32.1099 13.8614 32.1321 14.0074 32.1387 14.1534C32.3714 14.1556 32.5974 14.1713 32.8145 14.1983C33.2466 14.2454 33.672 14.342 34.0752 14.4857C34.5339 14.6452 34.9527 14.8562 35.3205 15.11C36.1292 15.6579 36.7806 16.4641 37.1462 17.3669C37.319 17.7846 37.4453 18.2427 37.514 18.7143C37.5738 19.1567 37.5893 19.599 37.5628 20.0459C37.5628 20.0549 37.5628 20.0639 37.5628 20.0729C37.5029 20.8768 37.319 21.674 37.0199 22.4443C36.9025 22.7654 36.7562 23.0551 36.6277 23.3111L36.5435 23.4795C36.446 23.6861 36.3375 23.8456 36.2577 23.9623C36.2378 23.9915 36.2178 24.0185 36.2001 24.0477C36.1824 24.0746 36.1646 24.1016 36.1469 24.1285C36.127 24.1555 36.1093 24.1846 36.0915 24.2138C36.0118 24.3373 35.9054 24.5035 35.7481 24.6764L35.4357 25.0447C35.305 25.2019 35.1654 25.3277 35.0634 25.422C35.0368 25.4467 35.008 25.4714 34.9837 25.4961C34.7244 25.7566 34.4652 25.9475 34.2326 26.1137C34.1661 26.1608 34.1018 26.2102 34.0354 26.2596C33.9999 26.2866 33.9622 26.3135 33.9223 26.3382C33.1712 26.8098 32.4644 27.1511 31.7598 27.3779C30.9976 27.6295 30.2443 27.7979 29.5264 27.8765C29.2184 27.9214 28.9237 27.9394 28.6623 27.9528C28.5847 27.9573 28.3964 27.9686 28.3809 27.9686C28.2945 27.9708 28.2103 27.973 28.1239 27.973H27.745C27.5522 27.973 27.3794 27.9663 27.2132 27.9528L27.1401 27.9483C27.1246 27.9843 27.1068 28.0224 27.0891 28.0606L27.0714 28.1033C27.0005 28.2672 26.9119 28.4671 26.79 28.6759C26.3978 29.3923 25.8771 30.075 25.2368 30.7082C24.6784 31.2629 24.0314 31.7704 23.318 32.2128C21.9066 33.0864 20.4154 33.6568 18.8866 33.9128C18.2994 34.0116 17.7145 34.061 17.1517 34.061L17.1605 34.0587Z" fill="white"/>
<path d="M30.3683 16.581C30.3683 16.581 31.0131 9.93163 25.6356 7.96894C20.2581 6.00625 17.1982 10.4908 17.1982 10.4908C17.1982 10.4908 15.9552 7.96894 12.8355 8.95028C9.71575 9.93163 10.201 12.0448 10.201 12.0448C10.201 12.0448 6.70682 12.0044 4.93204 14.3466C3.15727 16.691 4.66394 19.415 5.63221 19.9607C5.63221 19.9607 2.5125 23.0664 5.90031 27.2635C9.28812 31.4606 12.5142 29.17 12.5142 29.17C12.5142 29.17 14.2358 33.6928 19.6133 31.7323C24.9908 29.7696 25.6356 25.5748 25.6356 25.5748C25.6356 25.5748 30.5301 27.0457 33.2709 24.2656C36.0139 21.4855 37.4652 15.2718 30.3661 16.581H30.3683Z" fill="#F95A00"/>
<path d="M20.3844 14.2343C19.9833 14.2343 19.6576 14.5644 19.6576 14.9709C19.6576 15.3773 19.9811 15.7074 20.3844 15.7074C20.7876 15.7074 21.1111 15.3773 21.1111 14.9709C21.1111 14.5644 20.7854 14.2343 20.3844 14.2343Z" fill="#FFC90A"/>
<path d="M20.3113 20.1695C20.7123 20.1695 21.038 19.8394 21.038 19.4329C21.038 19.0265 20.7145 18.6964 20.3113 18.6964C19.908 18.6964 19.5845 19.0265 19.5845 19.4329C19.5845 19.8394 19.9102 20.1695 20.3113 20.1695Z" fill="#FFC90A"/>
<path d="M21.7404 13.372C22.1414 13.372 22.4671 13.0418 22.4671 12.6354C22.4671 12.2289 22.1414 11.8988 21.7404 11.8988C21.3393 11.8988 21.0136 12.2289 21.0136 12.6354C21.0136 13.0418 21.3371 13.372 21.7404 13.372Z" fill="#FFC90A"/>
<path d="M19.3208 26.2305C19.3208 25.824 18.9973 25.4939 18.5941 25.4939C18.1908 25.4939 17.8673 25.824 17.8673 26.2305C17.8673 26.637 18.193 26.9671 18.5941 26.9671C18.9951 26.9671 19.3208 26.637 19.3208 26.2305Z" fill="#FFC90A"/>
<path d="M21.3349 8.17329C21.3349 8.57975 21.6584 8.90986 22.0617 8.90986C22.4649 8.90986 22.7884 8.57975 22.7884 8.17329C22.7884 7.87462 22.6111 7.61862 22.3586 7.50185C22.0927 7.52655 21.8356 7.56472 21.5897 7.61637C21.4346 7.75111 21.3349 7.94873 21.3349 8.17105V8.17329Z" fill="#FFC90A"/>
<path d="M11.6589 16.4642C11.2579 16.4642 10.9322 16.7943 10.9322 17.2008C10.9322 17.6072 11.2579 17.9373 11.6589 17.9373C12.06 17.9373 12.3857 17.6072 12.3857 17.2008C12.3857 16.7943 12.0622 16.4642 11.6589 16.4642Z" fill="#FFC90A"/>
<path d="M10.6353 28.4627C10.6353 28.0562 10.3096 27.7261 9.90851 27.7261C9.50747 27.7261 9.18176 28.0562 9.18176 28.4627C9.18176 28.8691 9.50747 29.1992 9.90851 29.1992C10.3096 29.1992 10.6353 28.8691 10.6353 28.4627Z" fill="#FFC90A"/>
<path d="M20.3844 24.7349C20.7854 24.7349 21.1111 24.4048 21.1111 23.9983C21.1111 23.5919 20.7854 23.2618 20.3844 23.2618C19.9833 23.2618 19.6576 23.5919 19.6576 23.9983C19.6576 24.4048 19.9811 24.7349 20.3844 24.7349Z" fill="#FFC90A"/>
<path d="M16.1169 10.4054C16.1169 10.8119 16.4426 11.142 16.8437 11.142C17.2447 11.142 17.5704 10.8119 17.5704 10.4054C17.5704 10.2976 17.546 10.1966 17.5062 10.1045C17.3045 10.338 17.2004 10.4907 17.2004 10.4907C17.2004 10.4907 17.0143 10.1157 16.6088 9.7115C16.323 9.81031 16.1169 10.082 16.1169 10.4054Z" fill="#FFC90A"/>
<path d="M16.8437 20.1695C17.2447 20.1695 17.5704 19.8394 17.5704 19.4329C17.5704 19.0265 17.2447 18.6964 16.8437 18.6964C16.4427 18.6964 16.1169 19.0265 16.1169 19.4329C16.1169 19.8394 16.4427 20.1695 16.8437 20.1695Z" fill="#FFC90A"/>
<path d="M7.15884 28.5502C7.16327 28.5211 7.1677 28.4919 7.1677 28.4627C7.1677 28.0562 6.84199 27.7261 6.44095 27.7261C6.39664 27.7261 6.35454 27.7306 6.31244 27.7396C6.59826 28.0517 6.87966 28.3212 7.15884 28.5502Z" fill="#FFC90A"/>
<path d="M16.919 24.7349C17.3201 24.7349 17.6458 24.4048 17.6458 23.9983C17.6458 23.5919 17.3223 23.2618 16.919 23.2618C16.5158 23.2618 16.1923 23.5919 16.1923 23.9983C16.1923 24.4048 16.518 24.7349 16.919 24.7349Z" fill="#FFC90A"/>
<path d="M18.2728 31.4292C18.6738 31.4292 18.9996 31.0991 18.9996 30.6926C18.9996 30.2861 18.6761 29.956 18.2728 29.956C17.8695 29.956 17.5461 30.2861 17.5461 30.6926C17.5461 31.0991 17.8718 31.4292 18.2728 31.4292Z" fill="#FFC90A"/>
<path d="M16.919 14.2343C16.518 14.2343 16.1923 14.5644 16.1923 14.9709C16.1923 15.3773 16.518 15.7074 16.919 15.7074C17.3201 15.7074 17.6458 15.3773 17.6458 14.9709C17.6458 14.5644 17.3223 14.2343 16.919 14.2343Z" fill="#FFC90A"/>
<path d="M21.7404 22.4017C22.1414 22.4017 22.4671 22.0716 22.4671 21.6651C22.4671 21.2586 22.1414 20.9285 21.7404 20.9285C21.3393 20.9285 21.0136 21.2586 21.0136 21.6651C21.0136 22.0716 21.3371 22.4017 21.7404 22.4017Z" fill="#FFC90A"/>
<path d="M22.0617 26.9671C22.4627 26.9671 22.7884 26.637 22.7884 26.2305C22.7884 25.824 22.4627 25.4939 22.0617 25.4939C21.6606 25.4939 21.3349 25.824 21.3349 26.2305C21.3349 26.637 21.6584 26.9671 22.0617 26.9671Z" fill="#FFC90A"/>
<path d="M22.0617 16.4642C21.6606 16.4642 21.3349 16.7943 21.3349 17.2008C21.3349 17.6072 21.6584 17.9373 22.0617 17.9373C22.4649 17.9373 22.7884 17.6072 22.7884 17.2008C22.7884 16.7943 22.4627 16.4642 22.0617 16.4642Z" fill="#FFC90A"/>
<path d="M17.5461 12.6354C17.5461 13.0418 17.8718 13.372 18.2728 13.372C18.6738 13.372 18.9996 13.0418 18.9996 12.6354C18.9996 12.2289 18.6761 11.8988 18.2728 11.8988C17.8695 11.8988 17.5461 12.2289 17.5461 12.6354Z" fill="#FFC90A"/>
<path d="M18.2728 22.4017C18.6738 22.4017 18.9996 22.0716 18.9996 21.6651C18.9996 21.2586 18.6761 20.9285 18.2728 20.9285C17.8695 20.9285 17.5461 21.2586 17.5461 21.6651C17.5461 22.0716 17.8718 22.4017 18.2728 22.4017Z" fill="#FFC90A"/>
<path d="M20.3113 9.66889C19.9102 9.66889 19.5845 9.999 19.5845 10.4055C19.5845 10.8119 19.9102 11.142 20.3113 11.142C20.7123 11.142 21.038 10.8119 21.038 10.4055C21.038 9.999 20.7145 9.66889 20.3113 9.66889Z" fill="#FFC90A"/>
<path d="M9.98163 15.7052C10.3827 15.7052 10.7084 15.3751 10.7084 14.9686C10.7084 14.5621 10.3827 14.232 9.98163 14.232C9.58059 14.232 9.25488 14.5621 9.25488 14.9686C9.25488 15.3751 9.58059 15.7052 9.98163 15.7052Z" fill="#FFC90A"/>
<path d="M9.90851 20.1695C10.3096 20.1695 10.6353 19.8394 10.6353 19.4329C10.6353 19.0265 10.3096 18.6964 9.90851 18.6964C9.50747 18.6964 9.18176 19.0265 9.18176 19.4329C9.18176 19.8394 9.50747 20.1695 9.90851 20.1695Z" fill="#FFC90A"/>
<path d="M9.98163 24.7349C10.3827 24.7349 10.7084 24.4048 10.7084 23.9983C10.7084 23.5919 10.3827 23.2618 9.98163 23.2618C9.58059 23.2618 9.25488 23.5919 9.25488 23.9983C9.25488 24.4048 9.58059 24.7349 9.98163 24.7349Z" fill="#FFC90A"/>
<path d="M12.0622 12.6354C12.0622 12.2289 11.7387 11.8988 11.3354 11.8988C10.9322 11.8988 10.6087 12.2289 10.6087 12.6354C10.6087 13.0418 10.9322 13.372 11.3354 13.372C11.7387 13.372 12.0622 13.0418 12.0622 12.6354Z" fill="#FFC90A"/>
<path d="M11.3377 20.9285C10.9366 20.9285 10.6109 21.2586 10.6109 21.6651C10.6109 22.0716 10.9344 22.4017 11.3377 22.4017C11.7409 22.4017 12.0644 22.0716 12.0644 21.6651C12.0644 21.2586 11.7409 20.9285 11.3377 20.9285Z" fill="#FFC90A"/>
<path d="M10.9322 26.2305C10.9322 26.637 11.2579 26.9671 11.6589 26.9671C12.06 26.9671 12.3857 26.637 12.3857 26.2305C12.3857 25.824 12.0622 25.4939 11.6589 25.4939C11.2557 25.4939 10.9322 25.824 10.9322 26.2305Z" fill="#FFC90A"/>
<path d="M5.45054 26.2305C5.45054 25.8532 5.16914 25.5456 4.80798 25.5029C4.95644 25.8398 5.14477 26.1878 5.37964 26.5449C5.42395 26.4483 5.45275 26.3428 5.45275 26.2305H5.45054Z" fill="#FFC90A"/>
<path d="M14.1029 28.4627C14.1029 28.0562 13.7771 27.7261 13.3761 27.7261C12.9751 27.7261 12.6494 28.0562 12.6494 28.4627C12.6494 28.8691 12.9728 29.1992 13.3761 29.1992C13.7794 29.1992 14.1029 28.8691 14.1029 28.4627Z" fill="#FFC90A"/>
<path d="M10.6353 10.4055C10.6353 10.392 10.6308 10.3785 10.6308 10.365C10.4669 10.5941 10.3605 10.8209 10.2918 11.0298C10.4979 10.8995 10.6353 10.6705 10.6353 10.4055Z" fill="#FFC90A"/>
<path d="M23.7788 27.7261C23.3778 27.7261 23.0521 28.0562 23.0521 28.4627C23.0521 28.822 23.3047 29.1206 23.6415 29.1858C23.9605 28.8512 24.2264 28.5188 24.4546 28.1954C24.3483 27.9215 24.0868 27.7261 23.7788 27.7261Z" fill="#FFC90A"/>
<path d="M7.87009 13.372C8.27113 13.372 8.59684 13.0418 8.59684 12.6354C8.59684 12.4962 8.55695 12.3659 8.48827 12.2536C8.0695 12.3479 7.61085 12.4849 7.14777 12.6803C7.17214 13.0643 7.48455 13.3697 7.87009 13.3697V13.372Z" fill="#FFC90A"/>
<path d="M8.19135 16.4642C7.79031 16.4642 7.4646 16.7943 7.4646 17.2008C7.4646 17.6072 7.79031 17.9373 8.19135 17.9373C8.59239 17.9373 8.9181 17.6072 8.9181 17.2008C8.9181 16.7943 8.59239 16.4642 8.19135 16.4642Z" fill="#FFC90A"/>
<path d="M5.12925 21.6651C5.12925 21.4338 5.02289 21.2317 4.85893 21.097C4.67946 21.4585 4.51107 21.8964 4.41357 22.3994C4.81019 22.3927 5.12925 22.0671 5.12925 21.6651Z" fill="#FFC90A"/>
<path d="M6.44095 20.1695C6.842 20.1695 7.16771 19.8394 7.16771 19.4329C7.16771 19.0265 6.842 18.6964 6.44095 18.6964C6.03991 18.6964 5.7142 19.0265 5.7142 19.4329C5.7142 19.8394 6.03991 20.1695 6.44095 20.1695Z" fill="#FFC90A"/>
<path d="M4.72378 17.9373C5.12482 17.9373 5.45053 17.6072 5.45053 17.2008C5.45053 16.7943 5.12482 16.4642 4.72378 16.4642C4.46676 16.4642 4.24075 16.6012 4.11224 16.8078C4.11889 17.1312 4.1632 17.4455 4.23411 17.742C4.36262 17.8632 4.53323 17.9373 4.72378 17.9373Z" fill="#FFC90A"/>
<path d="M6.51627 15.7052C6.91731 15.7052 7.24302 15.3751 7.24302 14.9686C7.24302 14.5621 6.91731 14.232 6.51627 14.232C6.11523 14.232 5.78952 14.5621 5.78952 14.9686C5.78952 15.3751 6.11523 15.7052 6.51627 15.7052Z" fill="#FFC90A"/>
<path d="M6.51627 24.7349C6.91731 24.7349 7.24302 24.4048 7.24302 23.9983C7.24302 23.5919 6.91731 23.2618 6.51627 23.2618C6.11523 23.2618 5.78952 23.5919 5.78952 23.9983C5.78952 24.4048 6.11523 24.7349 6.51627 24.7349Z" fill="#FFC90A"/>
<path d="M7.87009 22.4017C8.27113 22.4017 8.59684 22.0716 8.59684 21.6651C8.59684 21.2586 8.27113 20.9285 7.87009 20.9285C7.46905 20.9285 7.14334 21.2586 7.14334 21.6651C7.14334 22.0716 7.46905 22.4017 7.87009 22.4017Z" fill="#FFC90A"/>
<path d="M8.19135 26.9671C8.59239 26.9671 8.9181 26.637 8.9181 26.2305C8.9181 25.824 8.59239 25.4939 8.19135 25.4939C7.79031 25.4939 7.4646 25.824 7.4646 26.2305C7.4646 26.637 7.79031 26.9671 8.19135 26.9671Z" fill="#FFC90A"/>
<path d="M25.208 13.372C25.609 13.372 25.9347 13.0418 25.9347 12.6354C25.9347 12.2289 25.609 11.8988 25.208 11.8988C24.8069 11.8988 24.4812 12.2289 24.4812 12.6354C24.4812 13.0418 24.8069 13.372 25.208 13.372Z" fill="#FFC90A"/>
<path d="M27.2464 9.66889C26.8454 9.66889 26.5197 9.999 26.5197 10.4055C26.5197 10.8119 26.8454 11.142 27.2464 11.142C27.6474 11.142 27.9732 10.8119 27.9732 10.4055C27.9732 9.999 27.6474 9.66889 27.2464 9.66889Z" fill="#FFC90A"/>
<path d="M23.8542 14.2343C23.4531 14.2343 23.1274 14.5644 23.1274 14.9709C23.1274 15.3773 23.4531 15.7074 23.8542 15.7074C24.2552 15.7074 24.5809 15.3773 24.5809 14.9709C24.5809 14.5644 24.2552 14.2343 23.8542 14.2343Z" fill="#FFC90A"/>
<path d="M23.7788 9.66889C23.3778 9.66889 23.0521 9.999 23.0521 10.4055C23.0521 10.8119 23.3756 11.142 23.7788 11.142C24.1821 11.142 24.5056 10.8119 24.5056 10.4055C24.5056 9.999 24.1799 9.66889 23.7788 9.66889Z" fill="#FFC90A"/>
<path d="M28.6755 22.4017C29.0766 22.4017 29.4023 22.0716 29.4023 21.6651C29.4023 21.2586 29.0788 20.9285 28.6755 20.9285C28.2723 20.9285 27.9488 21.2586 27.9488 21.6651C27.9488 22.0716 28.2745 22.4017 28.6755 22.4017Z" fill="#FFC90A"/>
<path d="M23.7788 20.1695C24.1799 20.1695 24.5056 19.8394 24.5056 19.4329C24.5056 19.0265 24.1799 18.6964 23.7788 18.6964C23.3778 18.6964 23.0521 19.0265 23.0521 19.4329C23.0521 19.8394 23.3756 20.1695 23.7788 20.1695Z" fill="#FFC90A"/>
<path d="M27.3195 24.7349C27.7206 24.7349 28.0463 24.4048 28.0463 23.9983C28.0463 23.5919 27.7228 23.2618 27.3195 23.2618C26.9163 23.2618 26.5928 23.5919 26.5928 23.9983C26.5928 24.4048 26.9163 24.7349 27.3195 24.7349Z" fill="#FFC90A"/>
<path d="M28.6755 13.372C29.0766 13.372 29.4023 13.0418 29.4023 12.6354C29.4023 12.2289 29.0788 11.8988 28.6755 11.8988C28.2723 11.8988 27.9488 12.2289 27.9488 12.6354C27.9488 13.0418 28.2745 13.372 28.6755 13.372Z" fill="#FFC90A"/>
<path d="M29.7236 17.2008C29.7236 16.7943 29.4001 16.4642 28.9968 16.4642C28.5935 16.4642 28.2701 16.7943 28.2701 17.2008C28.2701 17.6072 28.5958 17.9373 28.9968 17.9373C29.3978 17.9373 29.7236 17.6072 29.7236 17.2008Z" fill="#FFC90A"/>
<path d="M32.4644 16.4642C32.0634 16.4642 31.7376 16.7943 31.7376 17.2008C31.7376 17.6072 32.0634 17.9373 32.4644 17.9373C32.8654 17.9373 33.1911 17.6072 33.1911 17.2008C33.1911 16.7943 32.8654 16.4642 32.4644 16.4642Z" fill="#FFC90A"/>
<path d="M27.3195 15.7052C27.7206 15.7052 28.0463 15.3751 28.0463 14.9686C28.0463 14.5621 27.7228 14.232 27.3195 14.232C26.9163 14.232 26.5928 14.5621 26.5928 14.9686C26.5928 15.3751 26.9163 15.7052 27.3195 15.7052Z" fill="#FFC90A"/>
<path d="M34.1816 20.1695C34.5826 20.1695 34.9083 19.8394 34.9083 19.4329C34.9083 19.0265 34.5826 18.6964 34.1816 18.6964C33.7805 18.6964 33.4548 19.0265 33.4548 19.4329C33.4548 19.8394 33.7805 20.1695 34.1816 20.1695Z" fill="#FFC90A"/>
<path d="M33.5302 23.9915C33.7251 23.7715 33.9135 23.5334 34.0907 23.2841C33.7717 23.3605 33.5346 23.6457 33.5302 23.9915Z" fill="#FFC90A"/>
<path d="M28.9968 25.4939C28.691 25.4939 28.4296 25.6871 28.3232 25.9588C28.742 25.9678 29.1896 25.9543 29.6438 25.9026C29.5242 25.6623 29.2826 25.4962 28.9968 25.4962V25.4939Z" fill="#FFC90A"/>
<path d="M26.256 17.2008C26.256 16.7943 25.9303 16.4642 25.5292 16.4642C25.1282 16.4642 24.8025 16.7943 24.8025 17.2008C24.8025 17.6072 25.1282 17.9373 25.5292 17.9373C25.9303 17.9373 26.256 17.6072 26.256 17.2008Z" fill="#FFC90A"/>
<path d="M18.5941 16.4642C18.193 16.4642 17.8673 16.7943 17.8673 17.2008C17.8673 17.6072 18.193 17.9373 18.5941 17.9373C18.9951 17.9373 19.3208 17.6072 19.3208 17.2008C19.3208 16.7943 18.9973 16.4642 18.5941 16.4642Z" fill="#FFC90A"/>
<path d="M25.9325 21.6651C25.9325 21.2586 25.6068 20.9285 25.2058 20.9285C24.8047 20.9285 24.479 21.2586 24.479 21.6651C24.479 22.0716 24.8047 22.4017 25.2058 22.4017C25.6068 22.4017 25.9325 22.0716 25.9325 21.6651Z" fill="#FFC90A"/>
<path d="M25.5292 25.4939C25.1282 25.4939 24.8025 25.824 24.8025 26.2305C24.8025 26.5179 24.9665 26.765 25.2035 26.8862C25.5536 26.1092 25.6378 25.5748 25.6378 25.5748C25.6378 25.5748 25.7663 25.6129 25.9879 25.6646C25.8616 25.5613 25.7043 25.4962 25.5292 25.4962V25.4939Z" fill="#FFC90A"/>
<path d="M24.9354 7.74887C24.8512 7.86789 24.8025 8.01386 24.8025 8.1733C24.8025 8.57976 25.1282 8.90987 25.5292 8.90987C25.9303 8.90987 26.2205 8.60895 26.2493 8.22944C26.0544 8.13737 25.8505 8.04754 25.6356 7.96894C25.3963 7.88136 25.1636 7.81175 24.9354 7.74887Z" fill="#FFC90A"/>
<path d="M23.8542 24.7349C24.2552 24.7349 24.5809 24.4048 24.5809 23.9983C24.5809 23.5919 24.2552 23.2618 23.8542 23.2618C23.4531 23.2618 23.1274 23.5919 23.1274 23.9983C23.1274 24.4048 23.4531 24.7349 23.8542 24.7349Z" fill="#FFC90A"/>
<path d="M27.2464 20.1695C27.6474 20.1695 27.9732 19.8394 27.9732 19.4329C27.9732 19.0265 27.6474 18.6964 27.2464 18.6964C26.8454 18.6964 26.5197 19.0265 26.5197 19.4329C26.5197 19.8394 26.8454 20.1695 27.2464 20.1695Z" fill="#FFC90A"/>
<path d="M13.3761 20.1695C13.7771 20.1695 14.1029 19.8394 14.1029 19.4329C14.1029 19.0265 13.7771 18.6964 13.3761 18.6964C12.9751 18.6964 12.6494 19.0265 12.6494 19.4329C12.6494 19.8394 12.9728 20.1695 13.3761 20.1695Z" fill="#FFC90A"/>
<path d="M15.8533 26.2305C15.8533 25.824 15.5275 25.4939 15.1265 25.4939C14.7255 25.4939 14.3997 25.824 14.3997 26.2305C14.3997 26.637 14.7255 26.9671 15.1265 26.9671C15.5275 26.9671 15.8533 26.637 15.8533 26.2305Z" fill="#FFC90A"/>
<path d="M14.803 31.4292C15.2041 31.4292 15.5298 31.0991 15.5298 30.6926C15.5298 30.2861 15.2041 29.956 14.803 29.956C14.402 29.956 14.0763 30.2861 14.0763 30.6926C14.0763 31.0991 14.402 31.4292 14.803 31.4292Z" fill="#FFC90A"/>
<path d="M13.4492 14.2343C13.0482 14.2343 12.7225 14.5644 12.7225 14.9709C12.7225 15.3773 13.0482 15.7074 13.4492 15.7074C13.8503 15.7074 14.176 15.3773 14.176 14.9709C14.176 14.5644 13.8503 14.2343 13.4492 14.2343Z" fill="#FFC90A"/>
<path d="M19.1258 8.66958C19.0328 8.73021 18.9442 8.79309 18.86 8.85597C18.9619 8.81554 19.0527 8.75042 19.1258 8.66958Z" fill="#FFC90A"/>
<path d="M14.803 22.4017C15.2041 22.4017 15.5298 22.0716 15.5298 21.6651C15.5298 21.2586 15.2041 20.9285 14.803 20.9285C14.402 20.9285 14.0763 21.2586 14.0763 21.6651C14.0763 22.0716 14.402 22.4017 14.803 22.4017Z" fill="#FFC90A"/>
<path d="M13.3761 11.142C13.7771 11.142 14.1029 10.8119 14.1029 10.4055C14.1029 9.999 13.7771 9.66889 13.3761 9.66889C12.9751 9.66889 12.6494 9.999 12.6494 10.4055C12.6494 10.8119 12.9728 11.142 13.3761 11.142Z" fill="#FFC90A"/>
<path d="M15.532 12.6354C15.532 12.2289 15.2063 11.8988 14.8052 11.8988C14.4042 11.8988 14.0785 12.2289 14.0785 12.6354C14.0785 13.0418 14.4042 13.372 14.8052 13.372C15.2063 13.372 15.532 13.0418 15.532 12.6354Z" fill="#FFC90A"/>
<path d="M13.4492 24.7349C13.8503 24.7349 14.176 24.4048 14.176 23.9983C14.176 23.5919 13.8503 23.2618 13.4492 23.2618C13.0482 23.2618 12.7225 23.5919 12.7225 23.9983C12.7225 24.4048 13.0482 24.7349 13.4492 24.7349Z" fill="#FFC90A"/>
<path d="M31.4407 19.4329C31.4407 19.0265 31.1173 18.6964 30.714 18.6964C30.3107 18.6964 29.9872 19.0265 29.9872 19.4329C29.9872 19.8394 30.313 20.1695 30.714 20.1695C31.115 20.1695 31.4407 19.8394 31.4407 19.4329Z" fill="#FFC90A"/>
<path d="M15.1265 16.4642C14.7255 16.4642 14.3997 16.7943 14.3997 17.2008C14.3997 17.6072 14.7255 17.9373 15.1265 17.9373C15.5275 17.9373 15.8533 17.6072 15.8533 17.2008C15.8533 16.7943 15.5275 16.4642 15.1265 16.4642Z" fill="#FFC90A"/>
<path d="M30.0626 14.9708C30.0626 15.2269 30.1933 15.4537 30.3883 15.5839C30.3794 15.256 30.3528 14.8653 30.2974 14.4296C30.1534 14.5644 30.0626 14.7553 30.0626 14.9686V14.9708Z" fill="#FFC90A"/>
<path d="M30.7871 24.7349C31.1882 24.7349 31.5139 24.4048 31.5139 23.9983C31.5139 23.5919 31.1882 23.2618 30.7871 23.2618C30.3861 23.2618 30.0604 23.5919 30.0604 23.9983C30.0604 24.4048 30.3861 24.7349 30.7871 24.7349Z" fill="#FFC90A"/>
<path d="M32.1431 22.4017C32.5441 22.4017 32.8699 22.0716 32.8699 21.6651C32.8699 21.2586 32.5441 20.9285 32.1431 20.9285C31.7421 20.9285 31.4164 21.2586 31.4164 21.6651C31.4164 22.0716 31.7421 22.4017 32.1431 22.4017Z" fill="#FFC90A"/>
<path d="M21.7404 29.9583C21.3393 29.9583 21.0136 30.2884 21.0136 30.6948C21.0136 30.8318 21.0535 30.9576 21.1178 31.0676C21.5742 30.8273 21.9841 30.5691 22.3541 30.3018C22.2256 30.0953 21.9996 29.9583 21.7404 29.9583Z" fill="#FFC90A"/>
<path d="M15.1265 8.90981C15.1819 8.90981 15.2351 8.90307 15.286 8.89184C15.1021 8.83121 14.9027 8.78405 14.6878 8.7571C14.8096 8.85142 14.9625 8.91205 15.1265 8.91205V8.90981Z" fill="#FFC90A"/>
<path d="M17.5704 28.4627C17.5704 28.0562 17.2447 27.7261 16.8437 27.7261C16.4427 27.7261 16.1169 28.0562 16.1169 28.4627C16.1169 28.8691 16.4427 29.1992 16.8437 29.1992C17.2447 29.1992 17.5704 28.8691 17.5704 28.4627Z" fill="#FFC90A"/>
<path d="M20.3113 29.1992C20.7123 29.1992 21.038 28.8691 21.038 28.4627C21.038 28.0562 20.7145 27.7261 20.3113 27.7261C19.908 27.7261 19.5845 28.0562 19.5845 28.4627C19.5845 28.8691 19.9102 29.1992 20.3113 29.1992Z" fill="#FFC90A"/>
<path d="M10.3672 11.9662C10.3672 11.9662 10.1656 11.9797 9.78002 12.0044C9.3967 12.047 8.82283 12.1144 8.11602 12.3367C7.41586 12.559 6.56725 12.9408 5.7984 13.6661C5.4173 14.0254 5.06057 14.4723 4.79468 15.0045C4.52437 15.5345 4.34933 16.1543 4.33603 16.81C4.32938 17.4635 4.49113 18.1552 4.88331 18.7435C4.98302 18.8873 5.08716 19.0332 5.21345 19.1635C5.27328 19.2331 5.33088 19.2937 5.40843 19.3588C5.52808 19.4576 5.64551 19.5654 5.76959 19.6575L5.95571 19.8035L6.04877 19.8776L6.0953 19.9135C6.0953 19.9135 6.12189 19.9247 6.1086 19.9315L6.08865 19.9539C5.98008 20.0707 5.87151 20.1875 5.76073 20.3043L5.59455 20.4817L5.49928 20.5827L5.45718 20.6411C5.39957 20.7175 5.34196 20.7961 5.28435 20.8746C5.22231 20.951 5.17578 21.0341 5.12704 21.1194C5.07829 21.2048 5.02955 21.2878 4.9808 21.3732C4.94313 21.463 4.90547 21.5551 4.86559 21.6449L4.80798 21.7819L4.76588 21.9256C4.73929 22.0222 4.71049 22.1165 4.68168 22.2131C4.66396 22.3119 4.64845 22.4129 4.63072 22.5117C4.60856 22.6105 4.60413 22.7138 4.5997 22.8171C4.59749 22.9204 4.57976 23.0215 4.58862 23.127C4.58862 23.5425 4.66617 23.9647 4.77696 24.3846C4.90325 24.8023 5.07386 25.2155 5.28657 25.6152C5.72528 26.4102 6.32352 27.1535 7.05249 27.78C7.77702 28.4065 8.63893 28.9185 9.57396 29.1858C10.0415 29.3183 10.5267 29.3699 10.9964 29.325C11.1161 29.325 11.2291 29.2891 11.3443 29.2711C11.4595 29.2576 11.5792 29.2082 11.6988 29.17L11.7874 29.1409L11.8318 29.1251L11.916 29.087L12.2594 28.9275L12.4322 28.8467L12.5186 28.8063C12.5319 28.804 12.5496 28.7838 12.5585 28.795L12.5829 28.831L12.7712 29.1274L12.9596 29.4261L13.0548 29.5765C13.0726 29.608 13.0792 29.6124 13.0903 29.6259L13.1191 29.6618L13.3562 29.956C13.5334 30.1334 13.704 30.3221 13.9101 30.468C14.3089 30.7757 14.7609 31.0272 15.2617 31.1799C15.758 31.3371 16.2875 31.4224 16.8282 31.4471C17.3688 31.4696 17.9227 31.4157 18.4722 31.3214C19.0239 31.2271 19.5712 31.0676 20.1052 30.8678C20.6414 30.6701 21.1665 30.4231 21.6651 30.1244C22.6621 29.5406 23.5839 28.7681 24.2286 27.8137C24.5499 27.3376 24.7936 26.8189 24.9133 26.2754L24.9332 26.1744L24.9443 26.1227C24.9487 26.1025 24.9509 26.1025 24.9576 26.0464C24.9864 25.8555 24.9953 25.7163 25.013 25.5523L25.0617 25.0762L25.0728 24.9572C25.106 24.9572 25.1459 24.9685 25.1814 24.9752L25.4007 25.0156C25.6954 25.0695 25.9901 25.1212 26.2848 25.1751L26.7479 25.2312C27.3528 25.2963 27.9687 25.321 28.5803 25.2806C29.1918 25.2536 29.8011 25.1571 30.3927 25.0089C30.991 24.8719 31.5537 24.6339 32.0899 24.3554C32.6261 24.0747 33.0959 23.6907 33.5169 23.2663C33.9334 22.8328 34.2458 22.3096 34.5095 21.7617C34.7577 21.1868 34.9438 20.5894 35.0036 19.9899C35.0678 19.3925 35.0036 18.7952 34.7798 18.2787C34.5582 17.7622 34.1727 17.3378 33.6786 17.0638C33.1845 16.7876 32.5929 16.6573 31.9858 16.6596C31.8351 16.6551 31.6823 16.6686 31.5272 16.6775L31.2967 16.7045L31.2391 16.7112C31.2236 16.7112 31.1726 16.7247 31.1416 16.7292L30.9289 16.7719C30.6608 16.8235 30.324 16.8999 30.0072 16.9695L29.9474 16.9829C29.9318 16.9829 29.9407 16.947 29.9363 16.9313L29.9318 16.8055L29.9208 16.554L29.8986 16.0533C29.8765 15.6401 29.8654 15.5682 29.8521 15.3863L29.7923 14.8967L29.7125 14.4094L29.6106 13.9266C29.4599 13.2866 29.2516 12.6623 28.9835 12.0672C28.4429 10.8838 27.6519 9.80812 26.6039 9.07829C26.0832 8.71225 25.5093 8.4293 24.9022 8.24516C24.2929 8.06326 23.6548 7.98466 23.0122 7.9914C22.3696 7.99814 21.7227 8.09245 21.089 8.24965L20.6237 8.37989C20.4664 8.42032 20.3223 8.49218 20.1717 8.54607C20.021 8.60671 19.8725 8.67632 19.7219 8.74144L19.281 8.95927L18.8533 9.19955L18.4456 9.46229C18.3171 9.55886 18.1842 9.65093 18.0601 9.75198L17.8806 9.90693L17.8363 9.94511L17.7588 10.0192C17.7056 10.0686 17.6635 10.118 17.617 10.1674L17.3422 10.4594L17.2735 10.5312C17.2624 10.5537 17.2492 10.529 17.2381 10.52L17.2026 10.4841L17.0586 10.3426L16.7728 10.0596L16.6354 9.93612L16.5446 9.85753C16.303 9.64868 16.0416 9.47128 15.7668 9.32082C15.2151 9.02215 14.5992 8.86046 13.9766 8.87394C13.3539 8.87843 12.7358 9.06482 12.1796 9.36573C11.6279 9.67563 11.136 10.1023 10.7704 10.621C10.4115 11.1375 10.1722 11.7596 10.2254 12.3794C10.2254 12.3794 10.2209 12.3277 10.2121 12.2267C10.2054 12.1773 10.2076 12.1144 10.2076 12.038C10.2054 11.9617 10.2165 11.8741 10.2276 11.7753C10.2786 11.3801 10.478 10.7805 10.9809 10.1629C11.2291 9.85528 11.557 9.54763 11.9647 9.2804C12.3702 9.00867 12.8621 8.7886 13.4248 8.66958C13.9854 8.5573 14.6213 8.5573 15.2572 8.74369C15.5741 8.83801 15.8931 8.96601 16.1967 9.14566C16.354 9.2265 16.4958 9.33429 16.6465 9.43535C16.7883 9.54763 16.9434 9.6644 17.0475 9.76097L17.2181 9.91816L17.2403 9.93837C17.2403 9.93837 17.2469 9.94735 17.2514 9.94735L17.2624 9.93612L17.3023 9.89121L17.3821 9.80139C17.4353 9.743 17.4862 9.67788 17.5416 9.62847C17.6125 9.56335 17.6834 9.49598 17.7543 9.42861C17.8984 9.29612 18.0579 9.17934 18.2152 9.05359C18.3814 8.94355 18.5409 8.8178 18.7182 8.7145C19.0638 8.49667 19.4294 8.29905 19.8149 8.11716C20.0077 8.02733 20.2071 7.93975 20.4088 7.8634C20.617 7.80052 20.8253 7.72417 21.038 7.66803C21.8888 7.43673 22.8128 7.293 23.7722 7.35588C24.7294 7.41427 25.722 7.67701 26.6194 8.19351C27.0692 8.44726 27.4968 8.75941 27.8912 9.11871C28.2811 9.48026 28.6379 9.88897 28.9569 10.3336C29.5973 11.2206 30.0692 12.2514 30.3883 13.345C30.55 13.8929 30.6675 14.4588 30.7472 15.036C30.7694 15.1797 30.7871 15.3257 30.8004 15.4694L30.8248 15.7097L30.8292 15.7681V15.7973C30.8292 15.7973 30.8292 15.822 30.8425 15.813L30.9001 15.7973C30.9178 15.7928 30.9356 15.786 30.9732 15.7793L31.0685 15.7591L31.0929 15.7546L31.1483 15.7478L31.2613 15.7321C31.4119 15.7097 31.5648 15.6962 31.7177 15.6872C32.0257 15.6692 32.3381 15.6715 32.6527 15.7119C32.9674 15.7456 33.2842 15.8152 33.5922 15.9253C33.9002 16.033 34.2037 16.1745 34.4807 16.3676C35.0368 16.7449 35.5043 17.2996 35.7636 17.9441C35.8965 18.263 35.9874 18.5998 36.0361 18.9367C36.0826 19.2757 36.0915 19.6171 36.0716 19.9539C36.0206 20.6254 35.8633 21.2834 35.6218 21.8987C35.511 22.2063 35.347 22.5072 35.1986 22.8081C35.1277 22.9631 35.0191 23.0956 34.9305 23.2393C34.833 23.3785 34.751 23.5312 34.6358 23.6548L34.3034 24.0455C34.1926 24.1757 34.0597 24.2835 33.9356 24.4026C33.6941 24.6473 33.4061 24.8315 33.1358 25.0403C32.5619 25.4019 31.9526 25.7163 31.31 25.9228C30.6697 26.1339 30.0116 26.2911 29.3425 26.363C29.0101 26.4146 28.6733 26.4214 28.3365 26.4438C28.1681 26.4506 27.9998 26.4438 27.8314 26.4438C27.663 26.4438 27.4946 26.4438 27.3262 26.4281L26.821 26.3967L26.318 26.336L26.1275 26.3136L26.0987 26.3091C26.0854 26.3091 26.0477 26.3001 26.0588 26.3046C26.0588 26.3046 26.0588 26.3136 26.0588 26.3001L26.0632 26.2866L26.0499 26.354C26.01 26.5359 25.9812 26.7245 25.917 26.8975C25.8594 27.0749 25.8084 27.2523 25.7287 27.4184C25.6555 27.5869 25.5846 27.7575 25.4916 27.9125C25.1437 28.5547 24.6939 29.1184 24.191 29.6147C23.688 30.1132 23.1296 30.5421 22.5358 30.9104C21.3504 31.6447 20.0365 32.1725 18.6473 32.4038C17.9537 32.5205 17.2425 32.5632 16.5291 32.5071C15.8156 32.4509 15.0977 32.2892 14.4263 31.9883C13.755 31.6897 13.1324 31.245 12.6405 30.6836C12.5231 30.5399 12.4101 30.3917 12.2948 30.2457L12.2527 30.1918L12.2439 30.1783L12.2262 30.1492L12.1929 30.0908L12.1752 30.0616C12.1752 30.0616 12.1663 30.0638 12.1641 30.0661L12.1375 30.075L11.9337 30.1379C11.8473 30.1626 11.7609 30.1918 11.6722 30.2165C10.9255 30.3849 10.1633 30.3266 9.46539 30.1402C8.76522 29.9515 8.11824 29.6394 7.52665 29.2554C6.35011 28.4806 5.37741 27.4319 4.70162 26.2058C4.36705 25.5927 4.11003 24.9303 3.97709 24.2341C3.84415 23.5402 3.84193 22.8104 4.01254 22.121C4.17872 21.4293 4.52215 20.7916 4.97194 20.2706L5.01182 20.2189L5.03176 20.1942C5.02068 20.2077 5.03398 20.192 5.03619 20.1942L5.08272 20.1493L5.178 20.0572L5.22675 20.0101C5.22675 20.0101 5.25555 19.9921 5.24004 19.9876L5.21567 19.9674L5.11596 19.8843C5.08272 19.8574 5.0517 19.8192 5.01625 19.7878C4.97194 19.7428 4.8966 19.6732 4.84564 19.6103L4.67947 19.4127C4.6285 19.3431 4.57976 19.2713 4.53101 19.2016C4.34046 18.9164 4.18093 18.6065 4.07901 18.2787C3.97044 17.9553 3.90619 17.6185 3.88846 17.2816C3.84193 16.6079 3.98152 15.9387 4.22968 15.3346C4.48892 14.7351 4.85451 14.1894 5.30873 13.7447C5.76073 13.2979 6.28142 12.9363 6.83756 12.6668C7.95206 12.1234 9.17956 11.946 10.3605 11.9752L10.3672 11.9662Z" fill="black"/>
<path d="M7.78798 28.878C7.36478 28.878 6.98368 28.5995 6.85517 28.1796C6.27687 26.273 5.78942 24.4855 5.4061 22.8619C5.02278 21.2405 4.73031 19.7854 4.5176 18.4133C4.47772 18.1528 4.53976 17.8856 4.69486 17.6722C4.84996 17.4589 5.08261 17.3174 5.33963 17.2792L7.21411 17.0008C7.26286 16.994 7.30939 16.9895 7.35592 16.9895C7.83229 16.9895 8.24663 17.3421 8.31975 17.8317C8.55683 19.4373 8.85817 21.016 9.21489 22.525C9.37221 23.1898 9.53395 23.8702 9.71343 24.5416C10.0214 24.4294 10.3338 24.3171 10.6418 24.2093L10.8988 24.1172C10.7437 23.7063 10.6019 23.2459 10.4823 22.7361C10.0591 20.9441 10.0879 19.2689 10.5665 17.8923C11.0628 16.4686 12.0288 15.485 13.2209 15.1975C13.5089 15.1279 13.8036 15.092 14.0939 15.092C14.5835 15.092 15.4144 15.202 16.2586 15.8083C16.2165 15.5838 16.2542 15.3502 16.365 15.1459C16.5134 14.8764 16.7771 14.6923 17.0784 14.6473L18.8975 14.3824C18.944 14.3756 18.9906 14.3734 19.0371 14.3734C19.4293 14.3734 19.7882 14.6137 19.9411 14.9887C20.2801 15.8308 20.6302 16.6594 20.9891 17.4746C20.9581 16.3024 20.9027 15.1526 20.8296 14.0478C20.7942 13.5357 21.1531 13.0799 21.6561 13.0013L23.515 12.7116C23.5638 12.7049 23.6148 12.7004 23.6635 12.7004C23.8873 12.7004 24.1066 12.779 24.2839 12.9249C24.3504 12.9811 24.408 13.0439 24.4567 13.1136C26.0033 12.4803 27.5033 11.9907 29.0388 11.618C29.1163 11.6 29.1917 11.591 29.267 11.591C29.7079 11.591 30.109 11.8964 30.2153 12.35L30.623 14.0702C30.7493 14.6024 30.4258 15.1346 29.9007 15.2626C29.3867 15.3884 28.6843 15.5681 27.9332 15.7881C27.962 15.9296 27.9908 16.0688 28.0196 16.2081C28.4561 16.0643 28.9324 15.9274 29.4974 15.7814C29.5772 15.7612 29.6592 15.7499 29.739 15.7499C30.1223 15.7499 30.479 15.979 30.6363 16.3495L31.2634 17.8227C31.3764 18.0877 31.3675 18.3908 31.2434 18.6491C31.1171 18.9096 30.8867 19.0982 30.6097 19.1723C30.1732 19.2868 29.5661 19.4777 28.7973 19.7405C28.8372 19.9066 28.8748 20.0638 28.9125 20.2188C29.5263 19.9785 30.0935 19.727 30.5942 19.4957C30.7227 19.4373 30.8601 19.4081 30.9975 19.4081C31.1193 19.4081 31.2412 19.4306 31.3586 19.4777C31.6046 19.5765 31.8018 19.7741 31.9015 20.0212L32.4997 21.5033C32.6659 21.912 32.5418 22.3836 32.1984 22.6575C31.3786 23.3065 30.3926 23.7669 29.1806 24.0611C29.1518 24.0678 29.123 24.0745 29.0942 24.079L26.9228 24.4002C26.8763 24.4069 26.8275 24.4091 26.781 24.4091C26.3445 24.4091 25.9545 24.1127 25.8393 23.6748C25.5535 22.5902 25.2588 21.4674 24.9397 20.1267C24.8423 19.7135 24.7381 19.2487 24.6362 18.7614C24.5697 20.6679 24.4346 22.6239 24.2418 24.4114C24.1931 24.8583 23.854 25.2153 23.4153 25.2827L21.7957 25.5275C21.7469 25.5342 21.6982 25.5387 21.6516 25.5387C21.3016 25.5387 20.9759 25.3478 20.8008 25.0334C20.1073 23.7826 19.4714 22.5879 18.8776 21.4269C19.1235 24.207 18.2129 26.9647 15.9617 27.5126C15.6648 27.5845 15.3613 27.6227 15.0621 27.6227C14.5858 27.6227 13.797 27.5216 12.9816 26.9782C12.8708 27.2027 12.678 27.3756 12.4432 27.461C11.6123 27.7664 10.7925 28.101 9.65582 28.5771C9.5827 28.6085 9.50737 28.6287 9.42982 28.6399L7.93643 28.869C7.88769 28.8757 7.83894 28.8802 7.7902 28.8802L7.78798 28.878ZM14.1027 18.9185C13.9676 19.3295 13.8568 20.3064 14.218 21.8289C14.4927 22.9899 14.8273 23.5625 15.0355 23.8006C15.1641 23.3627 15.2571 22.3768 14.907 20.8925C14.6323 19.736 14.3066 19.1588 14.105 18.9185H14.1027Z" fill="black"/>
<path d="M8.03169 27.3936C7.49993 25.6442 7.00804 23.8702 6.59813 22.1366C6.2547 20.6814 5.95115 19.2172 5.72293 17.7643L7.59742 17.4858C7.83893 19.1274 8.14469 20.724 8.50807 22.2646C8.74958 23.2863 8.99774 24.335 9.31237 25.3523C10.0591 25.0514 10.9232 24.7527 11.6898 24.4788L12.3501 26.035C11.517 26.3404 10.706 26.6705 9.52286 27.1668L8.02948 27.3958L8.03169 27.3936ZM13.6906 15.6646C15.3059 15.2716 17.1272 16.3091 17.9337 19.7202C18.7358 23.1044 17.588 25.6622 15.975 26.053C14.3332 26.4527 12.4875 25.4354 11.6765 22.0108C10.8744 18.6266 11.9535 16.0868 13.6928 15.6646H13.6906ZM15.5828 24.4046C16.2874 24.234 16.6596 22.5453 16.0969 20.1671C15.5673 17.9305 14.7453 17.1669 14.0828 17.3286C13.3095 17.5173 12.9506 19.2015 13.5089 21.5662C14.0385 23.8051 14.8915 24.5731 15.5828 24.4046ZM19.2786 14.8674C19.9522 16.5382 20.9249 18.8018 22.1745 21.2495L22.2255 21.2226C22.2698 18.6962 22.2122 15.9902 22.0438 13.4863L23.9028 13.1967C24.0379 16.4191 23.8718 20.4658 23.5106 23.8096L21.8909 24.0543C20.2868 21.1619 18.8133 18.2651 17.4595 15.1324L19.2786 14.8674ZM31.8394 21.3843C31.2744 21.8334 30.479 22.2915 29.1939 22.6036L27.0225 22.9248C26.7322 21.8267 26.4442 20.7285 26.1296 19.3991C25.7396 17.7486 25.2477 15.1751 24.984 13.5694C26.8186 12.8126 28.3475 12.368 29.5063 12.0851L29.914 13.8052C29.0033 14.0275 27.9752 14.306 27.0402 14.6069C27.202 15.4109 27.3681 16.244 27.541 17.03C28.3386 16.7021 29.0875 16.4753 29.9827 16.244L30.6097 17.7194C29.8121 17.9282 28.6665 18.3257 27.8866 18.6042C28.1171 19.5833 28.2832 20.2817 28.4738 21.0205C29.5307 20.6746 30.4945 20.248 31.2456 19.9021L31.8439 21.3843H31.8394Z" fill="#7542FF"/>
<path d="M27.0845 14.8248C26.9605 14.863 26.8364 14.8989 26.7167 14.9393C26.8785 15.7433 27.0447 16.5764 27.2175 17.3624C28.0151 17.0345 28.764 16.8099 29.6592 16.5764L30.1954 17.8384C30.3394 17.7958 30.4812 17.7554 30.6119 17.7217L29.9849 16.2463C29.092 16.4776 28.3431 16.7044 27.5432 17.0323C27.3881 16.3159 27.233 15.5614 27.0868 14.8248H27.0845Z" fill="#E7ADFF"/>
<path d="M29.1828 12.4152L29.5351 13.9018C29.6636 13.8703 29.7921 13.8367 29.9162 13.8052L29.5085 12.0851C28.3497 12.3658 26.8209 12.8126 24.9863 13.5694C24.9951 13.6301 25.0062 13.6929 25.0173 13.7558C26.6924 13.0866 28.1015 12.6779 29.1828 12.4152Z" fill="#E7ADFF"/>
<path d="M27.931 18.8018C27.8002 18.8467 27.6739 18.8916 27.5587 18.9343C27.7891 19.9134 27.9553 20.6118 28.1459 21.3506C29.2028 21.0048 30.1666 20.5781 30.9177 20.2323L31.4872 21.6403C31.6135 21.5549 31.7331 21.4696 31.8417 21.382L31.2434 19.8999C30.4923 20.2457 29.5285 20.6724 28.4716 21.0182C28.2965 20.3311 28.1392 19.6753 27.931 18.7995V18.8018Z" fill="#E7ADFF"/>
<path d="M18.9551 15.1975C19.6287 16.8683 20.6014 19.1319 21.851 21.5796L21.9042 21.5527C21.9087 21.2787 21.9131 21.0025 21.9131 20.7263C20.7897 18.4829 19.9034 16.4191 19.2808 14.8697L17.4617 15.1346C17.4994 15.2245 17.5393 15.312 17.5792 15.3996L18.9573 15.1998L18.9551 15.1975Z" fill="#E7ADFF"/>
<path d="M13.1854 21.8963C13.715 24.1329 14.568 24.9032 15.2593 24.7348C15.4277 24.6943 15.5762 24.5641 15.698 24.3597C15.6604 24.3777 15.6227 24.3957 15.585 24.4046C14.896 24.5731 14.0407 23.8028 13.5111 21.5662C13.0879 19.7809 13.1921 18.3841 13.5998 17.7239C12.9395 18.0944 12.667 19.7 13.1854 21.894V21.8963Z" fill="#E7ADFF"/>
<path d="M13.6906 15.6646C13.2076 15.7814 12.7777 16.0688 12.421 16.4865C12.7046 16.2462 13.0215 16.0778 13.3649 15.9947C14.9802 15.6017 16.8015 16.6392 17.608 20.0503C18.1929 22.5206 17.7365 24.5461 16.8236 25.6151C17.9514 24.6764 18.5851 22.4712 17.9337 19.7225C17.1272 16.3091 15.3059 15.2739 13.6906 15.6669V15.6646Z" fill="#E7ADFF"/>
<path d="M22.0482 13.4864C22.0549 13.5785 22.0593 13.6705 22.0659 13.7626L23.5815 13.5268C23.7122 16.6572 23.5593 20.5692 23.2181 23.8545L23.515 23.8096C23.8762 20.4681 24.0424 16.4192 23.9072 13.1967L22.0482 13.4864Z" fill="#E7ADFF"/>
<path d="M9.3146 25.3523C8.99997 24.335 8.75181 23.2841 8.5103 22.2645C8.14692 20.7263 7.84116 19.1296 7.59964 17.4858L5.72516 17.7643C5.73845 17.8564 5.75618 17.9462 5.77169 18.0383L7.27394 17.8159C7.51766 19.4575 7.82121 21.0541 8.18681 22.5947C8.42832 23.6142 8.67648 24.6651 8.99111 25.6824C9.7378 25.3837 10.6019 25.0828 11.3686 24.8089L11.9535 26.1854C12.0887 26.1338 12.2216 26.0844 12.3545 26.035L11.6943 24.4788C10.9276 24.755 10.0635 25.0514 9.31681 25.3523H9.3146Z" fill="#E7ADFF"/>
</svg>
