<svg width="25" height="37" viewBox="0 0 25 37" fill="none" xmlns="http://www.w3.org/2000/svg">
<path d="M17.1913 5.80157C16.3203 5.09694 14.9077 5.09294 13.8442 5.0658C11.7668 5.0128 9.36413 5.23306 7.38057 5.85318C6.02626 6.27658 6.19756 7.99758 7.34083 8.62777C8.43977 9.23353 16.5054 10.3523 15.1906 7.4178C14.3175 5.46932 12.4228 7.69928 12.1941 8.90549C11.7533 11.2296 16.6449 11.0603 16.2047 9.96132C15.9997 9.44966 14.6046 8.36252 14.3322 9.33126C13.8629 11.0002 12.756 12.5927 11.8198 14.0264C10.9162 15.4102 10.0024 17.644 10.3716 19.328C10.8596 21.5536 13.1188 18.8526 13.5688 18.0062C14.1551 16.9034 12.9607 17.0482 12.1728 17.1348C10.1035 17.362 8.21228 18.1619 6.54445 19.4003C6.11601 19.7185 4.87956 20.5702 5.08149 21.3459C5.34139 22.3443 6.99423 21.7634 7.52978 21.5211C8.04191 21.2894 8.73094 20.9412 8.62615 20.2766C8.6088 20.1666 8.29287 18.9701 8.09062 19.4995C7.0192 22.3041 10.1837 24.3738 12.2665 22.3082C13.8057 20.7817 14.9559 18.7386 13.2991 16.9426C12.8895 16.4986 12.4323 16.3199 12.3044 15.7367C11.9762 14.2398 13.1607 13.0945 14.6716 13.1272C14.8422 13.1309 16.2995 13.4045 16.0385 13.6582C15.35 14.3276 14.4984 14.7854 13.8534 15.5157C13.138 16.3256 12.5019 17.3342 12.0476 18.3124C11.1734 20.1947 11.7907 23.2633 14.203 23.5632C14.9993 23.6622 16.3649 23.3982 16.7822 22.5869C17.018 22.1285 16.7512 21.799 16.3527 21.5857C15.6025 21.1841 15.059 21.3284 14.3105 21.8053C12.1633 23.1733 10.3559 25.7328 9.29682 27.9982C8.46857 29.7697 8.42304 32.5749 11.2106 31.8141C12.4234 31.4831 14.6624 30.0899 14.6666 28.5917C14.6683 27.9731 13.9407 27.9762 13.7231 28.4517C12.4061 31.3285 16.9871 32.8693 18.7423 30.902C20.5147 28.9156 17.4739 26.749 15.6405 26.872C15.0305 26.9129 15.0317 26.9196 15.1413 26.2603C15.3519 24.9927 15.4976 23.7022 15.5776 22.422" stroke="#FFDF0D" stroke-width="10" stroke-linecap="round"/>
</svg>
