<svg width="20" height="20" viewBox="0 0 20 20" fill="none" xmlns="http://www.w3.org/2000/svg">
<path fill-rule="evenodd" clip-rule="evenodd" d="M11.1309 5.37547C11.089 4.97018 11.0453 4.54969 10.9378 4.13009C10.6451 3.12627 9.83416 2.50001 8.9647 2.50001C8.47972 2.49822 7.86629 2.79704 7.51851 3.09943L4.63574 5.51414H3.12663C2.01599 5.51414 1.12294 6.37034 0.954286 7.60587C0.810978 8.7922 0.776025 11.0316 0.954286 12.3369C1.10895 13.6422 1.96181 14.4859 3.12663 14.4859H4.63574L7.57443 16.9364C7.8759 17.1985 8.40807 17.4991 8.89741 17.4991C8.92887 17.5 8.95683 17.5 8.98479 17.5C9.87086 17.5 10.6512 16.8505 10.9439 15.8493C11.0542 15.4261 11.0929 15.0294 11.1302 14.646L11.1302 14.646L11.1309 14.6388L11.1702 14.2568C11.3205 13.0177 11.3205 6.97424 11.1702 5.74407L11.1309 5.37547ZM14.5055 5.41215C14.2652 5.05786 13.7889 4.96929 13.4403 5.21532C13.0951 5.46314 13.0095 5.95163 13.2498 6.30502C13.9183 7.29005 14.2862 8.60163 14.2862 10C14.2862 11.3975 13.9183 12.7099 13.2498 13.695C13.0095 14.0484 13.0951 14.5369 13.4412 14.7847C13.5705 14.8759 13.7217 14.9242 13.8772 14.9242C14.128 14.9242 14.3622 14.7981 14.5055 14.5878C15.3496 13.3443 15.8154 11.7151 15.8154 10C15.8154 8.28492 15.3496 6.65573 14.5055 5.41215ZM16.0751 2.68422C16.4228 2.43729 16.9008 2.52765 17.1394 2.88104C18.4466 4.80547 19.1667 7.3347 19.1667 9.99991C19.1667 12.6669 18.4466 15.1952 17.1394 17.1197C16.997 17.3299 16.7619 17.4561 16.5111 17.4561C16.3556 17.4561 16.2053 17.4078 16.0759 17.3165C15.7299 17.0687 15.6443 16.5811 15.8837 16.2268C17.0144 14.5609 17.6375 12.3493 17.6375 9.99991C17.6375 7.65141 17.0144 5.43979 15.8837 3.77392C15.6443 3.42053 15.7299 2.93204 16.0751 2.68422Z" fill="#161716"/>
</svg>
