<svg width="40" height="40" viewBox="0 0 40 40" fill="none" xmlns="http://www.w3.org/2000/svg">
<path d="M18.7779 34.4646C18.5011 34.4646 18.2243 34.4625 17.9455 34.4562C17.9247 34.4562 17.9039 34.4562 17.881 34.4541C13.5006 34.1082 9.85059 32.7605 7.03091 30.4469C4.36729 28.2619 3.33722 25.8913 3.08334 25.2164C3.07918 25.2079 3.0771 25.1995 3.07294 25.1889C2.98137 24.9211 0.865047 18.5854 4.92706 12.8403C8.86006 7.27448 15.2902 6.01747 16.3099 6.01747C16.3931 6.01747 16.468 6.0238 16.5409 6.03645C16.8509 6.08918 17.1776 6.25369 17.675 6.50256C18.1099 6.7219 19.0172 7.17957 19.3647 7.17957C19.8017 7.17957 20.7236 6.79361 21.3312 6.5363C21.685 6.38867 22.0179 6.24736 22.3092 6.15034C22.4757 6.0934 22.663 6.06809 22.8982 6.06809C24.0635 6.06809 26.9914 6.74721 29.8777 8.57156C32.4726 10.2103 35.8458 13.3001 37.1797 18.712C38.1411 22.6138 37.598 25.9313 35.5628 28.574C32.6349 32.3745 26.6751 34.4688 18.78 34.4688L18.7779 34.4646Z" fill="white"/>
<path d="M4.99161 24.571C4.99161 24.571 3.03968 18.906 6.60851 13.8548C10.1773 8.80355 16.1705 7.78065 16.5742 7.84814C16.9779 7.91563 18.5261 8.94064 19.4022 8.94064C20.2783 8.94064 21.6912 8.18981 22.5007 7.91774C23.3081 7.64567 32.8701 9.48689 35.2278 19.0431C37.5855 28.5972 29.2617 32.8322 18.0829 32.6276C8.9912 31.9105 5.73243 26.5514 4.99161 24.5731V24.571Z" fill="#FFC90A"/>
<path d="M18.4866 30.4785C11.7235 29.9449 8.18795 26.8424 6.51695 24.4739C6.26723 24.8768 5.89891 25.2037 5.37659 25.4251C6.60435 27.781 10.0899 31.9991 18.0829 32.6297C27.6636 32.8048 35.1446 29.7213 35.6066 22.8204C33.869 28.2133 27.0081 30.6366 18.4887 30.4806L18.4866 30.4785Z" fill="#FFF6B2"/>
<path d="M17.5626 23.9952C17.5626 23.9952 17.6209 23.9783 17.7291 23.9445C17.8394 23.9171 17.9996 23.8581 18.2119 23.8412C18.6281 23.7779 19.2711 23.7779 19.9536 24.0774C20.0369 24.1175 20.1222 24.1554 20.2096 24.1976C20.297 24.2398 20.3761 24.2968 20.4593 24.3474C20.632 24.4486 20.7839 24.5836 20.9421 24.7186C21.2376 25.0075 21.5185 25.3471 21.7037 25.7436C22.1074 26.5197 22.1761 27.4561 21.9555 28.2238C21.9555 28.2238 21.9305 28.1606 21.8848 28.0446C21.8411 27.9307 21.787 27.7641 21.6933 27.57C21.5248 27.1799 21.2501 26.6695 20.8693 26.2012C20.8235 26.1422 20.7756 26.0831 20.7277 26.0241C20.6757 25.9692 20.6237 25.9123 20.5696 25.8554L20.4926 25.7689L20.4073 25.6887C20.3511 25.636 20.2949 25.5812 20.2387 25.5242C19.9973 25.3218 19.7539 25.1172 19.4792 24.9421C18.936 24.5836 18.3076 24.2946 17.5626 23.9973V23.9952Z" fill="black"/>
<path d="M6.20478 23.4109C6.20478 23.4109 10.785 16.5185 17.9226 15.4935C25.0603 14.4706 32.4685 20.4076 33.7482 23.683C35.028 26.9584 29.1681 24.843 27.8904 24.5709C26.6106 24.2988 22.3009 25.1172 16.5762 24.6384C10.8515 24.1596 8.29405 25.8659 7.35138 25.7984C6.40871 25.7309 5.26419 24.9105 6.20686 23.4088L6.20478 23.4109Z" fill="black"/>
<path d="M33.2905 22.7993C31.2095 19.4522 24.4547 14.5592 17.9226 15.4956C12.7556 16.2359 8.92876 20.0533 7.21198 22.1054L7.28273 22.116C7.28273 22.116 9.70703 21.6372 11.3905 19.4543L11.659 18.2943L11.8608 19.3172C11.8608 19.3172 13.7462 20.1356 14.9594 19.5893L15.2965 18.0877C15.2965 18.0877 15.2965 19.5218 15.3631 19.7939C15.4297 20.066 17.5189 19.7939 19.5374 19.7264C21.556 19.6589 25.0603 20.4772 25.464 19.7939L25.7324 18.8385L25.8677 19.8614C25.8677 19.8614 27.5512 20.9539 28.4939 21.0214L29.0328 20.2031L29.0994 21.226C29.0994 21.226 31.2366 22.8014 33.2884 22.7972L33.2905 22.7993Z" fill="white"/>
<path d="M24.9063 16.5796C24.9063 16.5796 24.6378 16.4974 24.1405 16.3455C23.641 16.2084 22.9148 15.9891 21.9846 15.8246C21.0586 15.6622 19.9265 15.5209 18.6759 15.6812C18.0516 15.7445 17.4044 15.909 16.7219 16.1199C16.0414 16.3308 15.336 16.5881 14.618 16.8833C13.9001 17.1786 13.1655 17.5097 12.4393 17.8915C12.2582 17.9864 12.0751 18.0834 11.8982 18.1889C11.7172 18.2901 11.5424 18.3977 11.3697 18.5094C11.1907 18.6149 11.0346 18.7393 10.864 18.8553L10.6434 19.0346C10.5664 19.0894 10.504 19.1611 10.4166 19.2455C9.76734 19.8698 9.11392 20.4751 8.46467 21.112C7.81957 21.7469 7.17032 22.4007 6.59805 23.0903C6.45655 23.2633 6.32129 23.4383 6.20267 23.6113C6.14441 23.6978 6.0903 23.7842 6.04452 23.8686C6.00498 23.9466 5.96128 24.0394 5.95296 24.0774C5.95296 24.09 5.94464 24.0858 5.94256 24.1111L5.93839 24.1807L5.92799 24.3178C5.93215 24.4106 5.92799 24.5076 5.94256 24.5899C5.96545 24.7628 6.01539 24.902 6.09655 25.0033C6.24637 25.21 6.61262 25.326 7.02673 25.3386C7.44084 25.3513 7.88616 25.2901 8.32733 25.2036C8.77057 25.1151 9.21589 24.9991 9.6633 24.8767C9.88804 24.8156 10.1107 24.7523 10.3458 24.6932L10.5352 24.649L10.7163 24.63L11.0742 24.5941C12.021 24.5034 12.9283 24.5203 13.8106 24.4106C13.8106 24.4106 13.5235 24.4823 12.9866 24.6004C12.714 24.6468 12.3789 24.7038 11.9898 24.7713C11.7942 24.805 11.584 24.8345 11.3634 24.8788C11.1449 24.9252 10.9119 24.9737 10.6684 25.0244C10.2002 25.1678 9.68619 25.3977 9.11393 25.5896C8.54166 25.7815 7.9153 25.9819 7.19529 26.0452C6.83528 26.0705 6.44406 26.0726 6.03412 25.9102C5.83226 25.8258 5.62833 25.6993 5.47018 25.5116C5.31411 25.326 5.2059 25.1024 5.14555 24.8767C5.08937 24.6511 5.06648 24.4296 5.07064 24.2039C5.07688 24.0879 5.06648 23.9888 5.11018 23.8264C5.14555 23.6935 5.18925 23.5839 5.23919 23.4784C5.43688 23.0671 5.68244 22.7297 5.94047 22.3944C6.97887 21.072 8.23784 19.8593 9.52179 18.6276L9.75486 18.3998C9.83393 18.3133 9.94006 18.2332 10.0379 18.1509C10.2376 17.978 10.4332 17.8556 10.6309 17.7143C11.0305 17.4591 11.4383 17.2208 11.8545 17.0099C12.6869 16.5839 13.5484 16.2211 14.4266 15.9026C15.3048 15.5863 16.1996 15.3163 17.1214 15.1265C17.5792 15.0274 18.0558 14.962 18.5261 14.943C18.7612 14.9367 18.9943 14.9282 19.2273 14.9219C19.4604 14.9388 19.6914 14.9557 19.9224 14.9704C20.8401 15.0717 21.7203 15.2826 22.5485 15.5715C23.3768 15.8626 24.1592 16.2084 24.9 16.5839L24.9063 16.5796Z" fill="black"/>
<path d="M32.6537 21.9072C32.4414 20.5152 32.0231 18.8996 31.5258 17.2714C30.3126 13.3127 25.5326 9.35396 21.8286 15.2235C21.7599 15.3332 21.6912 15.4386 21.6225 15.5441C18.0329 21.0888 15.5586 21.1036 11.5944 21.6393C7.55323 22.1855 6.81241 25.6655 6.81241 25.6655C6.81241 25.6655 7.41796 26.0072 8.46468 25.558C9.86516 25.1214 12.3623 24.2904 16.5762 24.6426C22.3009 25.1214 26.6106 24.3009 27.8904 24.5751C28.6187 24.7312 30.837 25.4841 32.3706 25.4968C32.8701 24.8198 32.9013 23.5164 32.6557 21.9093L32.6537 21.9072Z" fill="#B70005"/>
<path d="M22.4237 7.74057C22.4237 7.74057 22.3967 7.7701 22.3447 7.82915C22.2926 7.89032 22.2094 7.97046 22.0929 8.06959C21.8598 8.26573 21.4769 8.5146 20.9379 8.69598C20.4011 8.87736 19.7143 9.0018 18.9173 8.96383C18.5199 8.94274 18.0933 8.8858 17.648 8.74449C17.4253 8.67278 17.1985 8.58209 16.9737 8.44711C16.8614 8.37751 16.749 8.30158 16.6449 8.20457L16.545 8.11177C16.5326 8.10122 16.5222 8.08646 16.5118 8.07591C16.4868 8.07591 16.4597 8.09068 16.4368 8.097C16.4285 8.09911 16.4306 8.09911 16.4119 8.10333L16.3432 8.1181L16.2059 8.14973C16.0248 8.19824 15.8417 8.24886 15.6544 8.29948C15.284 8.40915 14.9032 8.53147 14.5203 8.67278C13.7524 8.9554 12.9679 9.30972 12.1896 9.74208C10.6372 10.6068 9.10357 11.7984 7.88829 13.3486C6.66469 14.8903 5.78237 16.7758 5.33497 18.7858C5.10814 19.7897 4.97496 20.821 4.92294 21.8524C4.87924 22.8837 4.91045 23.9129 4.98329 24.9274C4.98329 24.9274 4.94375 24.7376 4.87091 24.3854C4.83762 24.2082 4.78351 23.991 4.74606 23.7337C4.7086 23.4742 4.6649 23.179 4.61496 22.8457C4.54837 22.1793 4.46929 21.3652 4.50259 20.4287C4.52548 19.4944 4.62952 18.4378 4.90837 17.3179C5.18306 16.2001 5.6367 15.0232 6.29845 13.8843C6.96851 12.7538 7.84459 11.6656 8.90796 10.7397C9.963 9.80324 11.1949 9.03132 12.5038 8.43656C13.1614 8.1434 13.8377 7.89664 14.5265 7.69839C14.8699 7.59715 15.2174 7.5149 15.567 7.43897L16.0914 7.33985C16.2121 7.32508 16.5783 7.25548 16.8468 7.21752C16.9113 7.31876 16.9737 7.4221 17.0424 7.51701L17.0923 7.59083C17.109 7.61403 17.1131 7.61403 17.1236 7.62668L17.1756 7.68574C17.2526 7.75744 17.3358 7.83126 17.4357 7.89242C17.6292 8.02108 17.8519 8.12442 18.0829 8.20879C18.549 8.37751 19.0526 8.4682 19.5562 8.49984C20.0598 8.53147 20.5675 8.49984 21.0566 8.38595C21.5456 8.27206 22.0242 8.07381 22.4237 7.73424V7.74057Z" fill="black"/>
<path d="M27.3119 16.8159C27.2578 16.6071 27.1828 16.4278 27.1225 16.2718C27.0559 16.1178 26.9893 15.9912 26.9373 15.8879C26.8166 15.6939 26.75 15.5884 26.75 15.5884C26.8478 15.947 26.8998 16.3118 26.9269 16.683C26.9456 17.0563 26.9414 17.4296 26.9165 17.8072C26.8582 18.558 26.7333 19.3109 26.5419 20.028C26.4524 20.3887 26.338 20.7388 26.2173 21.0741L26.1216 21.323L26.0154 21.5697C25.9447 21.7343 25.8698 21.8756 25.799 22.0274C25.4869 22.5969 25.0519 23.0756 24.5858 23.4848C24.1197 23.8961 23.6265 24.244 23.1853 24.5667C22.9835 24.7144 22.792 24.8557 22.6131 24.9928C23.2145 24.8599 23.8263 24.7798 24.4505 24.7439C24.6815 24.611 24.9084 24.4676 25.131 24.3094C25.7824 23.837 26.4046 23.2148 26.7687 22.4598C26.9539 22.0844 27.0892 21.7343 27.2036 21.3673C27.3098 21.0024 27.3972 20.6439 27.4513 20.2938C27.6864 18.8912 27.5574 17.6427 27.3119 16.8138V16.8159Z" fill="black"/>
<path d="M31.6277 18.7668C31.8858 19.5071 32.071 20.2495 32.2104 20.9687C32.3498 21.69 32.4456 22.3902 32.4893 23.0566C32.56 23.9319 32.5496 24.7481 32.4997 25.4863C32.6641 25.461 32.8347 25.4694 32.9908 25.5137C33.0532 25.1172 33.1031 24.7165 33.1344 24.3137C33.2821 22.3986 33.0948 20.4372 32.5642 18.5896C32.2978 17.6659 31.944 16.7695 31.4883 15.9343C31.0326 15.0991 30.4687 14.3251 29.7861 13.6755C29.449 13.3465 29.0682 13.066 28.6749 12.8171L28.3669 12.6484L28.2129 12.5661L28.0527 12.4986C27.9445 12.4543 27.8383 12.4079 27.7322 12.3637C27.6219 12.3257 27.5116 12.2941 27.4013 12.2603C27.1828 12.1844 26.9539 12.157 26.7313 12.1148C26.5065 12.0789 26.2797 12.0768 26.0591 12.0642C25.62 12.0684 25.183 12.1127 24.7627 12.2181C24.3444 12.3299 23.947 12.4944 23.5869 12.7032C23.229 12.9162 22.9127 13.1693 22.6318 13.4351C22.072 13.975 21.6558 14.5655 21.2937 15.1244C20.5821 16.2486 20.0535 17.2567 19.5 18.0075C19.2274 18.3851 18.9589 18.6993 18.703 18.9524C18.4491 19.2076 18.2035 19.3911 17.9996 19.5345C17.7915 19.6695 17.625 19.7686 17.5064 19.8213C17.3899 19.8783 17.3295 19.9099 17.3295 19.9099C18.1016 19.7138 18.8486 19.2477 19.4729 18.6339C20.1014 18.0202 20.6382 17.2947 21.1564 16.5691C21.6766 15.8457 22.1906 15.1139 22.7858 14.4959C23.3768 13.878 24.0697 13.4098 24.8418 13.2199C25.2267 13.1229 25.6284 13.085 26.0383 13.0934L26.3359 13.1187L26.4836 13.1314C26.5336 13.1377 26.5814 13.1503 26.6293 13.1609L26.9206 13.2178L27.2036 13.3085L27.3451 13.3528L27.4825 13.4119L27.7572 13.53L28.0194 13.6776L28.1505 13.7493L28.2753 13.8358L28.525 14.0066C28.6062 14.0678 28.6811 14.1353 28.7602 14.1985C28.9225 14.3209 29.0619 14.4706 29.2118 14.6077C29.7923 15.1814 30.2626 15.8689 30.6601 16.5755C31.0555 17.2862 31.3718 18.0286 31.6277 18.7689V18.7668Z" fill="black"/>
<path d="M5.76776 25.8912C5.76776 25.8912 5.91759 26.0705 6.19644 26.3995C6.47112 26.7349 6.88523 27.2073 7.4242 27.7789C7.70721 28.0488 7.99438 28.3757 8.35438 28.6668C8.53334 28.8144 8.70398 28.9831 8.90375 29.1308C9.10353 29.2763 9.30954 29.4282 9.5218 29.5842C10.3937 30.1727 11.4488 30.7042 12.6266 31.166C13.8127 31.5836 15.1404 31.8979 16.5388 32.0434C17.9392 32.1932 19.4146 32.1763 20.9108 32.0286C23.9053 31.7376 26.9602 30.934 29.861 30.2444C29.861 30.2444 29.63 30.3414 29.2097 30.5164C28.7872 30.6915 28.1692 30.9404 27.3888 31.2314C25.8281 31.8072 23.6098 32.5918 20.9212 32.9904C19.5811 33.1865 18.1203 33.2709 16.6178 33.1338C15.1175 32.9988 13.5859 32.6403 12.1396 32.0286L11.0846 31.5183C10.7475 31.32 10.4124 31.1196 10.0774 30.9214C9.75902 30.6915 9.44064 30.4679 9.13682 30.2296C8.99115 30.101 8.84757 29.9723 8.70398 29.8436C8.56456 29.7108 8.41057 29.5948 8.28571 29.4492C7.21402 28.3546 6.4295 27.1019 5.76776 25.887V25.8912Z" fill="black"/>
<path d="M13.2197 24.5077C13.2197 24.5077 13.4215 24.476 13.7919 24.417C13.9792 24.3917 14.2081 24.3727 14.4807 24.3453C14.7512 24.3326 15.0613 24.3094 15.4067 24.3115C16.0997 24.3031 16.9321 24.3474 17.8623 24.4212C18.7925 24.4908 19.8246 24.592 20.9129 24.5878C21.1855 24.5941 21.4602 24.5752 21.7391 24.5667C21.8785 24.5562 22.0179 24.5435 22.1574 24.533C22.2989 24.5245 22.4383 24.5077 22.5777 24.4845C22.7192 24.4634 22.8566 24.4486 23.0022 24.4233C23.152 24.398 23.304 24.3706 23.4559 24.3453C23.7576 24.2904 24.0697 24.244 24.3881 24.1997C25.0207 24.1069 25.6783 24.0563 26.3525 24.0373C26.6897 24.0416 27.0309 24.0458 27.3722 24.0711C27.5429 24.0901 27.7135 24.1069 27.8862 24.1259L28.1442 24.1555L28.3981 24.204L28.908 24.3031C29.0786 24.3326 29.2451 24.3917 29.4157 24.4338L29.9214 24.5773C30.1045 24.6405 30.2772 24.7165 30.4291 24.7903C30.7434 24.9379 31.0305 25.0877 31.3115 25.1994C31.5924 25.3112 31.8671 25.3893 32.1209 25.3829C32.25 25.3871 32.3686 25.3576 32.4893 25.3218C32.612 25.269 32.7327 25.2184 32.8285 25.1404C33.0282 24.9885 33.1926 24.7481 33.2925 24.476C33.4944 23.9361 33.4965 23.257 33.1406 22.7951C33.1302 22.8014 33.3133 22.8963 33.4819 23.2443C33.5651 23.4152 33.6317 23.6493 33.6546 23.934C33.6733 24.2166 33.6525 24.5562 33.5131 24.9084C33.4507 25.0877 33.3445 25.2606 33.2114 25.4272C33.0719 25.5938 32.8826 25.7246 32.6766 25.8343C32.2458 26.0536 31.6923 26.041 31.197 25.9102C30.6997 25.7837 30.2106 25.5538 29.7487 25.4167C29.5093 25.3576 29.2409 25.3133 28.9829 25.2585C28.8539 25.2269 28.7186 25.2121 28.5833 25.1952C28.4481 25.1783 28.3128 25.1594 28.1755 25.1425C27.0767 25.0181 25.9051 25.0708 24.6836 25.2479C24.3777 25.2965 24.0718 25.3302 23.7576 25.3871C23.4413 25.4378 23.1396 25.4926 22.792 25.5285C22.1157 25.6107 21.4373 25.6213 20.7673 25.5791C19.4251 25.501 18.1349 25.2374 16.8884 25.0012C16.2641 24.8831 15.6502 24.7734 15.0384 24.6848C14.4287 24.5984 13.8231 24.5456 13.2197 24.514V24.5077Z" fill="black"/>
<path d="M15.1674 13.8232C15.1674 13.8232 15.2195 13.8759 15.3152 13.9771C15.3631 14.0256 15.4296 14.0783 15.5004 14.1437C15.5795 14.2028 15.6627 14.2724 15.7688 14.3357C16.1746 14.6056 16.826 14.8503 17.6209 14.9431C18.4137 15.0359 19.3439 15.0042 20.2679 14.8102C20.7298 14.7174 21.1876 14.5761 21.6246 14.3905C21.8411 14.2956 22.0512 14.1859 22.2552 14.0615C22.4529 13.9328 22.6422 13.7873 22.8212 13.6186C22.8212 13.6186 22.7941 13.6966 22.7421 13.8421C22.7109 13.9117 22.6693 13.9982 22.6152 14.0973C22.5548 14.1901 22.4903 14.3061 22.3988 14.4179C22.0512 14.884 21.3728 15.4282 20.4697 15.7487C19.5749 16.0756 18.4574 16.1916 17.3878 15.9048C16.8593 15.7572 16.3411 15.5125 15.9312 15.1455C15.517 14.7891 15.234 14.2977 15.1695 13.8274L15.1674 13.8232Z" fill="black"/>
<path d="M21.9264 7.51277C21.9264 7.51277 22.2052 7.51277 22.7255 7.53175C23.2395 7.58026 24.0011 7.64564 24.9271 7.8924C25.8531 8.13072 26.9477 8.51247 28.1235 9.1009C29.2992 9.68511 30.5478 10.4908 31.7422 11.5685C32.3291 12.1169 32.9117 12.7264 33.4153 13.4435C33.5402 13.6185 33.6525 13.7999 33.7732 13.9813C33.8919 14.1627 34.0126 14.3441 34.1187 14.536C34.229 14.7258 34.3393 14.9177 34.4496 15.1118C34.5494 15.31 34.6514 15.5125 34.7513 15.7128C35.1404 16.5269 35.4755 17.3938 35.7085 18.307C35.9416 19.2202 36.0685 20.1777 36.0769 21.1437C36.0956 23.0777 35.5691 25.0413 34.5869 26.6948C34.0916 27.5194 33.4902 28.2766 32.7827 28.9009C32.0773 29.5146 31.2636 30.0503 30.3355 30.2001C30.3355 30.2001 30.4083 30.1747 30.5478 30.1262C30.6185 30.1051 30.7018 30.0651 30.7975 30.0208C30.8974 29.9786 31.0035 29.9195 31.1242 29.8499C31.6028 29.5758 32.2313 29.0696 32.8535 28.3082C33.4777 27.549 34.0896 26.5239 34.5328 25.2859C34.9719 24.0479 35.2133 22.5905 35.1259 21.0509C35.053 19.5092 34.6035 17.9105 33.896 16.3793C33.5298 15.6179 33.1011 14.8692 32.6246 14.1416C32.1522 13.4371 31.582 12.7854 30.9577 12.1823C30.6497 11.8743 30.3126 11.5959 29.9818 11.3091C29.6363 11.0412 29.295 10.765 28.933 10.5182C28.2171 10.0162 27.4742 9.55013 26.7043 9.15573C25.1706 8.35218 23.562 7.76164 21.9264 7.50855V7.51277Z" fill="black"/>
<path d="M9.59882 12.8698C9.59882 12.8698 11.1138 13.279 10.1045 14.304C9.09523 15.329 5.9634 19.0135 5.35784 21.8797C5.35784 21.8797 5.25587 16.2485 9.6009 12.8698H9.59882Z" fill="#FFF6B2"/>
<path d="M13.6775 11.3428C13.9334 11.9081 13.3944 11.9249 12.8368 12.1865C12.2791 12.4459 11.9149 12.8508 11.6589 12.2856C11.403 11.7204 11.6465 11.0518 12.2041 10.7924C12.7618 10.533 13.4215 10.7797 13.6775 11.3449V11.3428Z" fill="#FFF6B2"/>
<path d="M20.8276 19.9542C21.0836 20.5194 20.5446 20.5363 19.9869 20.7978C19.4292 21.0572 19.0651 21.4622 18.8091 20.8969C18.5532 20.3317 18.7966 19.6631 19.3543 19.4037C19.912 19.1443 20.5717 19.3911 20.8276 19.9563V19.9542Z" fill="#FF8E91"/>
<path d="M22.0221 18.3977C22.0221 18.3977 23.0313 15.3269 25.1539 15.3269C27.2765 15.3269 27.3264 13.4203 25.5326 13.4013C23.7389 13.3823 21.4165 15.9427 21.1127 17.5794C20.8089 19.2181 22.0221 18.3977 22.0221 18.3977Z" fill="#FF8E91"/>
</svg>
