<svg width="20" height="20" viewBox="0 0 20 20" fill="none" xmlns="http://www.w3.org/2000/svg">
<path fill-rule="evenodd" clip-rule="evenodd" d="M10.1457 12.6812H9.85423C7.85141 12.6812 6.228 11.0773 6.228 9.10029V5.24757C6.228 3.2698 7.85141 1.66669 9.85423 1.66669H10.1457C12.1485 1.66669 13.7727 3.2698 13.7727 5.24757V9.10029C13.7727 11.0773 12.1485 12.6812 10.1457 12.6812ZM15.4688 8.98574C15.4688 8.54491 15.8305 8.18857 16.2761 8.18857C16.7217 8.18857 17.0834 8.54491 17.0834 8.98574C17.0834 12.5722 14.3338 15.5337 10.8077 15.9315V17.5362C10.8077 17.9762 10.446 18.3334 10.0004 18.3334C9.55401 18.3334 9.19316 17.9762 9.19316 17.5362V15.9315C5.66623 15.5337 2.91669 12.5722 2.91669 8.98574C2.91669 8.54491 3.27834 8.18857 3.72395 8.18857C4.16956 8.18857 4.53121 8.54491 4.53121 8.98574C4.53121 11.9632 6.98449 14.3858 10.0004 14.3858C13.0156 14.3858 15.4688 11.9632 15.4688 8.98574Z" fill="#161716" fill-opacity="0.6"/>
</svg>
