<svg width="29" height="37" viewBox="0 0 29 37" fill="none" xmlns="http://www.w3.org/2000/svg">
<path d="M13.5184 31.7992C14.5382 32.2331 15.883 31.8535 16.9019 31.5907C18.8924 31.0773 21.118 30.2157 22.8364 29.0876C24.0098 28.3173 23.3797 26.7267 22.1212 26.4376C20.9115 26.1596 12.9358 27.2844 14.9829 29.7189C16.3421 31.3353 17.5392 28.7 17.4294 27.4905C17.218 25.1602 12.611 26.6488 13.328 27.5747C13.6618 28.0058 15.2839 28.6612 15.2801 27.6658C15.2736 25.951 15.8942 24.1357 16.3956 22.518C16.8796 20.9564 17.1426 18.5836 16.3344 17.082C15.2662 15.0975 13.8502 18.2798 13.6519 19.207C13.3935 20.4151 14.4904 19.9532 15.2163 19.6571C17.123 18.8793 18.7048 17.6052 19.9551 15.9745C20.2763 15.5557 21.2213 14.4099 20.8187 13.7268C20.3005 12.8477 18.886 13.8488 18.4423 14.2246C18.0181 14.584 17.4572 15.1022 17.7372 15.706C17.7836 15.8059 18.4088 16.8583 18.4575 16.2999C18.7155 13.3413 15.1437 12.2314 13.7231 14.7615C12.6733 16.6313 12.1338 18.8868 14.1972 20.1455C14.7072 20.4567 15.1906 20.5025 15.4706 21.0227C16.189 22.3574 15.3731 23.7683 13.9271 24.1472C13.7638 24.1899 12.3034 24.3252 12.4827 24.0131C12.956 23.1895 13.6417 22.523 14.0571 21.6532C14.5178 20.6886 14.8492 19.5566 15.0158 18.5029C15.3365 16.4753 13.9165 13.7238 11.5405 14.0933C10.7562 14.2152 9.52892 14.8369 9.35214 15.7219C9.25224 16.222 9.59545 16.463 10.0324 16.5577C10.855 16.7361 11.3328 16.4514 11.9154 15.7946C13.5865 13.9106 14.6111 10.9855 15.0037 8.54323C15.3107 6.63335 14.5927 3.95272 12.1477 5.43294C11.0839 6.07691 9.33229 8.00976 9.73488 9.43601C9.90108 10.0248 10.5924 9.82442 10.6704 9.31311C11.1423 6.21928 6.3667 5.99687 5.231 8.34451C4.08423 10.715 7.5646 11.9506 9.2752 11.3361C9.84433 11.1317 9.84137 11.1256 9.91609 11.7825C10.0598 13.0454 10.2714 14.3124 10.5427 15.5519" stroke="#38E577" stroke-width="10" stroke-linecap="round"/>
</svg>
