<svg width="24" height="24" viewBox="0 0 24 24" fill="none" xmlns="http://www.w3.org/2000/svg">
<path d="M12 20.5312L12 20.5191M12 12L12 11.9878M12 3.46875L12 3.45656M12 19.3125C12.6731 19.3125 13.2187 19.8582 13.2187 20.5312C13.2187 21.2043 12.6731 21.75 12 21.75C11.3269 21.75 10.7812 21.2043 10.7812 20.5312C10.7812 19.8582 11.3269 19.3125 12 19.3125ZM12 10.7812C12.6731 10.7812 13.2187 11.3269 13.2187 12C13.2187 12.6731 12.6731 13.2187 12 13.2187C11.3269 13.2187 10.7812 12.6731 10.7812 12C10.7812 11.3269 11.3269 10.7812 12 10.7812ZM12 2.25C12.6731 2.25 13.2187 2.79565 13.2187 3.46875C13.2187 4.14185 12.6731 4.6875 12 4.6875C11.3269 4.6875 10.7812 4.14185 10.7812 3.46875C10.7812 2.79565 11.3269 2.25 12 2.25Z" stroke="#161716" stroke-width="2.67" stroke-linecap="round" stroke-linejoin="round"/>
</svg>
