<svg width="40" height="40" viewBox="0 0 40 40" fill="none" xmlns="http://www.w3.org/2000/svg">
<path d="M34.9359 18.1227V17.1311C34.9359 13.744 32.218 10.9894 28.8761 10.9894H28.8029C28.14 10.9894 27.484 11.1006 26.86 11.3138C25.9753 10.9987 25.0313 10.8411 24.0461 10.8411C22.8071 10.8411 21.6368 11.0913 20.5647 11.5871C19.4903 11.0913 18.32 10.8411 17.0833 10.8411C16.0387 10.8411 15.0398 11.0195 14.1071 11.374C13.1699 11.0126 12.1596 10.8296 11.0898 10.8296C9.84857 10.8296 8.67135 11.0821 7.597 11.5802C6.42892 12.1223 5.43457 12.9216 4.64138 13.9595C3.96247 14.8491 3.45273 15.8801 3.12585 17.0269C2.84012 18.0277 2.69611 19.1212 2.69611 20.275C2.69611 21.4287 2.83326 22.5338 3.11442 23.523C3.4413 24.6698 3.95104 25.7031 4.62995 26.5904C5.42771 27.6353 6.44035 28.4461 7.64043 28.9998C7.65643 29.0068 7.67243 29.0137 7.68843 29.0207C8.74221 29.4771 9.87829 29.7111 11.0692 29.7111C12.1527 29.7111 13.1722 29.5304 14.114 29.1713C15.0535 29.5211 16.0547 29.6995 17.0948 29.6995C18.288 29.6995 19.4469 29.4586 20.5418 28.9813C20.5533 28.9767 20.567 28.9697 20.5784 28.9651C20.5967 28.9744 20.663 29.0045 20.679 29.0114C21.7328 29.4678 22.8688 29.6995 24.0598 29.6995C25.029 29.6995 25.9776 29.5396 26.8874 29.2223C27.5046 29.4308 28.1515 29.5396 28.8029 29.5396H31.8363C35.1782 29.5396 37.8961 26.7827 37.8961 23.391C37.8961 21.204 36.7235 19.2116 34.9382 18.1227H34.9359Z" fill="white"/>
<path d="M11.0669 27.3966C10.1892 27.3966 9.35482 27.2275 8.58677 26.8939C7.72271 26.4954 7.00495 25.9185 6.43577 25.1748C5.93517 24.5192 5.55571 23.7477 5.30884 22.8836C5.08711 22.1075 4.97968 21.2549 4.97968 20.2795C4.97968 19.3042 5.09397 18.4655 5.32027 17.6755C5.56714 16.8114 5.9466 16.0399 6.4472 15.3819C7.01181 14.6429 7.71814 14.0753 8.54562 13.6907C9.32281 13.3316 10.1777 13.1486 11.0898 13.1486C12.203 13.1486 13.2134 13.4104 14.1003 13.9293C14.2443 13.8459 14.3906 13.7695 14.5392 13.7023C15.3163 13.3432 16.1713 13.1602 17.0833 13.1602C17.9954 13.1602 18.8503 13.3432 19.6275 13.7023C19.9589 13.8552 20.2744 14.0405 20.5693 14.2537C20.8618 14.0405 21.175 13.8575 21.5065 13.7023C22.2814 13.3432 23.1386 13.1602 24.0506 13.1602C24.9627 13.1602 25.8176 13.3432 26.5948 13.7023C26.6908 13.7463 26.7868 13.7949 26.8805 13.8436C27.4611 13.4961 28.1263 13.3084 28.8052 13.3084H28.8784C30.9585 13.3084 32.6523 15.0251 32.6523 17.1334V19.661C34.3462 20.0432 35.6102 21.5723 35.6102 23.3932C35.6102 25.5061 33.9164 27.2252 31.8363 27.2252H28.8029C28.1355 27.2252 27.4794 27.0421 26.9034 26.7039C26.8051 26.7572 26.7022 26.8081 26.6017 26.8545C25.7879 27.2089 24.9375 27.385 24.0575 27.385C23.1774 27.385 22.3454 27.2159 21.5773 26.8823C21.2184 26.7178 20.887 26.5232 20.583 26.2985C20.2881 26.5116 19.9704 26.6969 19.6366 26.8522C18.8229 27.2066 17.9725 27.3827 17.0925 27.3827C16.2124 27.3827 15.3804 27.2136 14.6123 26.88C14.4363 26.7989 14.2694 26.7132 14.1094 26.6205C13.2202 27.1348 12.1984 27.3943 11.0646 27.3943L11.0669 27.3966Z" fill="#FF0D6D"/>
<path d="M11.0669 26.5556C10.3012 26.5556 9.57655 26.4097 8.91365 26.1224C8.18674 25.7865 7.57642 25.2953 7.09181 24.6605C6.65521 24.0883 6.32148 23.4118 6.10432 22.6496C5.90545 21.9499 5.80716 21.1738 5.80716 20.2772C5.80716 19.3806 5.91002 18.6207 6.11575 17.9049C6.33291 17.1426 6.66436 16.4662 7.10324 15.8939C7.58556 15.2638 8.18674 14.7796 8.89079 14.4529C9.55826 14.1448 10.2989 13.9872 11.0898 13.9872C12.2327 13.9872 13.2431 14.3023 14.0934 14.9232C14.0934 14.9232 14.0934 14.9232 14.0957 14.9232C14.3426 14.7448 14.6054 14.5896 14.882 14.4622C15.5495 14.154 16.2901 13.9965 17.081 13.9965C17.8719 13.9965 18.6126 14.154 19.28 14.4622C19.7578 14.6823 20.1898 14.9742 20.5693 15.3333C20.9441 14.9742 21.3716 14.6823 21.8471 14.4622C22.5145 14.154 23.2551 13.9965 24.0461 13.9965C24.837 13.9965 25.5776 14.154 26.2451 14.4622C26.4782 14.5711 26.7022 14.6962 26.9148 14.8375C27.4406 14.3927 28.1057 14.1448 28.8007 14.1448H28.8738C30.499 14.1448 31.8203 15.4839 31.8203 17.1311V20.4046H31.834C33.4592 20.4046 34.7805 21.7437 34.7805 23.3909C34.7805 25.0381 33.4592 26.3842 31.834 26.3842H28.8007C28.1172 26.3842 27.4588 26.1409 26.9354 25.7077C26.7205 25.8536 26.4942 25.9811 26.2565 26.0899C25.5593 26.3934 24.8233 26.544 24.0575 26.544C23.2917 26.544 22.5671 26.3981 21.9042 26.1108C21.4105 25.8814 20.9693 25.5826 20.5875 25.2142C20.2058 25.5733 19.7738 25.8675 19.2937 26.0899C18.5966 26.3934 17.8605 26.544 17.0947 26.544C16.329 26.544 15.6044 26.3981 14.9415 26.1108C14.6443 25.9741 14.37 25.8119 14.114 25.6266C13.2614 26.2429 12.2396 26.5556 11.0692 26.5556H11.0669Z" fill="#6F13FF"/>
<path d="M11.0669 26.0274C10.372 26.0274 9.71599 25.8953 9.11709 25.6359C8.47476 25.3393 7.9353 24.9038 7.50327 24.3362C7.10553 23.8172 6.8038 23.1986 6.60493 22.5013C6.41977 21.8503 6.32834 21.1205 6.32834 20.2749C6.32834 19.4293 6.42434 18.718 6.61636 18.0485C6.81523 17.3512 7.11696 16.7326 7.5147 16.2136C7.94444 15.653 8.47933 15.2197 9.10566 14.9302C9.70456 14.6521 10.372 14.5108 11.0875 14.5108C12.1184 14.5108 13.0259 14.7935 13.7871 15.3472C13.8923 15.4236 13.9951 15.507 14.0934 15.5927C14.3951 15.3286 14.7312 15.1085 15.0992 14.9394C15.6981 14.6614 16.3656 14.5201 17.081 14.5201C17.7965 14.5201 18.464 14.6614 19.0629 14.9394C19.6481 15.2105 20.1555 15.5997 20.5715 16.0955C20.983 15.5951 21.4836 15.2082 22.0619 14.9394C22.6608 14.6614 23.3283 14.5201 24.0438 14.5201C24.7593 14.5201 25.4267 14.6614 26.0256 14.9394C26.3639 15.097 26.6748 15.2916 26.9605 15.5256C27.4154 14.9904 28.0829 14.6707 28.7984 14.6707H28.8715C30.2087 14.6707 31.2968 15.7734 31.2968 17.1287V20.9329H31.8317C33.1689 20.9329 34.257 22.0356 34.257 23.3909C34.257 24.7462 33.1689 25.856 31.8317 25.856H28.7984C28.092 25.856 27.4314 25.5409 26.9765 25.0196C26.6908 25.2559 26.3776 25.4528 26.037 25.6104C25.413 25.8814 24.7501 26.0181 24.0552 26.0181C23.3603 26.0181 22.7043 25.8861 22.1076 25.6266C21.511 25.3509 21.0036 24.9571 20.5876 24.4474C20.1692 24.9478 19.6618 25.337 19.072 25.6104C18.448 25.8814 17.7851 26.0181 17.0902 26.0181C16.3953 26.0181 15.7392 25.8861 15.1426 25.6266C14.7632 25.4505 14.418 25.2258 14.1117 24.9547C14.0454 25.0127 13.9791 25.0683 13.9083 25.1215C13.1265 25.7239 12.171 26.0297 11.0646 26.0297L11.0669 26.0274Z" fill="#31FF7D"/>
<path d="M31.834 21.4634H30.7779V17.1311C30.7779 16.0677 29.923 15.2012 28.8738 15.2012H28.8007C28.0257 15.2012 27.356 15.6738 27.0611 16.348C26.7091 15.9542 26.2908 15.6437 25.813 15.4213C25.2827 15.1757 24.6884 15.0506 24.0461 15.0506C23.4037 15.0506 22.8094 15.1757 22.2791 15.4213C21.7282 15.6761 21.2596 16.0561 20.8824 16.5472C20.7727 16.6932 20.6698 16.8461 20.5738 17.0083C20.471 16.8345 20.3612 16.6723 20.2401 16.5194C19.8606 16.0445 19.392 15.6738 18.8457 15.4213C18.3154 15.1757 17.7211 15.0506 17.0788 15.0506C16.4364 15.0506 15.8421 15.1757 15.3118 15.4213C14.8432 15.6391 14.4317 15.9472 14.0888 16.3387C13.906 16.1279 13.7002 15.9379 13.4808 15.7781C12.811 15.2892 12.0064 15.0414 11.0875 15.0414C10.4452 15.0414 9.85085 15.1665 9.32053 15.412C8.77193 15.6669 8.30104 16.0468 7.92387 16.538C7.56728 17.0036 7.29526 17.562 7.11467 18.1968C6.93866 18.8177 6.84723 19.5173 6.84723 20.2749C6.84723 21.0695 6.93181 21.7507 7.10325 22.353C7.28383 22.9878 7.55585 23.5438 7.91244 24.0118C8.29418 24.5099 8.76278 24.8922 9.32053 25.1493C9.85314 25.381 10.4406 25.4992 11.0646 25.4992C12.0544 25.4992 12.9048 25.2304 13.5928 24.6999C13.7803 24.5563 13.954 24.3918 14.1117 24.2134C14.4592 24.6095 14.8706 24.92 15.3461 25.1401C15.8787 25.3718 16.4661 25.4876 17.0902 25.4876C17.7142 25.4876 18.304 25.3694 18.8572 25.1285C19.4035 24.876 19.8721 24.5053 20.2515 24.0304C20.375 23.8751 20.4893 23.7083 20.5921 23.5323C20.6881 23.6967 20.7933 23.8543 20.9053 24.0026C21.287 24.5007 21.7556 24.8829 22.3134 25.1401C22.846 25.3718 23.4334 25.4876 24.0575 25.4876C24.6815 25.4876 25.2713 25.3694 25.8245 25.1285C26.3022 24.9061 26.7228 24.5956 27.0725 24.2041C27.3743 24.8667 28.0349 25.3277 28.8029 25.3277H31.8363C32.8855 25.3277 33.7404 24.459 33.7404 23.3909C33.7404 22.3229 32.8855 21.4611 31.8363 21.4611L31.834 21.4634Z" fill="#F0D400"/>
<path d="M31.834 21.9916H30.2568V17.1311C30.2568 16.3596 29.6373 15.7294 28.8738 15.7294H28.8007C28.0395 15.7294 27.4177 16.3573 27.4177 17.1311V17.9767C27.26 17.5504 27.0543 17.1728 26.7982 16.8531C26.4714 16.4407 26.0645 16.121 25.5936 15.9032C25.1319 15.69 24.6107 15.5812 24.0438 15.5812C23.4769 15.5812 22.9557 15.69 22.494 15.9032C22.0208 16.121 21.6185 16.4476 21.2939 16.8739C20.9784 17.2863 20.7361 17.7844 20.5738 18.352C20.5738 18.3497 20.5738 18.3474 20.5738 18.345C20.4093 17.7635 20.1601 17.2631 19.8355 16.8554C19.5086 16.443 19.1017 16.1233 18.6309 15.9055C18.1691 15.6924 17.6479 15.5835 17.081 15.5835C16.5141 15.5835 15.993 15.6924 15.5312 15.9055C15.0581 16.1233 14.6557 16.4499 14.3311 16.8762C14.226 17.0152 14.1277 17.1635 14.0386 17.321C13.9906 17.1241 13.8991 16.9341 13.7665 16.772C13.5928 16.5565 13.3939 16.3689 13.1768 16.209C12.5985 15.785 11.8944 15.5719 11.0875 15.5719C10.5206 15.5719 9.99944 15.6808 9.5377 15.8939C9.06452 16.1117 8.66221 16.4384 8.33762 16.8646C8.02217 17.2793 7.77987 17.7774 7.61757 18.345C7.45299 18.9196 7.3707 19.5683 7.3707 20.2772C7.3707 21.0232 7.44842 21.6534 7.60614 22.2094C7.76844 22.7793 8.01074 23.2774 8.32619 23.6898C8.65535 24.1207 9.05538 24.4474 9.52627 24.6651C9.99487 24.869 10.5115 24.971 11.0647 24.971C11.9379 24.971 12.683 24.7393 13.2774 24.2783C13.5631 24.0582 13.8145 23.7848 14.0203 23.4697C14.0523 23.4187 14.082 23.3678 14.1071 23.3145C14.1826 23.4419 14.2649 23.5624 14.3517 23.6759C14.6809 24.1068 15.0809 24.4312 15.5518 24.6512C16.0204 24.8551 16.537 24.9571 17.0902 24.9571C17.6434 24.9571 18.16 24.8551 18.64 24.6466C19.1132 24.4288 19.5178 24.1091 19.8446 23.6967C20.1692 23.289 20.4184 22.7886 20.583 22.2071C20.5853 22.1978 20.5876 22.1885 20.5898 22.1793C20.5898 22.1839 20.5921 22.1909 20.5944 22.1955C20.7567 22.7654 20.999 23.2635 21.3145 23.6782C21.6436 24.1091 22.0436 24.4335 22.5145 24.6536C22.9831 24.8574 23.4997 24.9594 24.0529 24.9594C24.6061 24.9594 25.1227 24.8574 25.6027 24.6489C26.0759 24.4312 26.4805 24.1114 26.8074 23.6991C27.0543 23.3886 27.2577 23.0226 27.4154 22.6079V23.4002C27.4154 24.1717 28.0349 24.8018 28.7984 24.8018H31.8317C32.5929 24.8018 33.2147 24.174 33.2147 23.3956C33.2147 22.6171 32.5952 21.9939 31.8317 21.9939L31.834 21.9916Z" fill="#56005C"/>
<path d="M12.9276 18.5026C12.5436 18.6092 12.1276 18.5026 11.8487 18.2153C11.7916 18.1551 11.7367 18.1064 11.6864 18.0809C11.483 17.9674 11.2681 17.9095 11.0532 17.9095C10.1617 17.9095 9.70913 18.7111 9.70913 20.312C9.70913 21.102 9.83257 21.6974 10.0817 22.0982C10.3309 22.499 10.6692 22.7052 11.0989 22.7052C11.3824 22.7052 11.6293 22.6241 11.8441 22.4758C11.9401 22.4086 12.027 22.3183 12.1024 22.2024C12.3082 21.8943 12.6716 21.7368 13.0259 21.8318L13.0922 21.8503C13.6637 22.0032 13.9151 22.682 13.586 23.1801C13.4122 23.4465 13.2042 23.6736 12.9619 23.8589C12.443 24.2597 11.8098 24.4427 11.0647 24.4427C10.5686 24.4427 10.1274 24.3501 9.73199 24.1786C9.33654 23.9956 9.00966 23.7199 8.73764 23.3654C8.46563 23.011 8.25304 22.5754 8.10446 22.0611C7.95816 21.5468 7.88959 20.9514 7.88959 20.2749C7.88959 19.5984 7.96959 19.0053 8.11589 18.4887C8.26218 17.972 8.47705 17.5388 8.74907 17.1843C9.02109 16.8299 9.3594 16.5542 9.75485 16.3712C10.1503 16.1881 10.5915 16.0955 11.0875 16.0955C11.787 16.0955 12.3859 16.2785 12.8728 16.633C13.0534 16.765 13.2179 16.9226 13.3642 17.1033C13.762 17.5921 13.5288 18.3311 12.9276 18.5003V18.5026Z" fill="white"/>
<path d="M13.9219 20.2472C13.9219 19.573 13.9654 19.017 14.1117 18.5026C14.258 17.9883 14.4728 17.5528 14.7448 17.1983C15.0169 16.8438 15.3552 16.5682 15.7506 16.3851C16.1461 16.2021 16.5872 16.1094 17.0833 16.1094C17.5793 16.1094 18.0205 16.2021 18.4159 16.3851C18.8114 16.5682 19.1497 16.8323 19.4331 17.1867C19.7166 17.5412 19.9292 17.9767 20.0778 18.4911C20.2263 19.0054 20.3041 19.6008 20.3041 20.2773C20.3041 20.9538 20.2355 21.5469 20.0892 22.0635C19.9429 22.5778 19.728 23.0134 19.4446 23.3678C19.1611 23.7223 18.8228 23.9864 18.4274 24.1694C18.0319 24.3409 17.5907 24.4335 17.0947 24.4335C16.5987 24.4335 16.1575 24.3409 15.7621 24.1694C15.3666 23.9864 15.0397 23.7107 14.7677 23.3562C14.4957 23.0018 14.2831 22.5662 14.1345 22.0519C13.9859 21.5376 13.9196 20.9422 13.9196 20.2657V20.2472H13.9219ZM16.1004 22.0728C16.3267 22.462 16.665 22.6566 17.1176 22.6566C17.5702 22.6566 17.9085 22.462 18.1348 22.0728C18.3611 21.6835 18.4731 21.0766 18.4731 20.2634C18.4731 19.4502 18.3611 18.8432 18.1348 18.454C17.9085 18.0648 17.5702 17.8702 17.1176 17.8702C16.665 17.8702 16.3267 18.0648 16.1004 18.454C15.8741 18.8432 15.7621 19.4502 15.7621 20.2634C15.7621 21.0766 15.8741 21.6835 16.1004 22.0728Z" fill="white"/>
<path d="M20.8847 20.2657C20.8847 19.5915 20.9305 19.017 21.0767 18.5026C21.223 17.9883 21.4379 17.5528 21.7099 17.1983C21.9819 16.8438 22.3203 16.5682 22.7157 16.3851C23.1112 16.2021 23.5523 16.1094 24.0484 16.1094C24.5444 16.1094 24.9856 16.2021 25.381 16.3851C25.7765 16.5682 26.1148 16.8323 26.3982 17.1867C26.6817 17.5412 26.8943 17.9767 27.0428 18.4911C27.1914 19.0054 27.2691 19.6008 27.2691 20.2773C27.2691 20.9538 27.2006 21.5469 27.0543 22.0635C26.908 22.5778 26.6931 23.0134 26.4097 23.3678C26.1262 23.7223 25.7879 23.9864 25.3925 24.1694C24.997 24.3409 24.5558 24.4335 24.0598 24.4335C23.5638 24.4335 23.1226 24.3409 22.7271 24.1694C22.3317 23.9864 22.0048 23.7107 21.7328 23.3562C21.4608 23.0018 21.2482 22.5662 21.0996 22.0519C20.951 21.5376 20.8847 20.9422 20.8847 20.2657ZM23.0632 22.0751C23.2895 22.4643 23.6278 22.6589 24.0804 22.6589C24.533 22.6589 24.8713 22.4643 25.0976 22.0751C25.3239 21.6859 25.4359 21.0789 25.4359 20.2657C25.4359 19.4525 25.3239 18.8455 25.0976 18.4563C24.8713 18.0671 24.533 17.8725 24.0804 17.8725C23.6278 17.8725 23.2895 18.0671 23.0632 18.4563C22.8369 18.8455 22.7249 19.4525 22.7249 20.2657C22.7249 21.0789 22.8369 21.6859 23.0632 22.0751Z" fill="white"/>
<path d="M32.6958 23.3932V23.4002C32.6958 23.8821 32.3094 24.2736 31.834 24.2736H28.8006C28.3252 24.2736 27.9389 23.8821 27.9389 23.4002V17.1334C27.9389 16.6515 28.3252 16.26 28.8006 16.26H28.8738C29.3493 16.26 29.7356 16.6515 29.7356 17.1334V22.265C29.7356 22.4063 29.8499 22.5221 29.9893 22.5221H31.834C32.3094 22.5221 32.6958 22.9137 32.6958 23.3956V23.3932Z" fill="white"/>
</svg>
