<svg width="41" height="40" viewBox="0 0 41 40" fill="none" xmlns="http://www.w3.org/2000/svg">
<g filter="url(#filter0_d_1_1032)">
<path d="M36.6268 11.4594C36.4502 10.3922 35.589 9.60617 34.5666 9.47802C34.143 9.27798 33.6582 9.2016 33.161 9.28391L31.1148 9.62265C29.8155 9.83774 28.9322 11.0714 29.1473 12.3707L29.2395 12.9276L28.3799 13.0699C27.991 13.1343 27.6377 13.2904 27.3407 13.5121C26.9881 13.3979 26.6055 13.3636 26.2144 13.4284L24.3229 13.7415C24.2876 13.7473 24.2522 13.7532 24.2172 13.7613L23.8752 13.0256C23.5233 12.2711 22.8043 11.768 22.0065 11.6663C21.5781 11.4648 21.091 11.3887 20.6027 11.4696L18.3908 11.8358C17.3367 12.0102 16.5217 12.8739 16.4049 13.9376L16.2788 15.1095C16.14 15.1075 16.0008 15.1169 15.8593 15.1403L14.0629 15.4377C14.0126 14.9557 13.8161 14.4956 13.4836 14.1192C13.0916 13.6711 12.5598 13.3936 11.9895 13.3223C11.5586 13.1189 11.0696 13.0455 10.5791 13.1267L8.60581 13.4533C8.05117 13.5452 7.55376 13.8318 7.19504 14.2431C7.08092 14.212 6.9657 14.188 6.84973 14.1731C6.41913 13.972 5.92985 13.8963 5.44371 13.9768L3.45718 14.3057C2.63738 14.4414 1.95927 14.9805 1.64103 15.746C1.32243 16.5093 1.41943 17.3696 1.89959 18.0484L5.06913 22.5069L5.56846 25.5232C5.74515 26.5905 6.60629 27.3765 7.62869 27.5046C8.05229 27.7046 8.53936 27.7807 9.03434 27.6987L10.3999 27.4726L10.4219 27.6052C10.5986 28.6725 11.4597 29.4585 12.4821 29.5867C12.9057 29.7867 13.3906 29.8631 13.8878 29.7808L18.906 28.95C20.2053 28.7349 21.0886 27.5012 20.8735 26.2019L20.7985 25.7489L20.867 25.7376C21.4437 25.6421 21.9422 25.3485 22.2999 24.9306C22.4239 24.9668 22.5487 24.9938 22.6787 25.0109C23.0257 25.1736 23.4137 25.2547 23.8103 25.2367L23.8352 25.387C24.0119 26.4543 24.873 27.2403 25.8954 27.3684C26.319 27.5684 26.8039 27.6448 27.3011 27.5625L29.1926 27.2494C29.5815 27.185 29.9348 27.0289 30.2318 26.8072C30.5844 26.9213 30.967 26.9556 31.3581 26.8909L33.2496 26.5778C34.5489 26.3627 35.4322 25.129 35.2171 23.8297L35.1421 23.3767L36.1563 23.2088C37.4556 22.9937 38.3389 21.76 38.1238 20.4607L37.7894 18.441C37.7675 18.3085 37.7348 18.1799 37.6919 18.0576C37.6917 17.9328 37.6844 17.8068 37.6636 17.6809L36.6327 11.4539L36.6268 11.4594Z" fill="white"/>
<path d="M36.1336 11.5411L36.2861 12.4627L36.292 12.4571L37.1703 17.7626C37.1855 17.8543 37.1917 17.9519 37.1919 18.0585L37.1921 18.1433L37.2201 18.2233C37.2531 18.317 37.2787 18.4174 37.2961 18.5227L37.6305 20.5424C37.8005 21.5692 37.1015 22.5455 36.0747 22.7155L35.0604 22.8834L34.5671 22.9651L34.6488 23.4584L34.7238 23.9113C34.8938 24.9382 34.1948 25.9145 33.168 26.0845L31.2764 26.3976C30.9665 26.4489 30.6648 26.4218 30.3858 26.3315L30.1399 26.2519L29.9327 26.4065C29.698 26.5817 29.4189 26.7051 29.1109 26.7561L27.2194 27.0692C26.8249 27.1345 26.4429 27.074 26.1089 26.9163L26.0368 26.8822L25.9576 26.8723C25.1487 26.7709 24.468 26.1483 24.3285 25.3053L24.3036 25.1551L24.2311 24.7171L23.7877 24.7372C23.4739 24.7515 23.1663 24.6873 22.891 24.5582L22.8207 24.5252L22.7438 24.5151C22.6409 24.5016 22.5412 24.4801 22.44 24.4506L22.13 24.3601L21.92 24.6055C21.6368 24.9364 21.2428 25.1686 20.7853 25.2443L20.7168 25.2557L20.2235 25.3373L20.3052 25.8306L20.3802 26.2836C20.5502 27.3105 19.8512 28.2867 18.8244 28.4567L13.8061 29.2875C13.4116 29.3528 13.0296 29.2922 12.6956 29.1345L12.6235 29.1005L12.5443 29.0905C11.7354 28.9891 11.0547 28.3665 10.9152 27.5236L10.8932 27.391L10.8116 26.8977L10.3183 26.9794L8.95268 27.2054C8.56018 27.2704 8.17591 27.2101 7.8422 27.0525L7.77005 27.0184L7.69088 27.0085C6.88194 26.9071 6.20129 26.2845 6.06175 25.4415L5.56242 22.4253L5.54356 22.3113L5.47665 22.2172L2.30778 17.7596C2.30768 17.7595 2.30757 17.7593 2.30746 17.7592C1.92622 17.2199 1.85078 16.5416 2.10245 15.9386L2.10273 15.9379C2.35486 15.3314 2.8895 14.9065 3.53884 14.799L5.52537 14.4701C5.9078 14.4068 6.2951 14.4659 6.63811 14.6261L6.7088 14.6592L6.7862 14.6691C6.87619 14.6806 6.96864 14.6997 7.06375 14.7256L7.36597 14.8078L7.57185 14.5718C7.85654 14.2454 8.25068 14.0189 8.68747 13.9466L10.6607 13.62C11.0495 13.5556 11.4356 13.6138 11.7761 13.7744L11.8483 13.8085L11.9275 13.8184C12.3765 13.8746 12.7963 14.0929 13.1073 14.4484L13.1089 14.4503C13.3713 14.7473 13.5259 15.1094 13.5656 15.4896L13.6206 16.0177L14.1445 15.931L15.941 15.6336C16.0512 15.6154 16.1606 15.6078 16.2716 15.6094L16.7272 15.616L16.7759 15.163L16.9019 13.9922C16.9019 13.992 16.9019 13.9918 16.902 13.9916C16.9946 13.15 17.6407 12.4667 18.4724 12.329L20.6844 11.9629C21.069 11.8992 21.4536 11.9587 21.7937 12.1187L21.865 12.1523L21.9432 12.1622C22.5759 12.2429 23.1445 12.6423 23.4218 13.2364C23.4219 13.2366 23.422 13.2368 23.4221 13.2369L23.7638 13.972L23.9346 14.3395L24.3295 14.2485C24.3467 14.2445 24.3667 14.2411 24.4046 14.2348L26.2961 13.9217C26.606 13.8703 26.9078 13.8975 27.1867 13.9878L27.4326 14.0674L27.6398 13.9128C27.8745 13.7375 28.1537 13.6141 28.4616 13.5632L29.3212 13.4209L29.8145 13.3392L29.7328 12.8459L29.6406 12.2891C29.4706 11.2622 30.1696 10.2859 31.1964 10.1159L33.2426 9.7772C33.6371 9.71189 34.0192 9.77245 34.3531 9.93014L34.4253 9.96422L34.5044 9.97414C35.3134 10.0755 35.994 10.6982 36.1336 11.5411Z" stroke="#161716"/>
</g>
<path d="M11.6876 15.6946L9.9444 21.4704L10.5337 25.0302L8.6422 25.3434L8.05288 21.7835L4.56348 16.8739L6.55001 16.5451L8.12094 18.8073C8.32829 19.0999 8.45652 19.3533 8.54984 19.5468C8.64316 19.7402 8.69534 19.836 8.70639 19.8341L8.7307 19.8301C8.74174 19.8283 8.76248 19.7204 8.78628 19.5076C8.81229 19.2945 8.8498 18.9999 8.94074 18.6716L9.7121 16.0216L11.6854 15.6949L11.6876 15.6946Z" fill="#7C4EC4"/>
<path d="M10.5587 25.1806L8.6672 25.4937C8.58545 25.5072 8.50818 25.4519 8.49465 25.3702L7.91082 21.8435L4.442 16.9623C4.41222 16.9195 4.40565 16.8661 4.42485 16.8175C4.44405 16.7689 4.48827 16.7344 4.5391 16.726L6.52563 16.3971C6.58308 16.3876 6.63939 16.4123 6.67432 16.4588L8.24525 18.721C8.42577 18.9749 8.54704 19.2 8.64918 19.4056C8.67406 19.213 8.71192 18.9343 8.79768 18.6295L9.56904 15.9796C9.58493 15.9247 9.63248 15.8828 9.68772 15.8736L11.661 15.547C11.7118 15.5386 11.7648 15.557 11.7987 15.5968C11.8325 15.6366 11.8435 15.6893 11.8291 15.7394L10.0962 21.4817L10.68 25.0084C10.6936 25.0901 10.6383 25.1674 10.5565 25.1809L10.5587 25.1806ZM8.76624 25.1731L10.3616 24.909L9.79684 21.4972C9.79318 21.4751 9.79394 21.4523 9.80133 21.4283L11.4762 15.8841L9.83434 16.1559L9.08848 18.7131C8.99754 19.0414 8.96113 19.3426 8.9392 19.5255C8.89796 19.8661 8.88571 19.9567 8.75754 19.9779L8.73324 19.9819C8.60507 20.0031 8.56062 19.9129 8.4155 19.6122C8.3119 19.3978 8.19138 19.1635 8.00167 18.8952L6.4822 16.7108L4.82713 16.9848L8.1772 21.6972C8.18933 21.7156 8.19962 21.7366 8.20327 21.7587L8.76808 25.1705L8.76624 25.1731Z" fill="#411844"/>
<path d="M18.1902 24.6527L18.5121 26.5973L13.4939 27.428L12.0204 18.5273L16.968 17.7083L17.2899 19.6528L14.2338 20.1587L14.4844 21.6724L16.767 21.2945L17.0721 23.1374L14.7895 23.5153L15.0631 25.1681L18.1899 24.6505L18.1902 24.6527Z" fill="#7C4EC4"/>
<path d="M18.5367 26.7454L13.5184 27.5761C13.4367 27.5897 13.3594 27.5344 13.3459 27.4526L11.8724 18.5519C11.8588 18.4701 11.9142 18.3929 11.9959 18.3793L16.9435 17.5603C17.0252 17.5468 17.1025 17.6021 17.116 17.6838L17.4379 19.6284C17.4515 19.7101 17.3962 19.7874 17.3144 19.8009L14.4064 20.2823L14.608 21.4999L16.7426 21.1465C16.8243 21.133 16.9016 21.1883 16.9151 21.2701L17.2202 23.113C17.2337 23.1947 17.1784 23.272 17.0967 23.2855L14.9621 23.6389L15.1867 24.9957L18.1654 24.5025C18.2471 24.489 18.3244 24.5443 18.3379 24.6261L18.6598 26.5706C18.6734 26.6524 18.6181 26.7297 18.5363 26.7432L18.5367 26.7454ZM13.6174 27.2555L18.3396 26.4738L18.0667 24.8254L15.088 25.3185C15.0063 25.332 14.929 25.2767 14.9155 25.1949L14.6418 23.5421C14.6283 23.4603 14.6836 23.383 14.7654 23.3695L16.9 23.0161L16.6439 21.4693L14.5093 21.8227C14.4275 21.8362 14.3503 21.7809 14.3367 21.6992L14.0862 20.1855C14.0726 20.1038 14.128 20.0265 14.2097 20.013L17.1177 19.5316L16.8448 17.8831L12.1934 18.6531L13.6178 27.2577L13.6174 27.2555Z" fill="#411844"/>
<path d="M23.1318 21.5076L20.5752 21.9308L20.4731 23.3848L18.4998 23.7115L19.499 14.4014L21.7109 14.0353L25.657 22.5266L23.6948 22.8515L23.1296 21.508L23.1318 21.5076ZM22.345 19.7036L21.464 17.5496C21.2973 17.1323 21.1721 16.8147 21.0832 16.5797C20.997 16.3465 20.9536 16.2356 20.9404 16.2378L20.9293 16.2397C20.9183 16.2415 20.913 16.3604 20.9043 16.6093C20.8955 16.8582 20.8929 17.1992 20.8564 17.6502L20.6922 19.9772L22.345 19.7036Z" fill="#7C4EC4"/>
<path d="M25.6819 22.6769L23.7197 23.0017C23.6512 23.0131 23.5839 22.9766 23.5571 22.9106L23.0396 21.6772L20.7172 22.0617L20.6248 23.396C20.6203 23.4649 20.5687 23.5234 20.5002 23.5347L18.5269 23.8614C18.4805 23.8691 18.4326 23.8543 18.3999 23.8211C18.3672 23.7879 18.3484 23.7434 18.354 23.6948L19.3532 14.3847C19.3603 14.3177 19.4126 14.2636 19.4789 14.2527L21.6908 13.8865C21.7571 13.8755 21.8241 13.9098 21.8524 13.971L25.7985 22.4624C25.8191 22.5044 25.8161 22.5548 25.7958 22.5968C25.7755 22.6387 25.735 22.6681 25.6886 22.6758L25.6819 22.6769ZM23.7878 22.6862L25.4385 22.413L21.6231 14.2042L19.6366 14.533L18.6701 23.5335L20.3318 23.2584L20.4242 21.924C20.4287 21.8552 20.4803 21.7967 20.5488 21.7854L23.1055 21.3621C23.174 21.3508 23.2413 21.3873 23.2681 21.4533L23.7856 22.6866L23.7878 22.6862ZM22.3681 19.8564L20.7152 20.13C20.6688 20.1377 20.6236 20.1248 20.5886 20.092C20.554 20.0614 20.5375 20.0164 20.539 19.9708L20.7032 17.6438C20.732 17.269 20.74 16.9748 20.7466 16.7399L20.75 16.6099C20.7641 16.1739 20.7642 16.1195 20.9012 16.0968C21.0492 16.0723 21.0672 16.126 21.2207 16.532C21.307 16.7652 21.4344 17.0823 21.6007 17.4975L22.4814 19.6492C22.4997 19.6916 22.4964 19.7398 22.4735 19.7799C22.4506 19.82 22.4119 19.8469 22.3677 19.8542L22.3681 19.8564ZM20.854 19.8028L22.1335 19.591L21.3222 17.6117C21.2132 17.3369 21.1203 17.1048 21.045 16.9107C21.0389 17.1206 21.0276 17.3676 21.0044 17.6666L20.8537 19.8006L20.854 19.8028Z" fill="#411844"/>
<path d="M31.3796 15.3226L32.8531 24.2234L30.9616 24.5365L30.3913 21.0916L28.2258 21.45L28.796 24.895L26.9045 25.2081L25.4311 16.3074L27.3226 15.9943L27.8866 19.4016L30.0522 19.0432L29.4881 15.6358L31.3796 15.3226Z" fill="#7C4EC4"/>
<path d="M32.8776 24.3712L30.9861 24.6843C30.9043 24.6979 30.8271 24.6425 30.8135 24.5608L30.2677 21.2639L28.4005 21.573L28.9463 24.8699C28.9598 24.9517 28.9045 25.0289 28.8228 25.0425L26.9313 25.3556C26.8495 25.3691 26.7722 25.3138 26.7587 25.232L25.2852 16.3313C25.2717 16.2496 25.327 16.1723 25.4088 16.1588L27.3003 15.8456C27.382 15.8321 27.4593 15.8874 27.4728 15.9692L28.0124 19.2285L29.8796 18.9194L29.34 15.6601C29.3265 15.5783 29.3818 15.501 29.4636 15.4875L31.3551 15.1744C31.4369 15.1608 31.5141 15.2162 31.5277 15.2979L33.0011 24.1986C33.0147 24.2804 32.9593 24.3577 32.8776 24.3712ZM31.0851 24.3637L32.6805 24.0996L31.2561 15.495L29.6607 15.7591L30.2002 19.0184C30.2138 19.1002 30.1584 19.1775 30.0767 19.191L27.9134 19.5491C27.8316 19.5626 27.7543 19.5073 27.7408 19.4256L27.2012 16.1662L25.608 16.43L27.0325 25.0346L28.6257 24.7709L28.0799 21.474C28.0664 21.3922 28.1217 21.3149 28.2035 21.3014L30.3668 20.9433C30.4485 20.9298 30.5258 20.9851 30.5393 21.0668L31.0851 24.3637Z" fill="#411844"/>
<path d="M32.223 12.1885L34.2692 11.8497L35.3 18.0767L33.2538 18.4154L32.223 12.1885ZM33.3793 19.1733L35.4255 18.8346L35.7598 20.8543L33.7137 21.193L33.3793 19.1733Z" fill="#7C4EC4"/>
<path d="M35.7847 21.0046L33.7385 21.3434C33.6568 21.3569 33.5795 21.3016 33.566 21.2198L33.2316 19.2001C33.2181 19.1184 33.2734 19.0411 33.3552 19.0276L35.4013 18.6888C35.4831 18.6753 35.5604 18.7306 35.5739 18.8124L35.9082 20.8321C35.9218 20.9138 35.8665 20.9911 35.7847 21.0046ZM33.8375 21.0227L35.5854 20.7334L35.3001 19.0098L33.5522 19.2992L33.8375 21.0227ZM35.3249 18.227L33.2787 18.5657C33.1969 18.5793 33.1197 18.524 33.1061 18.4422L32.0753 12.2152C32.0618 12.1335 32.1171 12.0562 32.1988 12.0427L34.245 11.7039C34.3268 11.6904 34.404 11.7457 34.4176 11.8275L35.4484 18.0544C35.462 18.1362 35.4066 18.2135 35.3249 18.227ZM33.3777 18.2451L35.1256 17.9558L34.1438 12.0249L32.3959 12.3143L33.3777 18.2451Z" fill="#411844"/>
<path d="M10.9723 15.4867L9.22906 21.2625L9.81838 24.8223L7.92687 25.1355L7.33755 21.5756L3.84814 16.666L5.83467 16.3372L7.4056 18.5994C7.61296 18.892 7.74119 19.1454 7.83451 19.3389C7.92783 19.5323 7.98001 19.6281 7.99106 19.6262L8.01536 19.6222C8.02641 19.6204 8.04715 19.5125 8.07095 19.2997C8.09696 19.0865 8.13447 18.792 8.22541 18.4637L8.99677 15.8137L10.97 15.487L10.9723 15.4867Z" fill="#FF68E7"/>
<path d="M9.84061 24.9706L7.9491 25.2837C7.86734 25.2973 7.79007 25.242 7.77654 25.1602L7.19271 21.6335L3.72389 16.7523C3.69411 16.7096 3.68754 16.6562 3.70674 16.6076C3.72594 16.559 3.77017 16.5244 3.82099 16.516L5.80752 16.1871C5.86497 16.1776 5.92128 16.2024 5.95621 16.2488L7.52714 18.511C7.70803 18.7671 7.82893 18.99 7.93107 19.1956C7.95595 19.003 7.99602 18.724 8.07957 18.4196L8.85093 15.7696C8.86683 15.7147 8.91437 15.6728 8.96961 15.6637L10.9429 15.337C10.9937 15.3286 11.0467 15.3471 11.0805 15.3869C11.1144 15.4267 11.1254 15.4793 11.111 15.5294L9.3759 21.2721L9.95973 24.7988C9.97327 24.8805 9.91795 24.9578 9.83619 24.9713L9.84061 24.9706ZM8.04813 24.9631L9.64133 24.6994L9.07652 21.2876C9.07286 21.2655 9.07363 21.2427 9.08102 21.2187L10.7558 15.6745L9.11402 15.9463L8.36853 18.5057C8.27759 18.834 8.24117 19.1352 8.21925 19.3182C8.178 19.6587 8.16797 19.7489 8.03759 19.7705L8.01329 19.7745C7.88512 19.7957 7.84067 19.7055 7.69555 19.4049C7.59231 19.1927 7.47179 18.9583 7.28172 18.6879L5.76446 16.503L4.10939 16.777L7.45945 21.4895C7.47159 21.5079 7.48187 21.5289 7.48553 21.551L8.05034 24.9628L8.04813 24.9631Z" fill="#411844"/>
<path d="M17.4747 24.4447L17.7967 26.3892L12.7784 27.22L11.3049 18.3193L16.2525 17.5002L16.5744 19.4448L13.5184 19.9507L13.7689 21.4643L16.0516 21.0865L16.3566 22.9294L14.074 23.3072L14.3476 24.9601L17.4744 24.4425L17.4747 24.4447Z" fill="#FF68E7"/>
<path d="M17.8212 26.5371L12.8029 27.3679C12.7212 27.3814 12.6439 27.3261 12.6304 27.2443L11.1569 18.3436C11.1434 18.2619 11.1987 18.1846 11.2804 18.1711L16.228 17.352C16.3097 17.3385 16.387 17.3938 16.4005 17.4756L16.7224 19.4201C16.736 19.5019 16.6807 19.5791 16.5989 19.5927L13.6909 20.0741L13.8925 21.2916L16.0271 20.9382C16.1088 20.9247 16.1861 20.98 16.1996 21.0618L16.5047 22.9047C16.5182 22.9864 16.4629 23.0637 16.3812 23.0772L14.2466 23.4306L14.4712 24.7874L17.4499 24.2943C17.5316 24.2807 17.6089 24.3361 17.6224 24.4178L17.9444 26.3624C17.9579 26.4441 17.9026 26.5214 17.8208 26.5349L17.8212 26.5371ZM12.902 27.0473L17.6241 26.2655L17.3512 24.6171L14.3725 25.1102C14.2908 25.1237 14.2135 25.0684 14.2 24.9867L13.9263 23.3338C13.9128 23.252 13.9681 23.1748 14.0499 23.1612L16.1845 22.8079L15.9284 21.2611L13.7938 21.6144C13.7121 21.628 13.6348 21.5727 13.6213 21.4909L13.3707 19.9772C13.3571 19.8955 13.4125 19.8182 13.4942 19.8047L16.4022 19.3233L16.1293 17.6748L11.4779 18.4449L12.9023 27.0495L12.902 27.0473Z" fill="#411844"/>
<path d="M22.4144 21.3003L19.8577 21.7235L19.7556 23.1775L17.7823 23.5041L18.7815 14.1941L20.9935 13.8279L24.9396 22.3193L22.9774 22.6441L22.4122 21.3006L22.4144 21.3003ZM21.6276 19.4962L20.7466 17.3423C20.5799 16.9249 20.4547 16.6074 20.3658 16.3724C20.2795 16.1392 20.2362 16.0283 20.2229 16.0305L20.2119 16.0323C20.2009 16.0341 20.1956 16.1531 20.1868 16.402C20.1781 16.6509 20.1755 16.9919 20.1389 17.4429L19.9747 19.7698L21.6276 19.4962Z" fill="#FF68E7"/>
<path d="M24.9661 22.467L23.0039 22.7919C22.9354 22.8032 22.868 22.7667 22.8412 22.7007L22.3238 21.4674L20.0014 21.8518L19.909 23.1862C19.9045 23.255 19.8528 23.3135 19.7843 23.3248L17.8111 23.6515C17.7647 23.6592 17.7168 23.6444 17.6841 23.6112C17.6513 23.5781 17.6326 23.5335 17.6382 23.4849L18.6374 14.1748C18.6445 14.1078 18.6968 14.0537 18.7631 14.0428L20.975 13.6766C21.0413 13.6656 21.1083 13.6999 21.1366 13.7611L25.0827 22.2525C25.1033 22.2945 25.1003 22.3449 25.08 22.3869C25.0597 22.4288 25.0192 22.4582 24.9727 22.4659L24.9661 22.467ZM23.072 22.4764L24.7226 22.2031L20.9073 13.9943L18.9208 14.3232L17.9543 23.3236L19.616 23.0485L19.7084 21.7142C19.7129 21.6453 19.7645 21.5868 19.833 21.5755L22.3897 21.1522C22.4582 21.1409 22.5255 21.1774 22.5523 21.2434L23.0698 22.4767L23.072 22.4764ZM21.6523 19.6465L19.9994 19.9202C19.953 19.9278 19.9077 19.9149 19.8728 19.8821C19.8382 19.8515 19.8217 19.8065 19.8232 19.7609L19.9874 17.4339C20.0162 17.0591 20.0242 16.7649 20.0307 16.53L20.0342 16.4C20.0483 15.9641 20.0483 15.9096 20.1831 15.8873C20.3312 15.8627 20.3492 15.9165 20.5026 16.3225C20.5889 16.5556 20.7163 16.8728 20.8827 17.288L21.7633 19.4397C21.7817 19.4821 21.7783 19.5303 21.7555 19.5704C21.7326 19.6105 21.6939 19.6374 21.6497 19.6447L21.6523 19.6465ZM20.1382 19.593L21.4176 19.3812L20.6064 17.4018C20.4973 17.127 20.4044 16.8949 20.3292 16.7008C20.323 16.9107 20.3117 17.1578 20.2886 17.4567L20.1382 19.593Z" fill="#411844"/>
<path d="M30.662 15.1148L32.1355 24.0155L30.244 24.3286L29.6737 20.8837L27.5082 21.2422L28.0785 24.6871L26.187 25.0003L24.7135 16.0995L26.605 15.7864L27.1691 19.1938L29.3346 18.8353L28.7705 15.4279L30.662 15.1148Z" fill="#FF68E7"/>
<path d="M32.1599 24.1636L30.2684 24.4768C30.1866 24.4903 30.1094 24.435 30.0958 24.3532L29.55 21.0563L27.6828 21.3654L28.2286 24.6623C28.2422 24.7441 28.1868 24.8213 28.1051 24.8349L26.2136 25.148C26.1318 25.1615 26.0545 25.1062 26.041 25.0245L24.5675 16.1238C24.554 16.042 24.6093 15.9647 24.6911 15.9512L26.5826 15.6381C26.6644 15.6245 26.7416 15.6798 26.7552 15.7616L27.2947 19.0209L29.1619 18.7118L28.6224 15.4525C28.6088 15.3707 28.6641 15.2935 28.7459 15.2799L30.6374 14.9668C30.7192 14.9533 30.7964 15.0086 30.81 15.0904L32.2834 23.9911C32.297 24.0728 32.2417 24.1501 32.1599 24.1636ZM30.3674 24.1561L31.9628 23.892L30.5384 15.2874L28.943 15.5515L29.4825 18.8109C29.4961 18.8926 29.4408 18.9699 29.359 18.9834L27.1957 19.3415C27.1139 19.3551 27.0367 19.2998 27.0231 19.218L26.4836 15.9587L24.8882 16.2228L26.3126 24.8274L27.908 24.5633L27.3622 21.2664C27.3487 21.1846 27.404 21.1074 27.4858 21.0938L29.6491 20.7357C29.7308 20.7222 29.8081 20.7775 29.8216 20.8593L30.3674 24.1561Z" fill="#411844"/>
<path d="M31.5074 11.9803L33.5536 11.6415L34.5844 17.8685L32.5382 18.2072L31.5074 11.9803ZM32.6637 18.9652L34.7099 18.6264L35.0442 20.6461L32.9981 20.9848L32.6637 18.9652Z" fill="#FF68E7"/>
<path d="M35.0666 20.7947L33.0204 21.1334C32.9386 21.1469 32.8614 21.0916 32.8478 21.0099L32.5135 18.9902C32.5 18.9084 32.5553 18.8312 32.637 18.8176L34.6832 18.4789C34.765 18.4653 34.8423 18.5207 34.8558 18.6024L35.1901 20.6221C35.2037 20.7039 35.1484 20.7811 35.0666 20.7947ZM33.1194 20.8128L34.8695 20.5231L34.5842 18.7995L32.8341 19.0892L33.1194 20.8128ZM34.6068 18.017L32.5606 18.3558C32.4788 18.3693 32.4016 18.314 32.388 18.2322L31.3572 12.0053C31.3436 11.9235 31.399 11.8463 31.4807 11.8327L33.5269 11.494C33.6087 11.4804 33.6859 11.5358 33.6995 11.6175L34.7303 17.8445C34.7439 17.9262 34.6885 18.0035 34.6068 18.017ZM32.6596 18.0352L34.4097 17.7455L33.4279 11.8146L31.6778 12.1043L32.6596 18.0352Z" fill="#411844"/>
<defs>
<filter id="filter0_d_1_1032" x="1.45599" y="9.25125" width="38.7" height="22.5622" filterUnits="userSpaceOnUse" color-interpolation-filters="sRGB">
<feFlood flood-opacity="0" result="BackgroundImageFix"/>
<feColorMatrix in="SourceAlpha" type="matrix" values="0 0 0 0 0 0 0 0 0 0 0 0 0 0 0 0 0 0 127 0" result="hardAlpha"/>
<feOffset dx="2" dy="2"/>
<feComposite in2="hardAlpha" operator="out"/>
<feColorMatrix type="matrix" values="0 0 0 0 0.0862745 0 0 0 0 0.0901961 0 0 0 0 0.0862745 0 0 0 1 0"/>
<feBlend mode="normal" in2="BackgroundImageFix" result="effect1_dropShadow_1_1032"/>
<feBlend mode="normal" in="SourceGraphic" in2="effect1_dropShadow_1_1032" result="shape"/>
</filter>
</defs>
</svg>
