<svg width="12" height="12" viewBox="0 0 12 12" fill="none" xmlns="http://www.w3.org/2000/svg">
<path d="M11.2808 3.81176C11.4615 3.76615 11.5574 4.01686 11.3925 4.10351L10.0088 4.8302C8.22221 5.76856 7.31131 7.80893 7.80551 9.76553L8.18824 11.2808C8.23385 11.4614 7.98314 11.5574 7.89649 11.3925L7.16979 10.0088C6.23144 8.2222 4.19107 7.3113 2.23447 7.8055L0.719204 8.18823C0.538553 8.23384 0.442604 7.98313 0.60755 7.89648L1.99118 7.16979C3.7778 6.23143 4.6887 4.19106 4.19449 2.23445L3.81176 0.719179C3.76616 0.538549 4.01687 0.4426 4.10351 0.607525L4.83021 1.99115C5.76857 3.77779 7.80894 4.68869 9.76556 4.19449L11.2808 3.81176Z" fill="#FFDF0D" stroke="#161716"/>
</svg>
