<svg width="40" height="40" viewBox="0 0 40 40" fill="none" xmlns="http://www.w3.org/2000/svg">
<path d="M38.0123 22.1323C37.9994 20.8017 37.9882 19.4262 37.775 18.0299C37.7381 17.783 37.7029 17.5345 37.6692 17.2876C37.5393 16.353 37.4047 15.3847 37.1049 14.4084C37.0696 14.2913 37.0359 14.1486 37.0039 14.0092C36.9702 13.8681 36.9382 13.727 36.8981 13.5859C36.4508 11.9635 35.7406 10.8702 33.586 10.4357C33.586 10.4357 32.9816 10.3155 32.8645 10.2915C32.9255 10.0718 32.98 9.84097 33.0217 9.59408C33.089 9.18848 32.9736 8.78128 32.7026 8.47348C32.4349 8.17048 32.0533 8.00375 31.6494 8.01498H31.6253C31.55 8.01017 31.4217 8.00215 31.2678 8.01979C31.069 8.04223 30.8798 8.09994 30.7067 8.18972C30.4694 8.31477 30.1793 8.37729 29.8121 8.45745C29.5252 8.51997 29.1997 8.59051 28.8615 8.70754C28.2106 8.93038 27.5373 9.13879 26.8864 9.34078L26.8351 9.35682C26.6138 8.50875 26.3926 7.66228 26.1762 6.81261C25.9245 5.82026 25.2271 5.5862 24.9386 5.53169C24.7943 5.50444 24.6484 5.49963 24.5041 5.51566C24.1915 5.55093 23.7378 5.70483 23.3546 6.23708C23.0116 6.71322 22.6669 7.2118 22.303 7.75366C22.1266 7.5677 21.9519 7.38013 21.7755 7.19416C21.4309 6.82864 21.0846 6.46312 20.7415 6.0928C20.4577 5.78659 20.1804 5.45314 19.9447 5.16297L19.9383 5.15335C19.4333 4.43353 18.7921 4.38864 18.4538 4.42712C18.356 4.43834 18.2582 4.45918 18.1588 4.48964C17.4534 4.70767 16.9885 5.32328 16.942 6.096C16.934 6.23548 16.9244 6.37495 16.9148 6.52084C16.9052 6.67153 16.8955 6.82544 16.8859 6.97934C16.7112 6.89117 16.5268 6.79979 16.3344 6.7068C16.0122 6.54969 15.6868 6.4006 15.3565 6.2483L15.3293 6.23548C15.1786 6.16494 15.0263 6.096 14.874 6.02386L14.4764 5.8395C14.1429 5.68559 13.7982 5.52528 13.4648 5.36015C12.987 5.12289 12.6039 4.92089 12.2624 4.7221C12.1117 4.63393 11.7109 4.39987 11.1819 4.46079C10.8981 4.49285 10.6224 4.60667 10.3867 4.78783C9.92022 5.14694 9.7086 5.66155 9.75669 6.32205V6.35251C9.8096 7.70877 10.0821 8.97046 10.3467 10.1905C9.89617 10.152 9.44728 10.1183 9.00962 10.0863L8.40524 10.0414C8.34271 10.0366 8.19843 10.0253 8.02208 10.0446C7.43853 10.1103 6.96079 10.4566 6.71231 10.9968C6.48305 11.4938 6.5071 12.0148 6.78124 12.5407L6.80048 12.5792C6.83735 12.6529 6.87422 12.7282 6.9111 12.8036C6.62413 12.9094 6.32434 13.0441 6.02455 13.2332C4.95525 13.9066 4.31399 14.7546 4.0639 15.8239C3.71762 17.3004 3.61982 18.9116 3.7625 20.7472C3.78174 21.0005 3.80258 21.2522 3.82503 21.5055C3.89717 22.3792 3.97252 23.2834 3.98695 24.1507C4.00298 25.1447 4.19215 26.0553 4.37331 26.9354C4.40377 27.0829 4.43423 27.2304 4.46308 27.3779C4.54324 27.7738 4.65065 28.1169 4.79333 28.4247C4.95204 28.7662 5.24702 29.2279 5.76003 29.4908C6.24579 29.7409 6.82613 30.0375 7.51869 30.177C7.48823 30.714 7.68221 31.0844 7.87299 31.3136C8.06056 31.5396 8.4902 31.9148 9.25491 31.8795C9.49217 31.8683 9.67333 31.8651 9.84006 31.8683C10.0068 31.8715 10.1751 31.8779 10.3418 31.8843C10.5631 31.8923 10.7843 31.9004 11.0072 31.902C11.0889 31.902 11.1707 31.902 11.254 31.902C11.2268 32.0895 11.2011 32.2915 11.1867 32.4999C11.1739 32.6699 11.1578 32.8382 11.1386 33.0129C11.0873 33.5195 11.028 34.0951 11.0761 34.7443C11.1065 35.1532 11.3182 35.5235 11.6548 35.7575C11.9242 35.9435 12.2512 36.0269 12.5766 35.99C12.6472 35.982 12.7177 35.9676 12.7867 35.9499L12.8107 35.9451C12.9662 35.9163 13.3285 35.8473 13.6572 35.5539C13.8576 35.376 14.1237 35.2461 14.4619 35.0794C14.7265 34.9496 15.0263 34.8021 15.326 34.6097C15.9016 34.241 16.5028 33.877 17.0879 33.5243L17.1376 33.4939C17.556 34.2634 17.9729 35.0329 18.3865 35.8072C18.869 36.7098 19.6017 36.7707 19.8886 36.7547C19.9191 36.7547 19.9495 36.7515 19.98 36.7467C20.2509 36.7162 20.9178 36.5527 21.2641 35.6902C21.4838 35.1419 21.7002 34.576 21.9214 33.9668C22.1362 34.1063 22.5867 34.3965 22.5867 34.3965C23.0035 34.6642 23.4204 34.9335 23.834 35.2061C24.1819 35.4337 24.5314 35.6934 24.8295 35.9179L24.8392 35.9259C25.2271 36.2641 25.6504 36.4116 26.0976 36.3603C26.3189 36.3363 26.5305 36.2625 26.7261 36.1439C27.3577 35.764 27.6639 35.0538 27.5228 34.2923C27.4972 34.156 27.4731 34.0181 27.4475 33.877C27.4202 33.7263 27.393 33.574 27.3657 33.4217C27.5581 33.465 27.7569 33.5099 27.9669 33.5548C28.3196 33.6302 28.6739 33.6991 29.0394 33.7696C29.2078 33.8017 29.3761 33.8354 29.5476 33.869L29.9837 33.954C30.3444 34.0245 30.7179 34.0967 31.0754 34.1752C31.5965 34.2907 32.0165 34.3965 32.3964 34.5087C32.5279 34.5472 32.8036 34.6273 33.1435 34.5904C33.5587 34.544 33.9338 34.3323 34.2016 33.9973C34.5671 33.5372 34.6505 32.9873 34.4436 32.3524L34.4356 32.3284C34.0605 31.0234 33.4962 29.8644 32.9463 28.7421C33.3952 28.6716 33.8393 28.5963 34.2737 28.5225L34.8669 28.4231C35.9763 28.2388 36.2296 27.3554 36.2825 27.0893C36.2953 27.0204 36.3049 26.9514 36.3097 26.8841C37.084 26.5442 37.6291 25.911 37.8536 25.0805C37.9481 24.7278 38.0556 24.2597 38.0379 23.7547C38.0203 23.2193 38.0139 22.6694 38.0091 22.1372L38.0123 22.1323Z" fill="#FFE814"/>
<path d="M36.4523 16.0659C36.3224 15.1313 36.1878 14.163 35.888 13.1867C35.8527 13.0696 35.819 12.927 35.787 12.7875C35.7533 12.6464 35.7212 12.5053 35.6812 12.3643C35.2339 10.7419 34.5237 9.64852 32.369 9.21406C32.369 9.21406 31.7647 9.09382 31.6476 9.06978C31.7085 8.85014 31.7631 8.61929 31.8047 8.37241C31.8721 7.96681 31.7566 7.55961 31.4857 7.2518C31.218 6.94881 30.8364 6.78208 30.4324 6.7933H30.4084C30.333 6.78849 30.2048 6.78047 30.0509 6.79811C29.8521 6.82055 29.6629 6.87827 29.4898 6.96804C29.2525 7.09309 28.9623 7.15561 28.5952 7.23577C28.3083 7.29829 27.9828 7.36883 27.6446 7.48586C26.9937 7.7087 26.3203 7.91711 25.6695 8.11911L25.6182 8.13514C25.3969 7.28707 25.1757 6.44061 24.9593 5.59093C24.7076 4.59858 24.0102 4.36452 23.7216 4.31002C23.5774 4.28276 23.4315 4.27795 23.2872 4.29398C22.9746 4.32925 22.5209 4.48316 22.1377 5.0154C21.7946 5.49154 21.45 5.99012 21.0861 6.53199C20.9097 6.34602 20.735 6.15845 20.5586 5.97249C20.2139 5.60697 19.8677 5.24145 19.5246 4.87112C19.2408 4.56492 18.9635 4.23146 18.7278 3.94129L18.7214 3.93167C18.2164 3.21186 17.5751 3.16697 17.2369 3.20544C17.1391 3.21666 17.0413 3.23751 16.9419 3.26797C16.2365 3.48599 15.7716 4.10161 15.7251 4.87433C15.7171 5.0138 15.7075 5.15327 15.6979 5.29916C15.6882 5.44986 15.6786 5.60376 15.669 5.75766C15.4943 5.66949 15.3099 5.57811 15.1175 5.48513C14.7953 5.32802 14.4698 5.17892 14.1396 5.02662L14.1123 5.0138C13.9616 4.94486 13.8093 4.87433 13.657 4.80218L13.2595 4.61782C12.926 4.46392 12.5813 4.3036 12.2479 4.13848C11.7701 3.90121 11.387 3.69921 11.0455 3.50042C10.8948 3.41225 10.494 3.17819 9.96498 3.23911C9.68122 3.27117 9.40548 3.385 9.16981 3.56615C8.7033 3.92526 8.49168 4.43987 8.53977 5.10037V5.13083C8.59268 6.4871 8.86521 7.74878 9.12973 8.96878C8.67925 8.9303 8.23037 8.89664 7.7927 8.86457L7.18832 8.81969C7.12579 8.81488 6.98151 8.80365 6.80516 8.82289C6.22161 8.88862 5.74388 9.2349 5.49539 9.77516C5.26614 10.2721 5.29018 10.7932 5.56432 11.319L5.58356 11.3575C5.62043 11.4312 5.65731 11.5066 5.69418 11.5819C5.40721 11.6877 5.10742 11.8224 4.80763 12.0116C3.73833 12.6849 3.09707 13.533 2.84698 14.6023C2.5007 16.0788 2.4029 17.6899 2.54558 19.5255C2.56482 19.7788 2.58566 20.0305 2.60811 20.2838C2.68025 21.1576 2.7556 22.0617 2.77003 22.929C2.78606 23.923 2.97523 24.8336 3.15639 25.7137C3.18685 25.8612 3.21731 26.0087 3.24616 26.1562C3.32632 26.5522 3.43373 26.8952 3.57641 27.203C3.73512 27.5445 4.0301 28.0062 4.54311 28.2691C5.02887 28.5192 5.60921 28.8158 6.30177 28.9553C6.27131 29.4923 6.46529 29.8627 6.65607 30.0919C6.84364 30.318 7.27328 30.6931 8.03799 30.6578C8.27525 30.6466 8.45641 30.6434 8.62314 30.6466C8.78987 30.6498 8.9582 30.6562 9.12493 30.6626C9.34616 30.6707 9.5674 30.6787 9.79023 30.6803C9.87199 30.6803 9.95375 30.6803 10.0371 30.6803C10.0099 30.8679 9.98422 31.0698 9.96979 31.2783C9.95696 31.4482 9.94093 31.6165 9.92169 31.7913C9.87039 32.2979 9.81107 32.8734 9.85917 33.5227C9.88963 33.9315 10.1012 34.3018 10.4379 34.5359C10.7072 34.7218 11.0343 34.8052 11.3597 34.7683C11.4303 34.7603 11.5008 34.7459 11.5697 34.7282L11.5938 34.7234C11.7493 34.6946 12.1116 34.6256 12.4402 34.3323C12.6406 34.1543 12.9068 34.0245 13.245 33.8577C13.5095 33.7279 13.8093 33.5804 14.1091 33.388C14.6847 33.0193 15.2858 32.6554 15.871 32.3027L15.9207 32.2722C16.3391 33.0417 16.7559 33.8112 17.1695 34.5856C17.6521 35.4881 18.3847 35.5491 18.6717 35.533C18.7022 35.533 18.7326 35.5298 18.7631 35.525C19.034 35.4945 19.7009 35.331 20.0472 34.4685C20.2668 33.9203 20.4833 33.3543 20.7045 32.7451C20.9193 32.8846 21.3698 33.1748 21.3698 33.1748C21.7866 33.4425 22.2034 33.7118 22.6171 33.9844C22.9649 34.212 23.3144 34.4717 23.6126 34.6962L23.6222 34.7042C24.0102 35.0425 24.4334 35.19 24.8807 35.1386C25.1019 35.1146 25.3136 35.0409 25.5092 34.9222C26.1408 34.5423 26.447 33.8321 26.3059 33.0706C26.2803 32.9343 26.2562 32.7964 26.2306 32.6554C26.2033 32.5047 26.1761 32.3524 26.1488 32.2001C26.3412 32.2434 26.54 32.2882 26.75 32.3331C27.1027 32.4085 27.457 32.4774 27.8225 32.548C27.9908 32.58 28.1592 32.6137 28.3307 32.6474L28.7668 32.7323C29.1275 32.8029 29.501 32.875 29.8585 32.9536C30.3795 33.069 30.7996 33.1748 31.1795 33.287C31.311 33.3255 31.5867 33.4056 31.9266 33.3688C32.3418 33.3223 32.7169 33.1107 32.9847 32.7756C33.3502 32.3155 33.4335 31.7656 33.2267 31.1308L33.2187 31.1067C32.8436 29.8018 32.2793 28.6427 31.7294 27.5205C32.1783 27.4499 32.6223 27.3746 33.0568 27.3008L33.65 27.2014C34.7593 27.0171 35.0126 26.1337 35.0655 25.8676C35.0784 25.7987 35.088 25.7297 35.0928 25.6624C35.8671 25.3225 36.4122 24.6893 36.6366 23.8589C36.7312 23.5062 36.8386 23.0381 36.821 22.5331C36.8034 21.9976 36.797 21.4477 36.7921 20.9155C36.7793 19.5849 36.7681 18.2094 36.5549 16.813C36.518 16.5661 36.4827 16.3176 36.4491 16.0707L36.4523 16.0659Z" fill="white"/>
<path d="M18.6012 35.6934C18.4505 35.6934 18.2148 35.6709 17.9599 35.5619C17.8781 35.5266 17.8413 35.4336 17.8749 35.3519C17.9102 35.2701 18.0032 35.2332 18.085 35.2669C18.2902 35.3551 18.4793 35.3727 18.5996 35.3727H18.6413C18.7294 35.3663 18.8048 35.4385 18.808 35.5266C18.8112 35.6148 18.7422 35.6901 18.6541 35.6934C18.638 35.6934 18.6204 35.6934 18.6012 35.6934ZM19.2649 35.5314C19.2072 35.5314 19.1495 35.4994 19.1222 35.4433C19.0821 35.3647 19.1126 35.2685 19.1927 35.2268C19.3611 35.1403 19.5102 35.02 19.6352 34.8661C19.6913 34.7972 19.7923 34.7876 19.8612 34.8421C19.9302 34.8966 19.9398 34.9992 19.8853 35.0681C19.733 35.2557 19.5486 35.4048 19.3402 35.5122C19.3162 35.5234 19.2921 35.5298 19.2681 35.5298L19.2649 35.5314ZM24.7108 35.3054C24.6771 35.3054 24.6451 35.3054 24.6114 35.3022C24.5232 35.2974 24.4559 35.2204 24.4607 35.1323C24.4655 35.0441 24.5441 34.9767 24.6306 34.9816C24.7076 34.9864 24.7845 34.9832 24.8631 34.9751C24.9753 34.9623 25.0875 34.9351 25.1933 34.895C25.2751 34.8629 25.3681 34.9046 25.4001 34.988C25.4322 35.0713 25.3905 35.1627 25.3072 35.1948C25.1757 35.2445 25.0378 35.2781 24.8984 35.2942C24.8358 35.3006 24.7717 35.3054 24.7108 35.3054ZM17.503 35.2076C17.4613 35.2076 17.418 35.1916 17.3876 35.1579C17.2529 35.0168 17.1327 34.8485 17.0317 34.6577L16.9996 34.5968C16.9579 34.5182 16.9868 34.4221 17.0654 34.3804C17.1439 34.3387 17.2401 34.3675 17.2818 34.4461L17.3138 34.5054C17.402 34.6721 17.5046 34.8164 17.62 34.9351C17.681 34.9992 17.6794 35.1002 17.6152 35.1611C17.5848 35.1916 17.5447 35.206 17.5046 35.206L17.503 35.2076ZM24.0102 35.129C23.9846 35.129 23.9605 35.1226 23.9365 35.1114C23.7938 35.0361 23.6527 34.9399 23.518 34.8212L23.393 34.7267C23.3225 34.6737 23.308 34.5728 23.3609 34.5022C23.4138 34.4317 23.5148 34.4172 23.5854 34.4701L23.712 34.5647C23.712 34.5647 23.7265 34.5776 23.7297 34.5808C23.8451 34.6818 23.9637 34.7635 24.084 34.8277C24.1625 34.8693 24.193 34.9655 24.1513 35.0441C24.1224 35.0986 24.0663 35.1306 24.0086 35.1306L24.0102 35.129ZM11.4591 34.911C11.3838 34.911 11.3164 34.8565 11.302 34.7796C11.286 34.693 11.3437 34.6096 11.4303 34.592C11.4639 34.5856 11.4976 34.5776 11.5297 34.5695L11.5665 34.5615C11.6563 34.5439 11.823 34.5134 12.0058 34.4269C12.086 34.3884 12.1805 34.4237 12.219 34.5038C12.2575 34.584 12.2222 34.6802 12.1421 34.717C11.9224 34.8212 11.7301 34.8565 11.6275 34.8773L11.6034 34.8822C11.5746 34.8902 11.5313 34.9014 11.488 34.9094C11.4784 34.911 11.4687 34.9126 11.4591 34.9126V34.911ZM10.8243 34.8773C10.8098 34.8773 10.7938 34.8757 10.7778 34.8709C10.6239 34.8244 10.4796 34.7555 10.3481 34.6641C10.2824 34.6192 10.2199 34.5679 10.1638 34.5134C10.0996 34.4525 10.098 34.3515 10.159 34.2874C10.2199 34.2233 10.3225 34.2217 10.385 34.2826C10.4299 34.3259 10.4796 34.3659 10.5309 34.4012C10.6351 34.4734 10.7489 34.5279 10.8692 34.5647C10.9541 34.5904 11.0022 34.6786 10.9766 34.7635C10.9557 34.8325 10.8916 34.8773 10.8227 34.8773H10.8243ZM25.7929 34.8693C25.7496 34.8693 25.7063 34.8517 25.6743 34.818C25.615 34.7523 25.6182 34.6513 25.6839 34.592C25.8282 34.4605 25.9436 34.305 26.027 34.1287C26.0655 34.0485 26.16 34.0149 26.2402 34.0533C26.3204 34.0918 26.354 34.1864 26.3155 34.2665C26.2145 34.4798 26.0735 34.6673 25.9003 34.8277C25.8699 34.8565 25.8314 34.8693 25.7913 34.8693H25.7929ZM20.0697 34.5728C20.0504 34.5728 20.0296 34.5695 20.0103 34.5615C19.9286 34.5279 19.8885 34.4349 19.9206 34.3531C19.9991 34.1575 20.0761 33.9603 20.1546 33.7583C20.1867 33.675 20.2797 33.6349 20.3614 33.667C20.4448 33.699 20.4849 33.792 20.4528 33.8738C20.3743 34.0774 20.2957 34.2762 20.2171 34.4718C20.1915 34.5343 20.1322 34.5728 20.0681 34.5728H20.0697ZM22.9698 34.3804C22.9377 34.3804 22.9056 34.3708 22.8768 34.3515C22.763 34.2714 22.6459 34.1912 22.5305 34.1142L22.3493 33.9956C22.2756 33.9475 22.2548 33.8481 22.3029 33.7744C22.3509 33.7006 22.4503 33.6798 22.5241 33.7279L22.7052 33.8465C22.8239 33.9251 22.9441 34.0068 23.0611 34.0886C23.1333 34.1399 23.1509 34.2393 23.0996 34.3114C23.0692 34.3563 23.0195 34.3788 22.9682 34.3788L22.9698 34.3804ZM12.599 34.3692C12.5477 34.3692 12.498 34.3451 12.4675 34.3002C12.4178 34.2281 12.4354 34.1271 12.5092 34.0774C12.6775 33.962 12.8715 33.8626 13.0895 33.7551C13.1697 33.7151 13.2643 33.7487 13.3044 33.8273C13.3428 33.9074 13.3108 34.002 13.2322 34.0421C13.0254 34.1447 12.8426 34.2377 12.6919 34.3403C12.6647 34.3595 12.6326 34.3692 12.6006 34.3692H12.599ZM16.8377 34.1175C16.78 34.1175 16.7255 34.087 16.6966 34.0325L16.392 33.4682C16.3503 33.3896 16.3792 33.2934 16.4562 33.2501C16.5347 33.2085 16.6309 33.2373 16.6742 33.3143L16.9788 33.8786C17.0205 33.9571 16.9916 34.0533 16.9131 34.095C16.889 34.1078 16.8634 34.1142 16.8377 34.1142V34.1175ZM9.93292 34.0245C9.86719 34.0245 9.80467 33.9828 9.78062 33.9171C9.73734 33.7936 9.71169 33.6654 9.70207 33.5339C9.69405 33.4329 9.68924 33.3351 9.68604 33.2373C9.68283 33.1492 9.75337 33.0754 9.84154 33.0722C9.93453 33.0706 10.0035 33.1395 10.0067 33.2277C10.0099 33.3207 10.0147 33.4137 10.0211 33.5099C10.0291 33.6141 10.05 33.7151 10.0836 33.8129C10.1125 33.8962 10.0676 33.9876 9.98422 34.0165C9.96659 34.0229 9.94895 34.0261 9.93132 34.0261L9.93292 34.0245ZM13.7324 33.7696C13.6763 33.7696 13.6202 33.7391 13.5913 33.6862C13.5496 33.6077 13.5785 33.5115 13.6554 33.4682C13.7917 33.3944 13.9136 33.3223 14.0258 33.2501L14.1941 33.1427C14.2695 33.0946 14.3672 33.1171 14.4153 33.1924C14.4634 33.2678 14.441 33.3656 14.3656 33.4137L14.1989 33.5211C14.0787 33.598 13.9504 33.6734 13.8077 33.7503C13.7837 33.7632 13.758 33.7696 13.7308 33.7696H13.7324ZM26.338 33.7423C26.338 33.7423 26.33 33.7423 26.3252 33.7423C26.237 33.7359 26.1713 33.6574 26.1777 33.5692C26.1809 33.5243 26.1825 33.4778 26.1825 33.4329C26.1825 33.3223 26.1713 33.2101 26.152 33.0995L26.1296 32.976C26.1135 32.8894 26.1713 32.8061 26.2578 32.79C26.346 32.774 26.4278 32.8317 26.4438 32.9183L26.4662 33.0417C26.4903 33.1732 26.5031 33.3047 26.5031 33.4345C26.5031 33.489 26.5015 33.5435 26.4967 33.598C26.4903 33.6814 26.4197 33.7455 26.3364 33.7455L26.338 33.7423ZM21.9021 33.6734C21.8716 33.6734 21.8427 33.6654 21.8155 33.6477L21.2865 33.3063L21.3634 33.1652L21.4596 33.0369L21.9902 33.3784C22.064 33.4265 22.0864 33.5259 22.0383 33.5996C22.0079 33.6477 21.9566 33.6734 21.9037 33.6734H21.9021ZM31.6797 33.5339C31.6797 33.5339 31.6749 33.5339 31.6733 33.5339C31.4312 33.5243 31.242 33.4682 31.1394 33.4377L31.0096 33.4008C30.9246 33.3768 30.8749 33.2886 30.899 33.2037C30.923 33.1187 31.0112 33.069 31.0961 33.093L31.2292 33.1315C31.3254 33.1588 31.4841 33.2069 31.6861 33.2149C31.7743 33.2181 31.8432 33.2934 31.84 33.3816C31.8368 33.4682 31.7647 33.5355 31.6797 33.5355V33.5339ZM32.3081 33.4345C32.244 33.4345 32.1831 33.3944 32.159 33.3319C32.127 33.2485 32.1687 33.1572 32.252 33.1251C32.4316 33.0562 32.5935 32.9536 32.7346 32.8173C32.7987 32.7564 32.8997 32.7564 32.9606 32.8205C33.0215 32.8846 33.0199 32.9856 32.9574 33.0465C32.7859 33.2133 32.5871 33.3399 32.3658 33.4249C32.3466 33.4313 32.3274 33.4361 32.3081 33.4361V33.4345ZM20.5346 33.3768C20.5153 33.3768 20.4977 33.3736 20.4785 33.3672C20.3951 33.3367 20.3534 33.2437 20.3839 33.1604C20.4416 33.0065 20.4993 32.8494 20.557 32.689C20.573 32.6426 20.6099 32.6073 20.6564 32.5913C20.7029 32.5752 20.7542 32.5816 20.7943 32.6089L20.9097 32.6826C20.9835 32.7307 21.0059 32.8301 20.9578 32.9039C20.9209 32.96 20.8552 32.9856 20.7943 32.9744C20.7574 33.0738 20.7205 33.1732 20.6837 33.271C20.6596 33.3351 20.5987 33.3752 20.533 33.3752L20.5346 33.3768ZM30.4324 33.2437C30.4196 33.2437 30.4068 33.2437 30.394 33.2389C30.2176 33.1956 30.0301 33.1524 29.8265 33.1075L29.7719 33.0962C29.6854 33.077 29.6309 32.992 29.6501 32.9055C29.6693 32.8189 29.7543 32.7644 29.8409 32.7836L29.897 32.7965C30.1022 32.8413 30.2914 32.8862 30.4693 32.9295C30.5559 32.9504 30.6088 33.0369 30.5863 33.1235C30.5687 33.1972 30.503 33.2453 30.4308 33.2453L30.4324 33.2437ZM14.8257 33.0979C14.7712 33.0979 14.7199 33.0706 14.6895 33.0209C14.643 32.9455 14.667 32.8462 14.7424 32.7997C14.9251 32.6874 15.1079 32.5752 15.2907 32.4646C15.366 32.4197 15.4654 32.4422 15.5103 32.5191C15.5568 32.5945 15.5327 32.6939 15.4558 32.7387C15.273 32.8494 15.0919 32.96 14.9091 33.0722C14.8835 33.0882 14.8546 33.0962 14.8257 33.0962V33.0979ZM16.2301 32.9888C16.174 32.9888 16.1179 32.9584 16.089 32.9055L15.7989 32.37C15.7989 32.37 15.7908 32.3588 15.7876 32.354C15.7411 32.2786 15.7636 32.1808 15.8389 32.1344L15.8437 32.1311C15.8806 32.1087 15.9271 32.1023 15.9688 32.1135C16.0105 32.1247 16.0473 32.1536 16.0682 32.1921L16.3712 32.7516C16.4129 32.8301 16.384 32.9263 16.3071 32.9696C16.283 32.9824 16.2574 32.9888 16.2301 32.9888ZM29.1804 32.9696C29.1708 32.9696 29.1595 32.9696 29.1483 32.9664L28.5199 32.8429C28.4333 32.8253 28.3756 32.7419 28.3932 32.6554C28.4109 32.5688 28.4942 32.5111 28.5808 32.5287L29.2108 32.6522C29.2974 32.6698 29.3535 32.7532 29.3375 32.8413C29.3231 32.9183 29.2557 32.9712 29.1804 32.9712V32.9696ZM9.85757 32.75C9.85757 32.75 9.85116 32.75 9.84956 32.75C9.76138 32.7452 9.69405 32.6698 9.69726 32.5816C9.71008 32.3476 9.73093 32.1231 9.75016 31.9356C9.75978 31.8474 9.83673 31.7833 9.92491 31.7913C10.0131 31.8009 10.0772 31.8795 10.0692 31.966C10.05 32.1504 10.0307 32.37 10.0179 32.5977C10.0131 32.6826 9.94254 32.75 9.85757 32.75ZM27.9219 32.7227C27.9123 32.7227 27.9011 32.7227 27.8914 32.7195L27.7985 32.7019C27.6173 32.6666 27.4378 32.6329 27.2614 32.5977C27.1748 32.58 27.1187 32.4967 27.1348 32.4085C27.1524 32.3219 27.2358 32.2642 27.3239 32.2818C27.5003 32.3171 27.6782 32.3508 27.8594 32.386L27.954 32.4037C28.0405 32.4213 28.0983 32.5047 28.0806 32.5913C28.0662 32.6682 27.9989 32.7211 27.9235 32.7211L27.9219 32.7227ZM33.2107 32.5688C33.1883 32.5688 33.1674 32.564 33.1466 32.5544C33.0664 32.5191 33.0295 32.4245 33.0648 32.3428C33.1418 32.1696 33.1819 31.9805 33.1819 31.7833C33.1819 31.6951 33.2588 31.6213 33.3438 31.6246C33.4319 31.6246 33.5041 31.6967 33.5025 31.7865C33.5025 32.0285 33.4528 32.2594 33.3566 32.4726C33.3293 32.5319 33.2716 32.5688 33.2107 32.5688ZM26.6634 32.471C26.6522 32.471 26.641 32.471 26.6298 32.4678C26.5191 32.4438 26.4101 32.4197 26.3043 32.3957C26.2819 32.4309 26.245 32.4566 26.2017 32.4646C26.1152 32.4806 26.0318 32.4293 26.0158 32.3412V32.3299L25.9949 32.2257C25.9853 32.1728 26.0029 32.1183 26.0414 32.0814C26.0799 32.0446 26.136 32.0285 26.1889 32.0414C26.3524 32.0782 26.5224 32.1167 26.6987 32.1552C26.7853 32.1744 26.8398 32.2594 26.8221 32.346C26.8061 32.4213 26.7388 32.4726 26.665 32.4726L26.6634 32.471ZM9.96979 31.4723C9.96979 31.4723 9.96178 31.4723 9.95697 31.4723C9.8688 31.4658 9.80307 31.3889 9.80948 31.3007L9.81269 31.2622C9.82872 31.041 9.85597 30.831 9.87842 30.6707C9.88162 30.5857 9.95056 30.5168 10.0371 30.5168H10.0387C10.0852 30.5168 10.1301 30.5376 10.1606 30.5713C10.191 30.6065 10.2055 30.653 10.1974 30.6995C10.175 30.8582 10.1461 31.0667 10.1317 31.2863L10.1285 31.3248C10.1221 31.4097 10.0516 31.4739 9.96819 31.4739L9.96979 31.4723ZM33.2396 31.3151C33.1722 31.3151 33.1081 31.2719 33.0873 31.2029L33.0696 31.15C33.0167 30.9641 32.959 30.7797 32.8965 30.5937C32.8676 30.5104 32.9141 30.419 32.9975 30.3901C33.0825 30.3613 33.1722 30.4078 33.2011 30.4911C33.2652 30.6803 33.3245 30.8711 33.3774 31.057L33.3935 31.1067C33.4207 31.1917 33.3726 31.2815 33.2893 31.3071C33.2732 31.3119 33.2572 31.3151 33.2412 31.3151H33.2396ZM9.39587 30.8262C9.39587 30.8262 9.39266 30.8262 9.39106 30.8262L9.12173 30.8166C8.99668 30.8118 8.87324 30.8069 8.7514 30.8037C8.66322 30.8021 8.59269 30.7284 8.59589 30.6386C8.5975 30.5504 8.66964 30.4751 8.76102 30.4831C8.88606 30.4863 9.00951 30.4911 9.13455 30.4959L9.40228 30.5056C9.49045 30.5088 9.56099 30.5825 9.55778 30.6707C9.55458 30.7572 9.48404 30.8262 9.39747 30.8262H9.39587ZM7.9402 30.815C7.76546 30.815 7.59552 30.7941 7.43842 30.754C7.35185 30.7316 7.30054 30.645 7.32299 30.5585C7.34543 30.4719 7.432 30.4206 7.51857 30.443C7.67889 30.4831 7.84882 30.5007 8.03479 30.4911L8.10853 30.4879C8.1951 30.4847 8.27206 30.552 8.27526 30.6402C8.27847 30.7284 8.21114 30.8037 8.12296 30.8069L8.04922 30.8102C8.01234 30.8102 7.97708 30.8134 7.94181 30.8134L7.9402 30.815ZM6.90296 30.4831C6.8693 30.4831 6.83403 30.4719 6.80517 30.4494C6.70417 30.3725 6.61279 30.2843 6.53263 30.1881C6.4621 30.1032 6.39957 30.0118 6.34827 29.914C6.30659 29.8354 6.33545 29.7392 6.4124 29.696C6.48935 29.6527 6.58714 29.6831 6.63043 29.7601C6.67371 29.8386 6.72341 29.9124 6.78112 29.9813C6.84525 30.0583 6.91899 30.1304 7.00075 30.1929C7.07129 30.2474 7.08412 30.3468 7.03122 30.4174C6.99915 30.4591 6.95266 30.4799 6.90296 30.4799V30.4831ZM32.8292 30.1C32.765 30.1 32.7041 30.0615 32.6801 29.9974C32.6063 29.8066 32.5278 29.6142 32.4412 29.409C32.4059 29.3272 32.4444 29.2326 32.5262 29.199C32.6079 29.1637 32.7025 29.2022 32.7362 29.2839C32.826 29.4924 32.9045 29.6895 32.9799 29.8835C33.0119 29.9669 32.9702 30.0583 32.8885 30.0903C32.8692 30.0983 32.85 30.1016 32.8308 30.1016L32.8292 30.1ZM6.30659 29.3898C6.22483 29.3898 6.15429 29.3272 6.14788 29.2439C6.14307 29.191 6.13986 29.1365 6.13986 29.0787C6.06291 29.0611 5.98436 29.0403 5.9074 29.0178C5.82244 28.9938 5.77274 28.904 5.79839 28.819C5.82244 28.7341 5.91221 28.6844 5.99718 28.71C6.111 28.7421 6.22483 28.7709 6.33705 28.7934C6.4156 28.8094 6.47011 28.88 6.4653 28.9601C6.4637 28.9954 6.4621 29.029 6.4621 29.0627C6.4621 29.1156 6.4637 29.1653 6.46851 29.2134C6.47652 29.3016 6.4124 29.3801 6.32422 29.3882C6.31941 29.3882 6.31461 29.3882 6.3098 29.3882L6.30659 29.3898ZM32.3274 28.92C32.2665 28.92 32.2087 28.8848 32.1815 28.8271C32.0917 28.6331 32.0019 28.4407 31.9105 28.2499C31.8721 28.1698 31.9057 28.0736 31.9859 28.0367C32.0661 27.9982 32.1622 28.0319 32.1991 28.112C32.2921 28.3044 32.3835 28.4984 32.4733 28.6956C32.5101 28.7757 32.4733 28.8719 32.3947 28.9088C32.3723 28.9184 32.3498 28.9232 32.3274 28.9232V28.92ZM5.3463 28.811C5.32546 28.811 5.30462 28.8062 5.28378 28.7982C5.05453 28.702 4.84772 28.5994 4.69382 28.5224C4.61526 28.4824 4.5832 28.3862 4.62328 28.3076C4.66336 28.2291 4.75955 28.197 4.8381 28.2371C4.9888 28.3124 5.18919 28.4118 5.40882 28.5048C5.49058 28.5385 5.52906 28.6331 5.49379 28.7148C5.46814 28.7757 5.40882 28.8126 5.3463 28.8126V28.811ZM4.21608 28.2114C4.18081 28.2114 4.14394 28.2002 4.11508 28.1746C3.94354 28.0351 3.78964 27.8636 3.65658 27.6648C3.60688 27.591 3.62612 27.4916 3.69986 27.4419C3.77361 27.3922 3.873 27.4115 3.9227 27.4852C4.03973 27.6583 4.17279 27.8058 4.31868 27.9261C4.38762 27.9822 4.39723 28.0832 4.34112 28.1521C4.30906 28.1906 4.26257 28.2114 4.21768 28.2114H4.21608ZM31.7743 27.7642C31.715 27.7642 31.6573 27.7305 31.63 27.6744L31.5867 27.5878C31.5643 27.5413 31.5659 27.4884 31.5883 27.4435C31.6124 27.3986 31.6556 27.3666 31.7053 27.3602C31.8849 27.3313 32.0645 27.3025 32.2424 27.2736C32.329 27.2592 32.4123 27.3185 32.4268 27.4051C32.4412 27.4916 32.3819 27.575 32.2953 27.5894C32.1735 27.6103 32.05 27.6295 31.9282 27.6487C31.9154 27.6904 31.8865 27.7273 31.8448 27.7481C31.8224 27.7593 31.7983 27.7642 31.7743 27.7642ZM32.9013 27.4836C32.8243 27.4836 32.757 27.4275 32.7442 27.3505C32.7298 27.264 32.7875 27.1806 32.8756 27.1662L33.5073 27.0588C33.5939 27.0427 33.6772 27.1021 33.6917 27.1902C33.7061 27.2768 33.6484 27.3602 33.5602 27.3746L32.9286 27.482C32.9189 27.482 32.9109 27.4836 32.9013 27.4836ZM34.1502 27.2079C34.0892 27.2079 34.0315 27.1726 34.0043 27.1149C33.9674 27.0347 34.0027 26.9385 34.0828 26.9017C34.2624 26.8199 34.4179 26.7061 34.5461 26.565C34.6054 26.4993 34.7064 26.4945 34.7722 26.5538C34.8379 26.6131 34.8427 26.7141 34.7834 26.7798C34.6263 26.953 34.4355 27.0924 34.2175 27.1934C34.195 27.2031 34.1726 27.2079 34.1502 27.2079ZM3.49466 27.1678C3.43053 27.1678 3.37122 27.1293 3.34557 27.0668C3.26701 26.8696 3.20128 26.6628 3.14517 26.4351C3.12433 26.3486 3.17723 26.262 3.2622 26.2412C3.34717 26.2203 3.43534 26.2732 3.45618 26.3582C3.50909 26.5714 3.57001 26.7638 3.64215 26.9482C3.67421 27.0299 3.63574 27.1229 3.55237 27.1566C3.53313 27.1646 3.51229 27.1678 3.49306 27.1678H3.49466ZM34.9934 26.2861C34.9742 26.2861 34.9565 26.2828 34.9373 26.2764C34.8539 26.246 34.8123 26.153 34.8427 26.0696C34.8796 25.9686 34.9004 25.8853 34.91 25.8324C34.9229 25.7698 34.9309 25.7057 34.9357 25.6464C34.9405 25.5871 34.9774 25.5358 35.0319 25.5117C35.0784 25.4909 35.1249 25.47 35.1698 25.4476C35.2483 25.4075 35.3445 25.4396 35.3846 25.5181C35.4247 25.5967 35.3926 25.6929 35.314 25.733C35.2916 25.7442 35.2692 25.7554 35.2467 25.7666C35.2419 25.8083 35.2339 25.8516 35.2259 25.8949C35.213 25.9606 35.189 26.0632 35.1441 26.1835C35.1201 26.2476 35.0591 26.2877 34.9934 26.2877V26.2861ZM3.16922 25.9302C3.09387 25.9302 3.02814 25.8772 3.01211 25.8019L3.00089 25.7442C2.96081 25.555 2.92233 25.3642 2.88386 25.1719C2.86622 25.0853 2.92394 25.0003 3.01051 24.9843C3.09708 24.9667 3.18204 25.0244 3.19808 25.1109C3.23655 25.3017 3.27503 25.4925 3.3135 25.6801L3.32633 25.7378C3.34396 25.8243 3.28785 25.9093 3.20128 25.9269C3.19006 25.9285 3.18044 25.9302 3.16922 25.9302ZM35.7758 25.3979C35.7309 25.3979 35.6844 25.3787 35.6539 25.3418C35.5962 25.2745 35.6058 25.1735 35.6731 25.1158C35.8271 24.9859 35.9633 24.8384 36.0804 24.6749C36.1317 24.6027 36.2327 24.5867 36.3048 24.638C36.3769 24.6893 36.393 24.7903 36.3417 24.8625C36.2086 25.0468 36.0547 25.2135 35.88 25.361C35.8495 25.3867 35.8126 25.3995 35.7758 25.3995V25.3979ZM2.92554 24.6701C2.84859 24.6701 2.78126 24.614 2.76683 24.5354C2.72835 24.3094 2.69949 24.0977 2.67545 23.8925C2.66583 23.8044 2.72835 23.7258 2.81653 23.7146C2.9047 23.705 2.98325 23.7675 2.99448 23.8557C3.01852 24.0561 3.04738 24.2613 3.08425 24.4825C3.09868 24.5691 3.03936 24.6524 2.95279 24.6669C2.94317 24.6669 2.93516 24.6685 2.92554 24.6685V24.6701ZM36.5196 24.3671C36.4988 24.3671 36.4779 24.3639 36.4587 24.3543C36.3769 24.3206 36.3385 24.2276 36.3721 24.1442C36.4154 24.0368 36.4539 23.9246 36.486 23.8092C36.5068 23.7306 36.5292 23.6457 36.5501 23.5559C36.5693 23.4693 36.6559 23.4164 36.7425 23.4356C36.829 23.4565 36.8819 23.5415 36.8627 23.628C36.8402 23.721 36.8178 23.8108 36.7954 23.8925C36.7601 24.0208 36.7184 24.1458 36.6687 24.2661C36.6431 24.3286 36.5837 24.3655 36.5196 24.3655V24.3671ZM2.78126 23.3956C2.69629 23.3956 2.62575 23.3282 2.62094 23.2433C2.61613 23.1391 2.61132 23.0349 2.60972 22.9291C2.60812 22.82 2.60491 22.7094 2.6017 22.6004C2.5985 22.5122 2.66903 22.4385 2.75721 22.4353C2.84538 22.4321 2.91913 22.5026 2.92233 22.5908C2.92554 22.703 2.92875 22.8136 2.93035 22.9258C2.93195 23.0284 2.93516 23.1294 2.93997 23.2288C2.94478 23.317 2.87584 23.3924 2.78767 23.3972C2.78446 23.3972 2.78286 23.3972 2.77965 23.3972L2.78126 23.3956ZM36.8114 23.1214C36.8114 23.1214 36.8018 23.1214 36.797 23.1214C36.7088 23.1134 36.6447 23.0349 36.6527 22.9467C36.6623 22.8409 36.6671 22.7367 36.6671 22.6357C36.6671 22.602 36.6671 22.5667 36.6655 22.5315L36.6591 22.3247C36.6559 22.2365 36.7264 22.1627 36.8146 22.1595C36.9028 22.1547 36.9765 22.2269 36.9797 22.315L36.9861 22.5202C36.9861 22.5587 36.9877 22.5972 36.9877 22.6341C36.9877 22.7447 36.9829 22.8585 36.9717 22.9739C36.9637 23.0573 36.8948 23.1198 36.813 23.1198L36.8114 23.1214ZM2.73316 22.1146C2.64819 22.1146 2.57766 22.0489 2.57285 21.964C2.56002 21.7523 2.5472 21.5391 2.53116 21.3259C2.52475 21.2377 2.59048 21.1608 2.67865 21.1544C2.76843 21.1495 2.84378 21.2137 2.85019 21.3019C2.86622 21.5167 2.88065 21.7299 2.89187 21.9447C2.89668 22.0329 2.82935 22.1082 2.74118 22.1146C2.73797 22.1146 2.73476 22.1146 2.73156 22.1146H2.73316ZM36.8034 21.8405C36.7168 21.8405 36.6447 21.77 36.6431 21.6834C36.6399 21.4686 36.6382 21.2538 36.635 21.0405C36.635 20.9524 36.7056 20.8802 36.7938 20.8786C36.8819 20.8786 36.9541 20.9492 36.9541 21.0373C36.9557 21.2489 36.9589 21.4638 36.9621 21.677C36.9621 21.7652 36.8932 21.8389 36.805 21.8405H36.8018H36.8034ZM2.64018 20.8353C2.55681 20.8353 2.48788 20.7712 2.47986 20.6878L2.42696 20.0498C2.41894 19.9616 2.48467 19.8847 2.57285 19.8766C2.66102 19.8686 2.73797 19.9344 2.74599 20.0225L2.79889 20.6622C2.8053 20.7504 2.74118 20.8273 2.6514 20.8353C2.64659 20.8353 2.64178 20.8353 2.63858 20.8353H2.64018ZM36.7889 20.558C36.7008 20.558 36.6302 20.4874 36.6286 20.3993C36.6254 20.1877 36.6238 19.9744 36.619 19.7596C36.6174 19.6714 36.6879 19.5977 36.7761 19.5961C36.8579 19.5993 36.938 19.665 36.9396 19.7532C36.9445 19.968 36.9477 20.1828 36.9493 20.3961C36.9493 20.4842 36.8787 20.5564 36.7905 20.558H36.7889ZM2.53758 19.5576C2.45421 19.5576 2.38367 19.4935 2.37726 19.4085C2.36123 19.1905 2.3484 18.9757 2.34039 18.7641C2.33718 18.6759 2.40612 18.6005 2.49429 18.5973C2.58407 18.5973 2.65781 18.6631 2.66102 18.7512C2.66903 18.9596 2.68186 19.1713 2.69789 19.3861C2.7043 19.4743 2.63858 19.5512 2.5488 19.5576C2.54559 19.5576 2.54078 19.5576 2.53758 19.5576ZM36.7617 19.2771C36.6751 19.2771 36.6046 19.2097 36.6014 19.1232C36.5934 18.9115 36.5837 18.6999 36.5709 18.4867C36.5661 18.3985 36.6334 18.3216 36.7216 18.3168C36.8114 18.3104 36.8867 18.3793 36.8915 18.4675C36.9044 18.6823 36.9156 18.8971 36.9236 19.1119C36.9268 19.2001 36.8579 19.2755 36.7697 19.2787C36.7681 19.2787 36.7649 19.2787 36.7633 19.2787L36.7617 19.2771ZM2.48307 18.2767C2.3949 18.2767 2.32275 18.2062 2.32275 18.118V17.9529C2.32275 17.7909 2.32275 17.6306 2.32917 17.4703C2.33077 17.3821 2.40131 17.31 2.49429 17.3148C2.58246 17.318 2.653 17.3902 2.6498 17.4799C2.64499 17.6354 2.64338 17.7942 2.64338 17.9529V18.1148C2.64338 18.203 2.57445 18.2751 2.48467 18.2767H2.48307ZM36.6815 17.9978C36.5998 17.9978 36.5292 17.9352 36.5212 17.8519C36.502 17.6354 36.4779 17.4238 36.4523 17.2202C36.4411 17.1321 36.5036 17.0519 36.5918 17.0407C36.6799 17.0294 36.7601 17.092 36.7713 17.1801C36.797 17.387 36.821 17.6034 36.8419 17.823C36.8499 17.9112 36.7841 17.9897 36.696 17.9978C36.6912 17.9978 36.6863 17.9978 36.6815 17.9978ZM2.51994 16.9942C2.51994 16.9942 2.51353 16.9942 2.50872 16.9942C2.42055 16.9878 2.35321 16.9124 2.35963 16.8242C2.37405 16.6078 2.39329 16.3898 2.41574 16.1782C2.42536 16.09 2.50551 16.0275 2.59208 16.0371C2.68026 16.0467 2.74278 16.1253 2.73316 16.2134C2.71072 16.4202 2.69148 16.6335 2.67705 16.8451C2.67064 16.9301 2.6017 16.9942 2.51674 16.9942H2.51994ZM36.5212 16.7248C36.4427 16.7248 36.3737 16.6671 36.3625 16.587C36.3385 16.4202 36.316 16.2535 36.292 16.0868C36.2631 15.8768 36.2343 15.6652 36.2022 15.4535C36.1894 15.3654 36.2503 15.2852 36.3369 15.2708C36.425 15.258 36.5052 15.3189 36.5196 15.4055C36.5517 15.6187 36.5805 15.8303 36.6094 16.0419C36.6318 16.2086 36.6559 16.3738 36.6799 16.5389C36.6928 16.6271 36.6318 16.7072 36.5437 16.72C36.5356 16.72 36.5276 16.7216 36.5196 16.7216L36.5212 16.7248ZM2.66102 15.7197C2.653 15.7197 2.64499 15.7197 2.63537 15.7181C2.5472 15.7052 2.48788 15.6219 2.50231 15.5353C2.53597 15.3205 2.57445 15.1057 2.61773 14.8973C2.63537 14.8107 2.72034 14.7546 2.80691 14.7722C2.89348 14.7898 2.94959 14.8748 2.93195 14.9614C2.89027 15.165 2.85179 15.375 2.81813 15.585C2.8053 15.6636 2.73797 15.7213 2.65942 15.7213L2.66102 15.7197ZM36.2615 14.9582C36.1846 14.9582 36.1172 14.9037 36.1044 14.8251C36.0659 14.6023 36.0258 14.3971 35.9842 14.2015C35.9649 14.1149 36.021 14.0299 36.1076 14.0107C36.1942 13.9931 36.2791 14.0476 36.2984 14.1342C36.3417 14.3345 36.3817 14.543 36.4202 14.7706C36.4346 14.8572 36.3769 14.9405 36.2904 14.9566C36.2807 14.9566 36.2727 14.9582 36.2631 14.9582H36.2615ZM2.92714 14.4676C2.91111 14.4676 2.89508 14.4644 2.87905 14.4596C2.79408 14.4323 2.74759 14.3426 2.77484 14.2592C2.84218 14.046 2.92714 13.8376 3.02814 13.642C3.06822 13.5634 3.16441 13.5314 3.24457 13.5731C3.32312 13.6131 3.35518 13.7093 3.3135 13.7895C3.22052 13.969 3.14357 14.1598 3.08105 14.357C3.0602 14.4259 2.99608 14.4692 2.92875 14.4692L2.92714 14.4676ZM35.989 13.7061C35.9184 13.7061 35.8527 13.6596 35.8335 13.5875C35.8014 13.4704 35.7677 13.3518 35.7325 13.2348C35.7084 13.1546 35.6844 13.0616 35.6603 12.9655C35.6395 12.8789 35.6924 12.7923 35.779 12.7715C35.8655 12.7506 35.9521 12.8035 35.9729 12.8901C35.9938 12.9783 36.0162 13.0649 36.0387 13.1402C36.0755 13.262 36.1108 13.3823 36.1429 13.5041C36.1653 13.5891 36.1156 13.6773 36.029 13.7013C36.0146 13.7045 36.0018 13.7061 35.9874 13.7061H35.989ZM3.50748 13.3326C3.47382 13.3326 3.44015 13.323 3.41129 13.3005C3.34076 13.2476 3.32633 13.1466 3.37923 13.0761C3.50909 12.9029 3.65658 12.7346 3.8185 12.5759C3.88262 12.515 3.98362 12.515 4.04454 12.5791C4.10706 12.6432 4.10546 12.7442 4.04133 12.8051C3.89064 12.951 3.75437 13.1065 3.63413 13.2668C3.60207 13.3085 3.55398 13.331 3.50588 13.331L3.50748 13.3326ZM35.6619 12.4669C35.5914 12.4669 35.5273 12.4204 35.508 12.3498C35.4455 12.1286 35.383 11.933 35.3156 11.7519C35.2852 11.6685 35.3269 11.5771 35.4102 11.5451C35.4936 11.5146 35.585 11.5563 35.617 11.6396C35.6876 11.8288 35.7533 12.0324 35.819 12.2617C35.8431 12.3466 35.7934 12.4348 35.7084 12.4589C35.694 12.4637 35.6796 12.4653 35.6651 12.4653L35.6619 12.4669ZM4.41968 12.4364C4.37158 12.4364 4.32189 12.414 4.29143 12.3723C4.23852 12.3018 4.25295 12.2008 4.32349 12.1478C4.44853 12.0533 4.5832 11.9619 4.72267 11.8737C4.77398 11.8416 4.82367 11.8112 4.87497 11.7823C4.95193 11.739 5.04972 11.7647 5.09461 11.8416C5.13789 11.9186 5.11224 12.0164 5.03529 12.0613C4.9888 12.0885 4.94231 12.1158 4.89421 12.1462C4.76275 12.2296 4.6361 12.3162 4.51747 12.4044C4.48861 12.4252 4.45495 12.4364 4.42128 12.4364H4.41968ZM5.53066 11.8032C5.46654 11.8032 5.40722 11.7647 5.38157 11.7038C5.3479 11.622 5.38798 11.529 5.46974 11.4954C5.46974 11.4954 5.47135 11.4954 5.47295 11.4954L5.42165 11.3912C5.39279 11.3367 5.36714 11.2805 5.34309 11.226C5.30783 11.1443 5.3463 11.0497 5.42806 11.016C5.50982 10.9808 5.60441 11.0192 5.63807 11.101C5.65892 11.1491 5.68136 11.1972 5.70701 11.2453L5.83847 11.5114C5.85771 11.5515 5.85931 11.5996 5.84328 11.6413C5.82725 11.6829 5.79198 11.7166 5.7503 11.7326C5.69739 11.7519 5.64449 11.7727 5.59158 11.7936C5.57235 11.8016 5.5515 11.8048 5.53066 11.8048V11.8032ZM35.205 11.2709C35.1473 11.2709 35.0912 11.2405 35.0639 11.186C34.963 10.9952 34.8555 10.8268 34.7337 10.6713C34.6792 10.6008 34.692 10.5014 34.761 10.4469C34.8315 10.3924 34.9309 10.4052 34.9854 10.4742C35.1185 10.6457 35.2371 10.8285 35.3477 11.0369C35.3894 11.1154 35.3589 11.2116 35.2804 11.2533C35.2563 11.2661 35.2307 11.2725 35.205 11.2725V11.2709ZM5.33989 10.7018C5.25492 10.7018 5.18438 10.6345 5.17957 10.5495C5.17957 10.5206 5.17797 10.4918 5.17797 10.4629C5.17797 10.2577 5.21484 10.0541 5.28698 9.85694C5.31744 9.77358 5.40882 9.73029 5.49219 9.76075C5.57555 9.79121 5.61884 9.88259 5.58838 9.96596C5.52906 10.1279 5.4986 10.2946 5.4986 10.4613C5.4986 10.4854 5.4986 10.5078 5.5002 10.5319C5.50501 10.62 5.43608 10.6954 5.3479 10.7002C5.3447 10.7002 5.34309 10.7002 5.33989 10.7002V10.7018ZM34.4147 10.2722C34.3778 10.2722 34.3409 10.2593 34.3105 10.2337C34.1598 10.107 33.9914 9.99 33.8087 9.8874C33.7317 9.84412 33.7045 9.74632 33.7478 9.66937C33.791 9.59242 33.8888 9.56517 33.9658 9.60845C34.1662 9.72067 34.3505 9.84893 34.5173 9.99C34.5846 10.0477 34.5926 10.1487 34.5365 10.216C34.5045 10.2529 34.4596 10.2722 34.4147 10.2722ZM33.3069 9.64052C33.2877 9.64052 33.2684 9.63731 33.2508 9.6309C33.068 9.56196 32.8676 9.49944 32.656 9.44654C32.5694 9.42569 32.5181 9.33752 32.539 9.25255C32.5598 9.16598 32.648 9.11468 32.733 9.13552C32.9558 9.19163 33.1674 9.25736 33.3614 9.3295C33.4448 9.35996 33.4865 9.45295 33.4544 9.53631C33.4303 9.60044 33.3694 9.64052 33.3037 9.64052H33.3069ZM5.75831 9.52188C5.72144 9.52188 5.68296 9.50906 5.6525 9.4818C5.58517 9.42409 5.57876 9.32149 5.63807 9.25576C5.79518 9.07621 5.98275 8.93353 6.19597 8.83092C6.27613 8.79245 6.37072 8.82611 6.40919 8.90627C6.44767 8.98643 6.414 9.08262 6.33384 9.11949C6.1607 9.20286 6.0068 9.31989 5.87855 9.46738C5.84648 9.50425 5.8016 9.52188 5.75831 9.52188ZM32.0661 9.31668C32.0564 9.31668 32.0452 9.31668 32.034 9.31347L31.6108 9.22851C31.5675 9.22049 31.529 9.19324 31.5066 9.15476C31.4825 9.11628 31.4761 9.0714 31.4889 9.02811C31.5066 8.96238 31.5242 8.89665 31.5418 8.82772C31.5627 8.74115 31.6508 8.68985 31.7358 8.71069C31.8224 8.73153 31.8737 8.8181 31.8528 8.90467C31.8496 8.9191 31.8464 8.93192 31.8416 8.94635L32.0965 8.99765C32.1831 9.01529 32.2392 9.09865 32.2232 9.18682C32.2087 9.26378 32.1414 9.31508 32.0661 9.31508V9.31668ZM8.79949 9.10025C8.79949 9.10025 8.79148 9.10025 8.78667 9.10025C8.57185 9.08262 8.35863 9.06659 8.14861 9.05056C8.06044 9.04414 7.99471 8.96719 8.00112 8.87902C8.00753 8.79085 8.08449 8.72351 8.17266 8.73153C8.38428 8.74756 8.5975 8.76359 8.81232 8.78123C8.90049 8.78764 8.96622 8.86619 8.95981 8.95437C8.9534 9.03773 8.88286 9.10186 8.79949 9.10186V9.10025ZM7.52018 9.00406C7.52018 9.00406 7.51216 9.00406 7.50735 9.00406L7.17229 8.97841C7.12259 8.97521 7.01999 8.96719 6.89014 8.97521C6.80036 8.98322 6.72501 8.91429 6.7202 8.82611C6.71379 8.73794 6.78112 8.66099 6.8693 8.65618C7.01999 8.64656 7.14023 8.65618 7.19634 8.65939L7.5314 8.68504C7.61957 8.69145 7.6853 8.7684 7.67889 8.85657C7.67248 8.94154 7.60194 9.00567 7.51857 9.00567L7.52018 9.00406ZM9.0592 8.82131C8.98546 8.82131 8.91813 8.77 8.90209 8.69466C8.85721 8.48625 8.81232 8.27623 8.76903 8.06462C8.7514 7.97805 8.80751 7.89308 8.89408 7.87544C8.98065 7.85781 9.06562 7.91392 9.08325 8.00049C9.12654 8.2105 9.16982 8.41891 9.21471 8.62572C9.23395 8.71229 9.17784 8.79726 9.09127 8.8165C9.08004 8.8197 9.06882 8.8197 9.0576 8.8197L9.0592 8.82131ZM31.816 8.39968C31.816 8.39968 31.8095 8.39968 31.8047 8.39968C31.7166 8.39326 31.6492 8.31792 31.6556 8.22974C31.6573 8.20249 31.6589 8.17684 31.6589 8.14958C31.6589 7.98606 31.6268 7.82735 31.5611 7.67826C31.5258 7.5965 31.5627 7.50191 31.6444 7.46824C31.7262 7.43297 31.8208 7.46985 31.8544 7.55161C31.9362 7.74078 31.9779 7.94278 31.9779 8.14958C31.9779 8.18325 31.9779 8.21692 31.9747 8.25058C31.9683 8.33555 31.8993 8.39968 31.8144 8.39968H31.816ZM25.8234 8.23295C25.7544 8.23295 25.6919 8.18806 25.6711 8.12073C25.6454 8.03576 25.6919 7.94598 25.7769 7.92033C25.9789 7.85781 26.1841 7.79368 26.3877 7.72956C26.4727 7.7023 26.5624 7.7504 26.5881 7.83376C26.6137 7.91713 26.5672 8.00851 26.4839 8.03416C26.2787 8.09828 26.0735 8.16241 25.8715 8.22493C25.8554 8.22974 25.8394 8.23295 25.8234 8.23295ZM25.5076 7.88987C25.437 7.88987 25.3713 7.84178 25.352 7.76964L25.1901 7.14922C25.1677 7.06425 25.219 6.97608 25.3056 6.95363C25.3905 6.93119 25.4787 6.98249 25.5011 7.06906L25.6631 7.68948C25.6855 7.77445 25.6342 7.86262 25.5476 7.88506C25.5348 7.88827 25.5204 7.88987 25.5076 7.88987ZM27.0466 7.84659C26.9792 7.84659 26.9167 7.8033 26.8943 7.73597C26.867 7.651 26.9135 7.56123 26.9969 7.53397C27.1957 7.46985 27.3929 7.40412 27.5884 7.33679L27.6045 7.33198C27.6894 7.30312 27.7792 7.34961 27.8081 7.43297C27.8353 7.51634 27.7904 7.60772 27.7071 7.63658L27.6558 7.48428L27.6943 7.63978C27.4955 7.70711 27.2967 7.77445 27.0963 7.83857C27.0802 7.84338 27.0626 7.84659 27.0466 7.84659ZM8.80591 7.56443C8.73056 7.56443 8.66162 7.50993 8.6488 7.43297C8.61032 7.22296 8.57505 7.00974 8.54139 6.79492C8.52856 6.70675 8.58788 6.62499 8.67605 6.61216C8.76422 6.59934 8.84598 6.65865 8.85881 6.74683C8.89087 6.95844 8.92614 7.16685 8.96462 7.37526C8.98065 7.46183 8.92294 7.5452 8.83637 7.56123C8.82675 7.56283 8.81713 7.56443 8.80751 7.56443H8.80591ZM28.273 7.47145C28.2009 7.47145 28.1351 7.42175 28.1175 7.34801C28.0966 7.26144 28.1512 7.17487 28.2361 7.15563C28.3467 7.12998 28.4558 7.10593 28.5584 7.08349C28.6674 7.05944 28.7684 7.037 28.8614 7.01616C28.9479 6.99531 29.0345 7.04822 29.0537 7.13479C29.0746 7.22136 29.0217 7.30793 28.9351 7.32717C28.8389 7.34961 28.7379 7.37206 28.6289 7.3961C28.5247 7.41855 28.4189 7.44259 28.3083 7.46824C28.2954 7.47145 28.2842 7.47305 28.2714 7.47305L28.273 7.47145ZM31.327 7.26625C31.2917 7.26625 31.2549 7.25342 31.2244 7.22937C31.0785 7.10914 30.9054 7.02417 30.721 6.98409C30.6344 6.96485 30.5799 6.87989 30.5992 6.79332C30.6184 6.70675 30.7034 6.65224 30.7899 6.67148C31.024 6.72278 31.2436 6.83019 31.4296 6.98249C31.4985 7.0386 31.5066 7.1396 31.4504 7.20853C31.4184 7.24701 31.3735 7.26625 31.327 7.26625ZM29.5026 7.12357C29.4449 7.12357 29.3872 7.0915 29.3599 7.03539C29.3199 6.95684 29.3503 6.86065 29.4305 6.81897C29.6164 6.72438 29.8168 6.66506 30.0301 6.64102C30.0557 6.63781 30.0814 6.63621 30.107 6.6346C30.1952 6.6298 30.2721 6.69392 30.2785 6.7837C30.285 6.87187 30.2192 6.94882 30.1294 6.95524C30.1086 6.95524 30.0878 6.95844 30.0653 6.96165C29.8922 6.98089 29.7271 7.03058 29.5764 7.10753C29.5523 7.11876 29.5283 7.12517 29.5042 7.12517L29.5026 7.12357ZM21.0845 6.69392C21.0412 6.69392 20.9979 6.67629 20.9674 6.64422L20.5811 6.23382C20.5201 6.16969 20.5234 6.06869 20.5875 6.00777C20.6516 5.94685 20.7526 5.95006 20.8135 6.01418L21.0957 6.31237C21.1358 6.30436 21.179 6.31237 21.2175 6.33642C21.2913 6.38612 21.3105 6.48551 21.2608 6.55926L21.2175 6.62338C21.1903 6.66346 21.1454 6.68911 21.0973 6.69392C21.0925 6.69392 21.0893 6.69392 21.0845 6.69392ZM25.1853 6.64903C25.1132 6.64903 25.0491 6.60094 25.0298 6.5288L24.8695 5.90677C24.8471 5.8202 24.9 5.73363 24.9849 5.71119C25.0715 5.68874 25.1581 5.74165 25.1805 5.82662L25.3392 6.44704C25.3617 6.53361 25.3104 6.62018 25.2238 6.64262C25.211 6.64583 25.1965 6.64743 25.1837 6.64743L25.1853 6.64903ZM8.61673 6.29634C8.53658 6.29634 8.46764 6.23542 8.45802 6.15366C8.43397 5.93563 8.41313 5.7176 8.40031 5.50759C8.3939 5.41941 8.46123 5.34246 8.5494 5.33765C8.63757 5.32964 8.71453 5.39857 8.71934 5.48675C8.73376 5.69195 8.753 5.90517 8.77705 6.11839C8.78667 6.20656 8.72414 6.28512 8.63597 6.29634C8.62956 6.29634 8.62315 6.29634 8.61834 6.29634H8.61673ZM21.4885 6.09915C21.458 6.09915 21.4259 6.08953 21.3987 6.07029C21.3249 6.0206 21.3073 5.9196 21.357 5.84746C21.4804 5.6679 21.6023 5.49156 21.7241 5.32002C21.7754 5.24788 21.8748 5.23024 21.947 5.28154C22.0191 5.33284 22.0367 5.43224 21.9854 5.50438C21.8652 5.67592 21.7434 5.85066 21.6199 6.02861C21.5894 6.0735 21.5381 6.09755 21.4868 6.09755L21.4885 6.09915ZM20.2588 5.817C20.2155 5.817 20.1739 5.79936 20.1418 5.7673C19.9943 5.61179 19.8484 5.45629 19.7025 5.29918C19.6416 5.23505 19.6448 5.13245 19.7106 5.07313C19.7747 5.01221 19.8773 5.01542 19.9366 5.08115C20.0825 5.23666 20.2284 5.39216 20.3759 5.54767C20.4368 5.61179 20.4336 5.71279 20.3694 5.77371C20.339 5.80257 20.2989 5.817 20.2588 5.817ZM15.3949 5.78173C15.3708 5.78173 15.3468 5.77692 15.3243 5.7657C15.2345 5.72081 15.1416 5.67592 15.047 5.62943C14.9476 5.58133 14.8482 5.53324 14.7488 5.48675C14.6686 5.44827 14.635 5.35369 14.6718 5.27353C14.7087 5.19337 14.8049 5.1597 14.8851 5.19658C14.9861 5.24467 15.0855 5.29277 15.1865 5.34086C15.281 5.38735 15.374 5.43224 15.4654 5.47713C15.5456 5.5156 15.5776 5.61179 15.5375 5.69195C15.5103 5.74806 15.4526 5.78173 15.3933 5.78173H15.3949ZM15.6898 5.58614C15.6898 5.58614 15.6834 5.58614 15.6802 5.58614C15.5921 5.58133 15.5247 5.50438 15.5295 5.41621L15.5375 5.29116C15.5472 5.14528 15.5552 5.0058 15.5648 4.86633C15.5664 4.83426 15.5696 4.8022 15.5728 4.77014C15.5824 4.68196 15.6594 4.61784 15.7492 4.62746C15.8373 4.63708 15.9015 4.71563 15.8918 4.8038C15.8886 4.83106 15.887 4.85831 15.8854 4.88717C15.8774 5.02664 15.8678 5.16772 15.8582 5.31361L15.8502 5.43865C15.8454 5.52362 15.7748 5.58935 15.6898 5.58935V5.58614ZM24.8438 5.41461C24.7813 5.41461 24.722 5.37773 24.6964 5.31842C24.6146 5.13085 24.5072 4.96893 24.3773 4.83747C24.3148 4.77495 24.3148 4.67395 24.3773 4.61143C24.4399 4.5489 24.5425 4.5489 24.6034 4.61143C24.7621 4.77174 24.8919 4.96572 24.9897 5.19177C25.025 5.27353 24.9881 5.36811 24.9064 5.40178C24.8855 5.4114 24.8647 5.41461 24.8422 5.41461H24.8438ZM14.2358 5.23185C14.2133 5.23185 14.1909 5.22704 14.1685 5.21742L14.045 5.1597C13.8943 5.08917 13.742 5.02023 13.5881 4.94809C13.508 4.91122 13.4727 4.81503 13.5096 4.73487C13.5464 4.65471 13.6394 4.61944 13.7212 4.65631C13.8783 4.73006 14.029 4.79899 14.1797 4.86953L14.3047 4.92725C14.3849 4.96412 14.4201 5.06031 14.3833 5.14047C14.356 5.19978 14.2983 5.23345 14.2374 5.23345L14.2358 5.23185ZM22.2323 5.0539C22.1954 5.0539 22.1602 5.04107 22.1297 5.01702C22.0624 4.96091 22.0528 4.85991 22.1089 4.79098C22.266 4.60181 22.4439 4.45111 22.6395 4.34049C22.7165 4.29721 22.8143 4.32446 22.8575 4.40141C22.9008 4.47836 22.8736 4.57616 22.7966 4.61944C22.6363 4.71082 22.4872 4.83747 22.3558 4.99458C22.3237 5.03305 22.2788 5.05229 22.2323 5.05229V5.0539ZM8.53337 5.01702C8.53337 5.01702 8.53016 5.01702 8.52856 5.01702C8.44039 5.01382 8.36985 4.94007 8.37305 4.8519C8.37947 4.60501 8.42596 4.37737 8.50772 4.17056C8.54139 4.0888 8.63437 4.04872 8.71613 4.08078C8.79789 4.11445 8.83797 4.20743 8.80591 4.28919C8.73697 4.45913 8.7001 4.6515 8.69369 4.85991C8.69048 4.94648 8.61994 5.01542 8.53337 5.01542V5.01702ZM19.3851 4.87915C19.3418 4.87915 19.2969 4.86152 19.2649 4.82625C19.135 4.68036 18.9955 4.52005 18.8432 4.33568C18.7871 4.26835 18.7952 4.16575 18.8641 4.10964C18.9314 4.05353 19.0324 4.06154 19.0901 4.13048C19.2408 4.31164 19.3771 4.46874 19.5054 4.61303C19.5647 4.67876 19.5583 4.77976 19.4925 4.83907C19.4621 4.86633 19.4236 4.87915 19.3851 4.87915ZM13.0735 4.69158C13.0511 4.69158 13.0286 4.68677 13.0062 4.67715C12.8122 4.58738 12.6182 4.496 12.4242 4.40302C12.3441 4.36454 12.3104 4.26835 12.3489 4.1898C12.3874 4.10964 12.4835 4.07758 12.5621 4.11445C12.7545 4.20743 12.9485 4.29721 13.1408 4.38698C13.221 4.42386 13.2563 4.52005 13.2194 4.6002C13.1921 4.65792 13.1344 4.69319 13.0735 4.69319V4.69158ZM23.9573 4.53768C23.9381 4.53768 23.9188 4.53447 23.9012 4.52806C23.8323 4.50241 23.7617 4.48157 23.6912 4.46874C23.5758 4.4463 23.4571 4.43989 23.3401 4.45111C23.2503 4.45752 23.175 4.3934 23.167 4.30522C23.1589 4.21705 23.2247 4.1401 23.3128 4.13208C23.4587 4.11926 23.6062 4.12727 23.7505 4.15453C23.8387 4.17056 23.9268 4.19621 24.0118 4.22827C24.0952 4.25873 24.1369 4.35171 24.1064 4.43508C24.0824 4.4992 24.0214 4.53928 23.9557 4.53928L23.9573 4.53768ZM15.9015 4.32927C15.879 4.32927 15.855 4.32446 15.8325 4.31324C15.7524 4.27476 15.7187 4.18018 15.7556 4.10002C15.8566 3.8852 15.9944 3.69603 16.1644 3.53571C16.2285 3.47479 16.3295 3.478 16.3904 3.54212C16.4513 3.60625 16.4481 3.70885 16.384 3.76817C16.2429 3.89963 16.1291 4.05673 16.0457 4.23629C16.0185 4.294 15.9608 4.32767 15.9015 4.32767V4.32927ZM11.9192 4.13208C11.8952 4.13208 11.8695 4.12567 11.8471 4.11445C11.6403 4.00864 11.4511 3.90924 11.2764 3.81145C11.1994 3.76817 11.1706 3.67037 11.2138 3.59342C11.2571 3.51647 11.3533 3.48762 11.4319 3.5309C11.605 3.62709 11.791 3.72488 11.9946 3.82909C12.0731 3.86917 12.1052 3.96535 12.0651 4.04551C12.0363 4.10162 11.9801 4.13369 11.9224 4.13369L11.9192 4.13208ZM18.5643 3.89321C18.521 3.89321 18.4761 3.87558 18.4441 3.84031C18.3078 3.68801 18.1539 3.56938 17.9888 3.48922C17.9086 3.45074 17.8765 3.35455 17.915 3.2744C17.9535 3.19424 18.0497 3.16218 18.1298 3.20065C18.3334 3.30005 18.5194 3.44273 18.6845 3.62549C18.7439 3.69122 18.7374 3.79221 18.6717 3.85153C18.6413 3.87878 18.6028 3.89321 18.5643 3.89321ZM9.01111 3.86115C8.96943 3.86115 8.92774 3.84512 8.89728 3.81306C8.83476 3.75053 8.83637 3.64793 8.89889 3.58701C8.95179 3.53411 9.00951 3.48441 9.07203 3.43792C9.19868 3.34013 9.33655 3.25997 9.48083 3.20065C9.56259 3.16698 9.65718 3.20546 9.69085 3.28722C9.72451 3.36898 9.68604 3.46357 9.60428 3.49723C9.48564 3.54693 9.37182 3.61266 9.26761 3.69282C9.21631 3.7329 9.16822 3.77458 9.12333 3.81786C9.09287 3.84832 9.05119 3.86436 9.01111 3.86436V3.86115ZM10.789 3.52769C10.7682 3.52769 10.7457 3.52288 10.7265 3.51487C10.5405 3.43471 10.3513 3.39303 10.1638 3.38822C10.0756 3.38662 10.0051 3.31287 10.0067 3.2247C10.0083 3.13652 10.0756 3.06919 10.1702 3.06759C10.3994 3.0724 10.6287 3.1237 10.8515 3.21989C10.9333 3.25516 10.9702 3.34974 10.9349 3.4299C10.9092 3.49082 10.8499 3.52769 10.7874 3.52769H10.789ZM16.8137 3.47319C16.7495 3.47319 16.6886 3.43471 16.6646 3.37219C16.6325 3.29043 16.6726 3.19744 16.7543 3.16378C16.7992 3.14614 16.8457 3.13011 16.8938 3.11408C17.0028 3.08041 17.1118 3.05797 17.2177 3.04675C17.2786 3.04034 17.3427 3.03553 17.4068 3.03553H17.4421C17.5303 3.03713 17.6008 3.11087 17.5992 3.19905C17.5976 3.28722 17.5271 3.35295 17.4357 3.35616H17.4068C17.3507 3.35616 17.2994 3.35936 17.2529 3.36417C17.1647 3.37379 17.075 3.39303 16.9868 3.42028C16.9467 3.43311 16.9082 3.44593 16.8714 3.46036C16.8521 3.46838 16.8329 3.47158 16.8121 3.47158L16.8137 3.47319Z" fill="#6A0B9B"/>
<path d="M32.7458 18.044C32.3642 17.951 31.9811 17.8596 31.6059 17.7314C30.8043 17.4541 30.0076 17.1462 29.2076 16.8625C28.7475 16.7006 28.2794 16.5739 27.8193 16.412C27.5708 16.3238 27.3303 16.1956 27.0979 16.0914C27.1748 15.6681 27.2341 15.3058 27.3095 14.9515C27.3784 14.6261 27.4586 14.3023 27.5451 13.9832C27.6606 13.5664 27.8 13.1592 27.9074 12.7392C28.0052 12.356 27.9123 12.2166 27.59 12.2662C27.2229 12.3224 26.8574 12.4025 26.4999 12.5083C26.1295 12.6173 25.7688 12.7616 25.4081 12.9027C25.0009 13.0614 24.5873 13.2057 24.1945 13.4029C23.3962 13.8069 22.609 14.2413 21.8203 14.6678C21.668 14.7495 21.5413 14.7527 21.4243 14.5684C21.3169 14.3968 21.1854 14.2445 21.086 14.0682C20.7414 13.4606 20.4031 12.8482 20.068 12.2326C19.9221 11.9633 19.7779 11.6891 19.656 11.4038C19.4717 10.9773 19.3258 10.9501 19.0612 11.2947C18.7839 11.657 18.4921 12.0049 18.2052 12.3576C18.1635 12.4089 18.1138 12.4554 18.0785 12.5131C17.5479 13.3852 16.9226 14.1532 16.2637 14.881C16.1146 15.0461 15.9672 15.2128 15.8149 15.3828C14.5981 14.6069 13.4069 13.8502 12.2206 13.0935C11.9689 13.3436 11.9513 13.4333 12.0683 13.7796C12.3152 14.5139 12.5701 15.2449 12.8025 15.984C12.918 16.3495 12.9917 16.7326 13.0991 17.1655C12.9067 17.2408 12.7416 17.3226 12.5685 17.3707C11.4543 17.6833 10.3401 17.9895 9.2243 18.2973C8.37463 18.533 7.52496 18.7718 6.67368 19.0011C6.3274 19.0941 6.29694 19.1309 6.32259 19.6151C6.74582 19.9999 7.17226 20.391 7.60351 20.7774C8.2592 21.3657 8.94856 21.8948 9.54653 22.5809C9.72448 22.7861 9.76616 22.9545 9.71807 23.211C9.59623 23.8763 9.41507 24.5063 9.15055 25.1075C8.73534 26.0486 8.35699 27.0153 7.97384 27.9771C7.85841 28.2657 7.75581 28.5671 7.68206 28.8765C7.60511 29.2036 7.6997 29.3142 7.98025 29.3014C8.20469 29.2917 8.42753 29.2837 8.65197 29.2885C9.03673 29.2949 9.42309 29.319 9.80785 29.3222C10.3048 29.327 10.8018 29.3174 11.3004 29.3206C11.3581 29.3206 11.419 29.3575 11.4944 29.3815C11.5569 30.0805 11.3709 30.7153 11.3228 31.3742C11.2747 32.0331 11.1577 32.684 11.2122 33.4215C11.3485 33.3814 11.4703 33.3862 11.5457 33.3172C12.0988 32.8267 12.7817 32.6311 13.3813 32.2463C14.1187 31.7718 14.8706 31.3261 15.6193 30.8724C15.8854 30.7105 16.1227 30.4652 16.4577 30.4396C16.5699 30.6368 16.679 30.8227 16.7832 31.0135C17.3122 31.9898 17.8428 32.9646 18.3671 33.9441C18.5242 34.2391 18.6717 34.2647 18.7935 33.9601C19.0516 33.3172 19.2969 32.6648 19.5326 32.0075C19.6993 31.541 19.842 31.0616 20.0071 30.5534C20.2524 30.757 20.4496 30.9558 20.6708 31.1001C21.5654 31.6901 22.4679 32.2592 23.3641 32.8475C23.7328 33.0896 24.0919 33.3541 24.4478 33.6218C24.5665 33.7116 24.6611 33.8511 24.8166 33.7581C24.9705 33.6651 25.017 33.508 24.9801 33.3124C24.8695 32.7097 24.7701 32.1021 24.629 31.5057C24.5376 31.1193 24.3837 30.7506 24.2218 30.2681C24.754 30.422 25.1917 30.5598 25.6342 30.6737C26.1007 30.7955 26.5688 30.9029 27.0369 31.0023C27.5564 31.1129 28.0774 31.2075 28.5968 31.3117C29.1162 31.4143 29.6372 31.5105 30.1567 31.6259C30.6248 31.7301 31.0929 31.8423 31.5578 31.9786C31.7037 32.0219 31.8239 32.0604 31.933 31.9241C32.05 31.7782 31.9714 31.6339 31.9249 31.472C31.5626 30.2119 30.9919 29.0689 30.4292 27.921C30.1727 27.3968 29.9194 26.871 29.6549 26.3259C29.711 26.3211 29.7687 26.3147 29.8264 26.3115C30.1727 26.3003 30.5254 26.3211 30.8669 26.273C31.7262 26.1512 32.579 25.9989 33.4351 25.8562C33.5714 25.8337 33.706 25.7953 33.7429 25.6013C33.7766 25.4233 33.6724 25.3352 33.5778 25.2245C33.1417 24.7067 32.7153 24.1777 32.2792 23.6583C31.9795 23.3024 31.6716 22.9561 31.3654 22.6082C31.04 22.2379 30.7049 21.882 30.3923 21.4972C30.2112 21.2744 30.2368 21.1702 30.4356 20.9938C30.4933 20.9425 30.5542 20.8944 30.6072 20.8383C31.0368 20.391 31.4584 19.9341 31.8945 19.4965C32.2199 19.1694 32.5678 18.876 32.8916 18.549C32.9638 18.4769 33.0279 18.3278 33.0199 18.2188C33.0071 18.0552 32.8644 18.0681 32.7506 18.0408L32.7458 18.044Z" fill="#6A0B9B"/>
<path d="M5.8801 17.9207C6.22799 18.1019 6.57908 18.2814 6.91093 18.4978C7.62273 18.9595 8.32171 19.4485 9.0319 19.915C9.44071 20.1827 9.86394 20.4168 10.2711 20.6845C10.4924 20.8288 10.6944 21.0116 10.8948 21.1687C10.7184 21.5615 10.5741 21.8981 10.417 22.2252C10.2727 22.525 10.1172 22.8199 9.95692 23.1085C9.74531 23.4868 9.51285 23.8476 9.30764 24.2307C9.12168 24.5786 9.17779 24.7357 9.50323 24.7662C9.87356 24.7998 10.2471 24.8094 10.6206 24.7918C11.0054 24.7742 11.3901 24.7213 11.7749 24.6716C12.2077 24.6155 12.6454 24.5754 13.0735 24.476C13.9456 24.2756 14.8129 24.0415 15.6818 23.8171C15.8501 23.7738 15.9736 23.8011 16.0425 24.0095C16.1066 24.2018 16.1964 24.3798 16.2509 24.5754C16.4401 25.2487 16.6228 25.9236 16.8008 26.6018C16.8793 26.8983 16.9531 27.1981 17.0028 27.5043C17.0797 27.9628 17.216 28.0238 17.5543 27.7512C17.9102 27.4659 18.2773 27.1981 18.6396 26.924C18.6925 26.8839 18.7518 26.8519 18.7999 26.8038C19.5245 26.0839 20.3133 25.4876 21.1293 24.9393C21.3137 24.8159 21.4964 24.6892 21.6856 24.5594C22.6828 25.603 23.6559 26.6242 24.6274 27.6422C24.932 27.4595 24.9704 27.3777 24.94 27.0122C24.8759 26.2411 24.8037 25.4699 24.754 24.6956C24.73 24.3125 24.7492 23.9229 24.7492 23.4772C24.9544 23.45 25.134 23.4099 25.3135 23.4051C26.4694 23.3682 27.6253 23.3377 28.7827 23.3057C29.6645 23.2816 30.5462 23.2512 31.4279 23.2335C31.7855 23.2271 31.8255 23.1983 31.9153 22.7221C31.5963 22.2476 31.2757 21.7651 30.9502 21.2873C30.4548 20.5595 29.9114 19.8797 29.4945 19.0718C29.3711 18.8313 29.3711 18.6565 29.4785 18.4193C29.7559 17.8021 30.0829 17.2329 30.4837 16.7135C31.1121 15.8991 31.7101 15.0511 32.3129 14.2094C32.494 13.9561 32.6656 13.69 32.8115 13.4062C32.9654 13.1064 32.8996 12.9766 32.6239 12.9221C32.4043 12.8788 32.1846 12.8307 31.9682 12.773C31.5963 12.6736 31.2276 12.5598 30.854 12.4636C30.3715 12.3401 29.8873 12.2295 29.4048 12.1077C29.3487 12.0932 29.299 12.0435 29.23 12.0019C29.3358 11.3093 29.6693 10.737 29.8729 10.1085C30.0765 9.48009 30.3458 8.87571 30.4693 8.14787C30.3282 8.15429 30.2096 8.12062 30.1198 8.16872C29.4657 8.51339 28.7555 8.53904 28.0822 8.76829C27.2517 9.05205 26.4149 9.30535 25.5796 9.56667C25.2815 9.65965 24.9945 9.8408 24.6626 9.7863C24.6017 9.56827 24.5392 9.36146 24.4847 9.15145C24.2041 8.07734 23.922 7.00322 23.6479 5.9259C23.5661 5.60046 23.4282 5.54115 23.2374 5.80727C22.8318 6.36998 22.4391 6.94391 22.0527 7.52585C21.7786 7.93786 21.5253 8.37071 21.2447 8.82441C21.0555 8.5679 20.9113 8.32903 20.7317 8.13505C20.0055 7.3479 19.2632 6.57839 18.5354 5.79284C18.2356 5.47061 17.9502 5.12753 17.6681 4.78125C17.5735 4.66583 17.5158 4.50711 17.3426 4.56162C17.1711 4.61453 17.0893 4.75721 17.0765 4.95439C17.0397 5.5668 16.9916 6.1792 16.9851 6.79161C16.9803 7.18919 17.0429 7.58356 17.0845 8.09016C16.6036 7.81282 16.2124 7.57395 15.8116 7.35752C15.3884 7.12827 14.9588 6.91184 14.5275 6.70183C14.0498 6.46937 13.5672 6.25295 13.0863 6.02851C12.6053 5.80406 12.1228 5.58604 11.6466 5.35037C11.217 5.13715 10.789 4.91592 10.3705 4.67224C10.2391 4.59529 10.1317 4.52956 9.99379 4.63537C9.8447 4.74919 9.88638 4.9079 9.8928 5.07623C9.94249 6.38601 10.2246 7.63166 10.4956 8.88212C10.619 9.45124 10.7393 10.0236 10.8659 10.6151C10.8114 10.6055 10.7521 10.5991 10.696 10.5879C10.3561 10.5157 10.0194 10.4115 9.67637 10.3763C8.81387 10.2897 7.94817 10.232 7.08247 10.1662C6.9446 10.155 6.80512 10.1614 6.72176 10.3394C6.64641 10.5045 6.72817 10.6151 6.7923 10.745C7.09209 11.3526 7.37905 11.9682 7.67884 12.5758C7.88404 12.9942 8.10207 13.403 8.31529 13.815C8.54294 14.2527 8.78341 14.6791 8.99503 15.1264C9.11687 15.3861 9.06877 15.4823 8.83151 15.6041C8.76257 15.6394 8.69364 15.6715 8.62791 15.7132C8.10368 16.045 7.58586 16.3865 7.05682 16.7071C6.66244 16.946 6.25524 17.1496 5.86087 17.3884C5.77269 17.4414 5.6749 17.5712 5.65726 17.6786C5.63161 17.8405 5.77269 17.863 5.8769 17.9159L5.8801 17.9207Z" fill="#6A0B9B"/>
<path d="M18.7504 27.2351C17.7837 27.3441 16.8667 27.4387 15.9529 27.5509C15.2122 27.6423 14.4764 27.7802 13.7341 27.8475C13.3061 27.8876 12.8684 27.8266 12.4356 27.8154C11.2717 27.7834 10.1078 27.7513 8.94388 27.7224C8.28499 27.7064 7.62609 27.708 6.9688 27.6743C6.31151 27.6423 5.72956 27.3521 5.16044 27.0587C5.00654 26.9802 4.88149 26.7942 4.80454 26.6291C4.69553 26.395 4.62339 26.1401 4.57369 25.8852C4.3765 24.8993 4.13923 23.9246 4.1232 22.9034C4.10396 21.7395 3.98693 20.5772 3.89555 19.4165C3.77692 17.8999 3.817 16.3962 4.16488 14.9084C4.35085 14.1117 4.84783 13.5842 5.52917 13.1546C6.08867 12.8019 6.7155 12.6945 7.31027 12.47C8.15674 12.1478 9.0529 12.2183 9.91219 12.0147C10.8404 11.7951 11.7831 11.6316 12.7257 11.4857C14.7826 11.1651 16.841 10.8428 18.9059 10.5799C19.9543 10.4453 21.0204 10.4453 22.0769 10.3683C22.6973 10.3218 23.3162 10.2401 23.935 10.1775C25.4724 10.0236 27.0098 9.87774 28.5585 10.0252C28.6627 10.0349 28.7669 10.0509 28.8695 10.0461C29.4642 10.0188 30.0462 10.1006 30.6233 10.2368C31.1123 10.3523 31.6077 10.4437 32.1014 10.5431C33.6453 10.8541 34.0348 11.5001 34.3731 12.7249C34.4517 13.0103 34.5046 13.3021 34.5911 13.5842C34.9342 14.7032 35.0432 15.8607 35.218 17.0118C35.5001 18.8618 35.4039 20.7199 35.4681 22.5747C35.4793 22.8825 35.4103 23.1999 35.3302 23.4997C35.2051 23.963 34.9021 24.2933 34.4452 24.4584C33.5619 24.7758 32.6754 25.0708 31.7439 25.2311C30.4085 25.4604 29.0811 25.7393 27.7473 25.9734C26.6523 26.1658 25.5509 26.3277 24.4528 26.496C23.8003 26.5954 23.1398 26.7846 22.4937 26.7461C21.7867 26.7044 21.4549 27.0347 21.184 27.5782C20.897 28.1521 20.5988 28.7196 20.307 29.2903C20.275 29.3512 20.2637 29.425 20.2253 29.4811C20.0473 29.744 19.7924 29.7376 19.6642 29.449C19.4526 28.9729 19.2666 28.4855 19.0694 28.0046C18.9652 27.7513 18.861 27.4996 18.752 27.2351H18.7504ZM19.9704 28.5352C20.0201 28.5352 20.0698 28.5368 20.1179 28.5384C20.2301 28.3477 20.3551 28.1633 20.4497 27.9645C20.6726 27.4932 20.8745 27.0122 21.099 26.5409C21.2577 26.2091 21.4549 26.0696 21.697 26.1578C22.1731 26.3325 22.6557 26.302 23.1366 26.2411C23.9462 26.1401 24.7558 26.0231 25.559 25.882C27.4058 25.5582 29.251 25.2215 31.0947 24.8752C32.0854 24.6893 33.0681 24.4696 34.014 24.1057C34.418 23.9502 34.6953 23.7162 34.8236 23.2945C34.9406 22.9082 35.0144 22.5266 34.9903 22.1162C34.9566 21.5279 34.9823 20.9347 34.9534 20.3447C34.8877 19.0285 34.8717 17.7027 34.7082 16.3978C34.5639 15.2451 34.2497 14.1149 33.998 12.9766C33.9499 12.7586 33.8649 12.5422 33.7687 12.3402C33.4737 11.7246 32.9992 11.335 32.3259 11.1651C30.6682 10.745 28.9881 10.4998 27.2775 10.5206C26.306 10.5318 25.3329 10.5623 24.363 10.628C23.4107 10.6937 22.4633 10.8252 21.5126 10.9102C20.4738 11.0016 19.4317 11.0545 18.3929 11.1539C17.649 11.2244 16.9003 11.2965 16.1693 11.4472C14.6399 11.7647 13.1041 12.0452 11.5586 12.2745C10.9077 12.3706 10.2649 12.5245 9.62041 12.6624C9.06091 12.7827 8.51103 12.9718 7.94512 13.0327C7.13553 13.1193 6.38204 13.3293 5.67986 13.7333C5.20854 14.0043 4.85264 14.3714 4.73721 14.9197C4.60094 15.5641 4.46467 16.2102 4.36207 16.8611C4.31718 17.148 4.33963 17.4494 4.35566 17.7428C4.40215 18.6454 4.46147 19.5464 4.51597 20.4489C4.57209 21.3852 4.56567 22.331 4.69873 23.2561C4.83981 24.2324 5.10433 25.1927 5.33519 26.1546C5.40572 26.4479 5.57245 26.6868 5.88827 26.799C6.66901 27.0748 7.4802 27.171 8.29621 27.1982C9.52903 27.2399 10.7619 27.2463 11.9947 27.2575C12.6167 27.2639 13.2419 27.2864 13.8591 27.2319C14.8627 27.1437 15.8615 27.0106 16.8603 26.8744C17.548 26.7798 18.2309 26.6467 18.9155 26.5361C18.9957 26.5233 19.0806 26.5473 19.1512 26.5521C19.2794 26.9048 19.3868 27.2335 19.5183 27.5509C19.6562 27.8828 19.8197 28.2034 19.972 28.5304L19.9704 28.5352Z" fill="#6A0B9B"/>
<path d="M8.75131 24.1362C6.87883 21.1095 7.54574 16.4347 9.39257 13.161C9.53044 12.959 9.69717 12.7763 9.88314 12.6079C9.79496 12.6272 9.70839 12.6464 9.62022 12.6657C9.06072 12.7859 8.51084 12.9751 7.94492 13.036C7.13533 13.1226 6.38185 13.3326 5.67967 13.7366C5.20834 14.0075 4.85244 14.3746 4.73702 14.9229C4.60075 15.5674 4.46448 16.2134 4.36188 16.8643C4.31699 17.1513 4.33943 17.4527 4.35546 17.746C4.40196 18.6486 4.46127 19.5496 4.51578 20.4522C4.57189 21.3884 4.56548 22.3343 4.69854 23.2593C4.83962 24.2356 5.10414 25.1959 5.33499 26.1578C5.40553 26.4512 5.57226 26.69 5.88808 26.8023C6.66881 27.078 7.48001 27.1742 8.29601 27.2014C9.52884 27.2431 10.7617 27.2495 11.9945 27.2608C12.6165 27.2672 13.2417 27.2896 13.859 27.2351C13.9648 27.2255 14.0706 27.2143 14.1748 27.2046C11.9368 26.7141 9.8639 25.7586 8.75131 24.1362ZM7.64513 13.4865C7.84553 13.4688 8.44831 13.9786 8.46274 14.179C8.47717 14.3602 8.27036 14.5013 8.10524 14.3874C7.86958 14.2239 7.65155 14.0235 7.45917 13.8087C7.34535 13.6821 7.46558 13.5009 7.64513 13.4849V13.4865ZM6.52293 13.7334C6.9157 13.9818 7.31328 14.2223 7.69644 14.4836C7.93531 14.6472 7.94011 14.7193 7.81667 15.0672C7.09686 14.8203 6.56782 14.3842 6.11573 13.8488C6.23436 13.6356 6.37063 13.6372 6.52293 13.7334ZM5.31255 16.6912C5.23239 16.712 5.12177 16.6174 4.92779 16.5309C5.09933 16.4058 5.19071 16.292 5.29331 16.2808C5.36705 16.2711 5.45843 16.3962 5.54019 16.4603C5.46485 16.5421 5.40232 16.6687 5.31255 16.6912ZM5.65722 15.7966C5.46966 15.694 5.22117 15.6331 5.19872 15.3606C5.18269 15.1762 5.37988 15.0672 5.56585 15.1698C5.74379 15.2692 5.9009 15.4038 6.07404 15.5273C5.98427 15.8207 5.8464 15.9008 5.65883 15.7982L5.65722 15.7966ZM6.91249 15.3814C6.79386 15.5593 6.63354 15.4952 6.5069 15.3926C6.16222 15.1137 5.82876 14.8251 5.4905 14.5397C5.50813 14.4884 5.52577 14.4355 5.5434 14.3842C5.65402 14.381 5.78868 14.3329 5.86884 14.381C6.17985 14.5686 6.47644 14.7802 6.76981 14.995C6.89486 15.0864 7.03433 15.2034 6.9157 15.3814H6.91249Z" fill="#00B9EE"/>
<path d="M34.7079 16.401C34.5636 15.2484 34.2494 14.1181 33.9977 12.9799C33.9496 12.7619 33.8646 12.5455 33.7684 12.3435C33.4734 11.7278 32.9989 11.3383 32.3256 11.1683C30.6679 10.7483 28.9878 10.503 27.2773 10.5239C26.3058 10.5351 25.3326 10.5656 24.3627 10.6313C23.4105 10.697 22.463 10.8285 21.5123 10.9134C20.4735 11.0048 19.4314 11.0577 18.3926 11.1571C17.6487 11.2277 16.9001 11.2998 16.169 11.4505C14.6396 11.7679 13.1038 12.0485 11.5583 12.2777C10.9956 12.3611 10.4393 12.4861 9.88305 12.608C9.69708 12.7763 9.53036 12.9591 9.39248 13.1611C7.54565 16.4347 6.87874 21.1095 8.75122 24.1362C9.86381 25.7586 11.9367 26.7141 14.1747 27.2047C15.0709 27.1181 15.9654 26.9995 16.8584 26.8776C17.5461 26.7831 18.2291 26.65 18.9136 26.5394C18.9938 26.5265 19.0787 26.5506 19.1493 26.5554C19.2775 26.9081 19.3849 27.2367 19.5164 27.5542C19.6543 27.886 19.8178 28.2067 19.9701 28.5337C20.0198 28.5337 20.0679 28.5353 20.1176 28.5369C20.2298 28.3461 20.3548 28.1618 20.4494 27.963C20.6723 27.4916 20.8743 27.0107 21.0987 26.5394C21.2574 26.2075 21.4546 26.068 21.6967 26.1562C22.1728 26.331 22.6554 26.3005 23.1363 26.2396C23.9459 26.1386 24.7555 26.0216 25.5587 25.8805C27.4055 25.5566 29.2507 25.22 31.0944 24.8737C32.0851 24.6877 33.0679 24.4681 34.0137 24.1042C34.4177 23.9487 34.6951 23.7146 34.8233 23.293C34.9403 22.9066 35.0141 22.5251 34.99 22.1147C34.9564 21.5263 34.982 20.9331 34.9532 20.3432C34.8874 19.027 34.8714 17.7012 34.7079 16.3962V16.401ZM30.591 24.396C30.3393 24.2677 30.195 24.2148 30.0748 24.1266C30.0235 24.0882 29.9946 23.9711 30.0122 23.9054C30.0299 23.8381 30.1341 23.7323 30.171 23.7435C30.3281 23.7884 30.5012 23.8429 30.6134 23.9519C30.6695 24.0064 30.607 24.1843 30.591 24.3976V24.396ZM30.8844 23.5511C31.2274 23.1984 31.5481 23.3283 31.92 23.9679C31.5978 24.2292 31.4342 24.1635 30.8844 23.5511ZM32.7168 24.0865C32.3288 23.7531 31.9296 23.4277 31.5545 23.0734C31.4839 23.006 31.5144 22.8313 31.4984 22.7046C31.6218 22.695 31.7885 22.6277 31.8607 22.6838C32.2134 22.9595 32.558 23.2497 32.8691 23.5719C33.1031 23.8156 33.055 23.9166 32.7168 24.0865ZM33.8149 23.5142C33.7572 23.5816 33.6033 23.5912 33.4959 23.58C33.4221 23.5719 33.3532 23.4902 33.2891 23.4325C32.8691 23.0493 32.4442 22.671 32.0322 22.2782C31.7885 22.0457 31.5657 21.7892 31.3284 21.5375C31.4855 21.3211 31.6026 21.3163 31.7308 21.4285C31.9489 21.6209 32.1605 21.8213 32.3849 22.0057C32.6927 22.2574 33.0149 22.4898 33.3228 22.7399C33.4959 22.881 33.669 23.0269 33.8085 23.2C33.863 23.2689 33.8678 23.4517 33.8133 23.5142H33.8149ZM34.0394 22.384C33.9576 22.4433 33.8245 22.4337 33.7139 22.4433C33.6883 22.4449 33.653 22.4113 33.6306 22.3856C33.3532 22.0666 33.0518 21.7652 32.7777 21.3035C32.9973 21.2971 33.1368 21.2538 33.241 21.2955C33.6257 21.4494 33.8919 21.7443 34.0714 22.1083C34.1083 22.182 34.0923 22.3439 34.0394 22.3824V22.384Z" fill="#0AE7EF"/>
<path d="M31.3301 21.5358C31.4872 21.3193 31.6042 21.3145 31.7325 21.4267C31.9505 21.6191 32.1621 21.8195 32.3866 22.0039C32.6944 22.2556 33.0166 22.488 33.3244 22.7381C33.4976 22.8792 33.6707 23.0251 33.8102 23.1982C33.8647 23.2672 33.8695 23.4499 33.815 23.5124C33.7573 23.5798 33.6034 23.5894 33.496 23.5782C33.4222 23.5702 33.3533 23.4884 33.2891 23.4307C32.8691 23.0475 32.4443 22.6692 32.0323 22.2764C31.7886 22.044 31.5658 21.7874 31.3285 21.5358H31.3301Z" fill="#6A0B9B"/>
<path d="M7.81832 15.0673C7.0985 14.8204 6.56946 14.3844 6.11737 13.8489C6.236 13.6357 6.37227 13.6373 6.52457 13.7335C6.91734 13.982 7.31493 14.2225 7.69808 14.4838C7.93695 14.6473 7.94176 14.7194 7.81832 15.0673Z" fill="#6A0B9B"/>
<path d="M32.7169 24.0848C32.3289 23.7513 31.9298 23.4259 31.5546 23.0716C31.4841 23.0042 31.5145 22.8295 31.4985 22.7028C31.6219 22.6932 31.7887 22.6259 31.8608 22.682C32.2135 22.9577 32.5582 23.2479 32.8692 23.5701C33.1033 23.8138 33.0552 23.9148 32.7169 24.0848Z" fill="#6A0B9B"/>
<path d="M32.7777 21.3033C32.9973 21.2969 33.1368 21.2536 33.241 21.2953C33.6257 21.4492 33.8919 21.7442 34.0714 22.1081C34.1083 22.1818 34.0923 22.3437 34.0394 22.3822C33.9576 22.4415 33.8245 22.4319 33.7139 22.4415C33.6883 22.4431 33.653 22.4095 33.6306 22.3838C33.3532 22.0648 33.0518 21.7634 32.7777 21.3017V21.3033Z" fill="#6A0B9B"/>
<path d="M5.54503 14.3843C5.65565 14.3811 5.79031 14.333 5.87047 14.3811C6.18148 14.5687 6.47806 14.7803 6.77144 14.9951C6.89649 15.0865 7.03596 15.2036 6.91733 15.3815C6.79869 15.5595 6.63838 15.4953 6.51173 15.3927C6.16705 15.1138 5.8336 14.8252 5.49533 14.5398C5.51297 14.4885 5.5306 14.4356 5.54823 14.3843H5.54503Z" fill="#6A0B9B"/>
<path d="M8.46419 14.1788C8.47862 14.36 8.27181 14.5011 8.10669 14.3872C7.87102 14.2237 7.65299 14.0233 7.46062 13.8085C7.34679 13.6819 7.46703 13.5007 7.64658 13.4847C7.84698 13.467 8.44976 13.9768 8.46419 14.1772V14.1788Z" fill="#6A0B9B"/>
<path d="M31.9201 23.968C31.5978 24.2293 31.4343 24.1636 30.8844 23.5512C31.2275 23.1985 31.5481 23.3283 31.9201 23.968Z" fill="#6A0B9B"/>
<path d="M6.07568 15.5273C5.98591 15.8207 5.84804 15.9008 5.66047 15.7982C5.4729 15.6956 5.22441 15.6347 5.20197 15.3622C5.18593 15.1778 5.38312 15.0688 5.56909 15.1714C5.74704 15.2708 5.90415 15.4054 6.07729 15.5289L6.07568 15.5273Z" fill="#6A0B9B"/>
<path d="M30.5911 24.3959C30.3394 24.2676 30.1951 24.2147 30.0749 24.1266C30.0236 24.0881 29.9947 23.9711 30.0124 23.9053C30.03 23.838 30.1342 23.7322 30.1711 23.7434C30.3282 23.7883 30.5013 23.8428 30.6135 23.9518C30.6697 24.0063 30.6071 24.1843 30.5911 24.3975V24.3959Z" fill="#6A0B9B"/>
<path d="M4.92941 16.5309C5.10095 16.4058 5.19233 16.292 5.29493 16.2808C5.36868 16.2712 5.46006 16.3962 5.54182 16.4603C5.46647 16.5421 5.40395 16.6687 5.31417 16.6912C5.23401 16.712 5.12339 16.6174 4.92941 16.5309Z" fill="#6A0B9B"/>
<g filter="url(#filter0_d_1_1005)">
<path d="M13.8014 16.4179C14.0286 16.4727 14.1629 16.5946 14.2026 16.7836C14.2291 16.9097 14.212 17.0925 14.1497 17.3321C14.0768 17.6497 14.0387 17.8265 14.0371 17.8639C13.9627 18.5773 13.9739 19.6342 14.0706 21.0348C14.1659 22.4368 14.1831 23.4773 14.1223 24.1592C14.1066 24.351 13.973 24.4735 13.7214 24.528C13.6046 24.5531 13.4969 24.5527 13.3967 24.5269C13.0274 24.4266 12.7187 24.1437 12.4705 23.6795C12.4512 23.636 12.2716 23.2051 11.9274 22.3823C11.7509 21.9499 11.5715 21.483 11.3907 20.9862C11.3179 21.2648 11.2856 21.9273 11.2908 22.9707C11.2951 23.8732 11.2001 24.468 11.0076 24.7552C10.9504 24.8419 10.8276 24.879 10.6361 24.8633C10.3592 24.8848 10.1441 24.7611 9.99393 24.4922C9.88705 24.2519 9.77868 24.0102 9.6718 23.7699C9.37172 23.1557 9.02956 22.174 8.64382 20.8249C8.25809 19.4758 7.91739 18.5031 7.62174 17.9069C7.57123 17.8048 7.56263 17.6983 7.59595 17.5875C7.62927 17.4767 7.69386 17.4064 7.79124 17.3768C7.8587 17.3441 7.92912 17.3188 8.001 17.3041C8.25259 17.251 8.46932 17.3223 8.65268 17.5178C8.95685 18.2445 9.44104 19.6794 10.1037 21.8271C10.1433 21.6593 10.1653 21.3551 10.1714 20.9158C10.1759 20.4766 10.204 20.1529 10.2541 19.9447C10.2629 19.5849 10.2657 19.2266 10.2655 18.8683C10.285 18.4307 10.4655 18.1764 10.8069 18.1027C10.8968 18.0835 10.9986 18.0764 11.1123 18.0798C11.1331 18.1324 11.1794 18.155 11.2542 18.1478C11.3276 18.1421 11.3709 18.1467 11.3844 18.1632C11.6762 18.5631 11.9496 19.1217 12.2059 19.8377C12.5809 20.8495 12.8032 21.4335 12.873 21.5881C12.8461 20.756 12.8251 19.9269 12.8101 19.1023C12.8016 18.1338 12.8838 17.3261 13.0552 16.6776C13.0931 16.5473 13.2116 16.4608 13.4093 16.418C13.5531 16.387 13.6847 16.3875 13.8043 16.4194L13.8014 16.4179Z" fill="#6A0B9B"/>
<path d="M20.118 19.2934C19.8424 20.6042 19.2437 21.4761 18.3204 21.909C18.2095 21.9611 18.0956 21.9996 17.9788 22.0247C17.4666 22.1338 16.8911 21.9653 16.2507 21.5178C15.8193 21.2149 15.5411 20.7612 15.4116 20.1566C15.2703 19.4904 15.3149 18.732 15.5484 17.8813C15.65 17.5204 15.7978 17.1971 15.9904 16.9115C16.2101 16.5734 16.4442 16.3764 16.6973 16.3233C16.8411 16.2924 16.9876 16.3184 17.1355 16.3999C17.2848 16.4814 17.6512 16.5531 18.2391 16.6167C18.7013 16.6693 19.0583 16.8475 19.3101 17.1512C19.7526 17.688 20.0202 18.1717 20.1115 18.6038C20.163 18.8468 20.1651 19.0777 20.118 19.2949L20.118 19.2934ZM18.8617 18.6863C18.659 18.0424 18.3998 17.6877 18.0858 17.6236C18.0365 17.6144 17.9946 17.6143 17.9586 17.6231C17.8508 17.6467 17.7352 17.7647 17.6117 17.9802C17.4761 18.2256 17.3618 18.3766 17.2719 18.4347C17.2148 18.475 17.1191 18.4671 16.9846 18.4112C16.8501 18.3552 16.7649 18.3309 16.729 18.3383C16.702 18.3442 16.681 18.3576 16.6675 18.3801C16.4104 18.718 16.3414 19.1705 16.4621 19.7376C16.5445 20.1246 16.7035 20.434 16.9421 20.6658C17.2717 20.9818 17.5226 21.1206 17.6933 21.0852C18.0887 21.0012 18.4176 20.671 18.6815 20.0978C18.9319 19.5545 18.9919 19.0855 18.8616 18.6893L18.8617 18.6863Z" fill="#6A0B9B"/>
<path d="M25.7026 13.8775C25.9299 13.9323 26.0641 14.0542 26.1039 14.2432C26.1303 14.3693 26.1132 14.5521 26.051 14.7917C25.978 15.1093 25.94 15.2861 25.9384 15.3235C25.864 16.0369 25.8752 17.0938 25.9719 18.4944C26.0671 19.8964 26.0844 20.9369 26.0236 21.6188C26.0079 21.8106 25.8743 21.9331 25.6227 21.9876C25.5059 22.0127 25.3981 22.0123 25.298 21.9865C24.9287 21.8862 24.62 21.6033 24.3717 21.1391C24.3524 21.0956 24.1729 20.6647 23.8287 19.8419C23.6521 19.4095 23.4727 18.9426 23.292 18.4458C23.2191 18.7244 23.1868 19.3869 23.1921 20.4303C23.1963 21.3328 23.1014 21.9276 22.9088 22.2148C22.8517 22.3015 22.7288 22.3386 22.5373 22.3229C22.2604 22.3444 22.0454 22.2207 21.8952 21.9518C21.7883 21.7115 21.6799 21.4698 21.5731 21.2295C21.273 20.6153 20.9308 19.6336 20.5451 18.2845C20.1593 16.9354 19.8187 15.9627 19.523 15.3665C19.4725 15.2644 19.4639 15.1579 19.4972 15.0471C19.5305 14.9363 19.5951 14.8661 19.6925 14.8364C19.76 14.8037 19.8304 14.7784 19.9023 14.7637C20.1539 14.7106 20.3706 14.7819 20.5539 14.9774C20.8581 15.7041 21.3423 17.139 22.005 19.2867C22.0445 19.1189 22.0666 18.8147 22.0726 18.3754C22.0772 17.9362 22.1053 17.6125 22.1554 17.4043C22.1642 17.0445 22.167 16.6862 22.1667 16.3279C22.1863 15.8903 22.3668 15.6361 22.7082 15.5623C22.7981 15.5432 22.8998 15.536 23.0136 15.5394C23.0343 15.592 23.0806 15.6146 23.1555 15.6074C23.2288 15.6017 23.2722 15.6063 23.2856 15.6229C23.5775 16.0227 23.8508 16.5813 24.1071 17.2974C24.4821 18.3091 24.7045 18.8931 24.7743 19.0478C24.7473 18.2156 24.7263 17.3865 24.7113 16.5619C24.7028 15.5935 24.785 14.7857 24.9565 14.1372C24.9943 14.0069 25.1129 13.9204 25.3106 13.8776C25.4543 13.8466 25.586 13.8471 25.7056 13.879L25.7026 13.8775Z" fill="#6A0B9B"/>
<path d="M29.7729 20.5663C29.8174 20.6879 29.8259 20.8169 29.7985 20.9502C29.7696 21.0835 29.7184 21.1598 29.6435 21.1805C29.5686 21.2012 29.5161 21.234 29.4875 21.2774C29.4589 21.3208 29.4259 21.3416 29.3885 21.3415C28.874 21.2632 28.5544 21.0867 28.4312 20.8119C28.3778 20.6917 28.4352 20.545 28.6049 20.3717C28.7746 20.1984 28.9006 20.1089 28.9845 20.1003C29.1326 20.0873 29.2867 20.1208 29.4495 20.1994C29.6123 20.2779 29.7196 20.3997 29.7744 20.5678L29.7729 20.5663ZM29.3291 12.045C29.4091 12.687 29.4213 13.8713 29.3657 15.5967C29.317 17.0956 29.4039 18.2953 29.6237 19.2001C29.6413 19.2811 29.6096 19.3664 29.53 19.4531C29.4504 19.5412 29.3679 19.5844 29.2826 19.5841C28.8052 19.5914 28.5155 19.418 28.4105 19.0638C28.3618 18.8762 28.3161 18.6887 28.2764 18.4996C28.0969 17.6535 28.0109 16.5888 28.02 15.3055C28.0477 13.4062 28.0546 12.3313 28.039 12.0809C28.0334 11.9684 28.0846 11.8787 28.1926 11.8086C28.3006 11.7385 28.4115 11.7104 28.5266 11.7229C28.6882 11.7354 28.8513 11.748 29.0128 11.7606C29.1983 11.7957 29.3042 11.892 29.3276 12.0465L29.3291 12.045Z" fill="#6A0B9B"/>
</g>
<defs>
<filter id="filter0_d_1_1005" x="7.57608" y="11.72" width="24.2381" height="15.1468" filterUnits="userSpaceOnUse" color-interpolation-filters="sRGB">
<feFlood flood-opacity="0" result="BackgroundImageFix"/>
<feColorMatrix in="SourceAlpha" type="matrix" values="0 0 0 0 0 0 0 0 0 0 0 0 0 0 0 0 0 0 127 0" result="hardAlpha"/>
<feOffset dx="2" dy="2"/>
<feComposite in2="hardAlpha" operator="out"/>
<feColorMatrix type="matrix" values="0 0 0 0 1 0 0 0 0 1 0 0 0 0 1 0 0 0 1 0"/>
<feBlend mode="normal" in2="BackgroundImageFix" result="effect1_dropShadow_1_1005"/>
<feBlend mode="normal" in="SourceGraphic" in2="effect1_dropShadow_1_1005" result="shape"/>
</filter>
</defs>
</svg>
