<svg width="22" height="22" viewBox="0 0 22 22" fill="none" xmlns="http://www.w3.org/2000/svg">
<path fill-rule="evenodd" clip-rule="evenodd" d="M13.9003 5.57565C14.1891 5.57961 14.4787 5.58358 14.7692 5.58655C17.8907 5.58655 20.1666 7.81199 20.1666 10.8852V14.8327C20.1666 17.9059 17.8907 20.1314 14.7692 20.1314C13.5188 20.1578 12.2684 20.1667 11.009 20.1667C9.74957 20.1667 8.48117 20.1578 7.23076 20.1314C4.10924 20.1314 1.83331 17.9059 1.83331 14.8327V10.8852C1.83331 7.81199 4.10924 5.58655 7.23976 5.58655C8.4182 5.56889 9.62363 5.55123 10.8471 5.55123V5.4011C10.8471 4.79176 10.3343 4.29722 9.72258 4.29722H8.832C7.81549 4.29722 6.98788 3.48476 6.98788 2.49567C6.98788 2.1336 7.29373 1.83334 7.66256 1.83334C8.04038 1.83334 8.33724 2.1336 8.33724 2.49567C8.33724 2.76061 8.56213 2.97255 8.832 2.97255H9.72258C11.0809 2.98138 12.1874 4.06761 12.1964 5.39227V5.56006C12.7635 5.56006 13.3306 5.56784 13.9003 5.57565ZM9.94748 13.5169H9.00292V14.453C9.00292 14.815 8.69707 15.1153 8.32824 15.1153C7.95042 15.1153 7.65356 14.815 7.65356 14.453V13.5169H6.70001C6.33119 13.5169 6.02533 13.2254 6.02533 12.8545C6.02533 12.4925 6.33119 12.1922 6.70001 12.1922H7.65356V11.2649C7.65356 10.9029 7.95042 10.6026 8.32824 10.6026C8.69707 10.6026 9.00292 10.9029 9.00292 11.2649V12.1922H9.94748C10.3163 12.1922 10.6222 12.4925 10.6222 12.8545C10.6222 13.2254 10.3163 13.5169 9.94748 13.5169ZM13.7707 12.0244H13.8606C14.2295 12.0244 14.5353 11.733 14.5353 11.3621C14.5353 11 14.2295 10.6998 13.8606 10.6998H13.7707C13.3928 10.6998 13.096 11 13.096 11.3621C13.096 11.733 13.3928 12.0244 13.7707 12.0244ZM15.3089 15.0623H15.3989C15.7677 15.0623 16.0736 14.7709 16.0736 14.4C16.0736 14.0379 15.7677 13.7376 15.3989 13.7376H15.3089C14.9302 13.7376 14.6343 14.0379 14.6343 14.4C14.6343 14.7709 14.9302 15.0623 15.3089 15.0623Z" fill="#161716"/>
</svg>
