<svg width="14" height="14" viewBox="0 0 14 14" fill="none" xmlns="http://www.w3.org/2000/svg">
<path d="M3.97643 0.759663C3.90842 0.544143 4.20525 0.410212 4.32184 0.603809L5.29976 2.22799C6.56251 4.32525 9.09787 5.28403 11.4324 4.54713L13.2403 3.97645C13.4558 3.90843 13.5898 4.20526 13.3962 4.32186L11.772 5.29978C9.67473 6.56252 8.71596 9.09788 9.45286 11.4324L10.0235 13.2403C10.0916 13.4559 9.79473 13.5898 9.67812 13.3962L8.70021 11.772C7.43746 9.67474 4.90211 8.71597 2.56758 9.45287L0.759653 10.0236C0.544134 10.0916 0.410203 9.79473 0.6038 9.67814L2.22798 8.70023C4.32524 7.43747 5.28402 4.90212 4.54711 2.56759L3.97643 0.759663Z" fill="#38E577" stroke="#161716"/>
</svg>
