<svg width="22" height="23" viewBox="0 0 22 23" fill="none" xmlns="http://www.w3.org/2000/svg">
<path fill-rule="evenodd" clip-rule="evenodd" d="M13.9003 5.67428C14.1891 5.67825 14.4787 5.68222 14.7692 5.68519C17.8907 5.68519 20.1666 7.91062 20.1666 10.9838V14.9313C20.1666 18.0046 17.8907 20.23 14.7692 20.23C13.5188 20.2565 12.2684 20.2653 11.009 20.2653C9.74957 20.2653 8.48117 20.2565 7.23076 20.23C4.10924 20.23 1.83331 18.0046 1.83331 14.9313V10.9838C1.83331 7.91062 4.10924 5.68519 7.23976 5.68519C8.4182 5.66753 9.62363 5.64986 10.8471 5.64986V5.49973C10.8471 4.89039 10.3343 4.39585 9.72258 4.39585H8.832C7.81549 4.39585 6.98788 3.58339 6.98788 2.59431C6.98788 2.23223 7.29373 1.93198 7.66256 1.93198C8.04038 1.93198 8.33724 2.23223 8.33724 2.59431C8.33724 2.85924 8.56213 3.07119 8.832 3.07119H9.72258C11.0809 3.08002 12.1874 4.16624 12.1964 5.4909V5.65869C12.7635 5.65869 13.3306 5.66647 13.9003 5.67428ZM9.94748 13.6155H9.00292V14.5516C9.00292 14.9137 8.69707 15.2139 8.32824 15.2139C7.95042 15.2139 7.65356 14.9137 7.65356 14.5516V13.6155H6.70001C6.33119 13.6155 6.02533 13.3241 6.02533 12.9532C6.02533 12.5911 6.33119 12.2908 6.70001 12.2908H7.65356V11.3636C7.65356 11.0015 7.95042 10.7012 8.32824 10.7012C8.69707 10.7012 9.00292 11.0015 9.00292 11.3636V12.2908H9.94748C10.3163 12.2908 10.6222 12.5911 10.6222 12.9532C10.6222 13.3241 10.3163 13.6155 9.94748 13.6155ZM13.7707 12.123H13.8606C14.2295 12.123 14.5353 11.8316 14.5353 11.4607C14.5353 11.0986 14.2295 10.7984 13.8606 10.7984H13.7707C13.3928 10.7984 13.096 11.0986 13.096 11.4607C13.096 11.8316 13.3928 12.123 13.7707 12.123ZM15.3089 15.1609H15.3989C15.7677 15.1609 16.0736 14.8695 16.0736 14.4986C16.0736 14.1365 15.7677 13.8363 15.3989 13.8363H15.3089C14.9302 13.8363 14.6343 14.1365 14.6343 14.4986C14.6343 14.8695 14.9302 15.1609 15.3089 15.1609Z" fill="#161716"/>
</svg>
