<svg width="20" height="20" viewBox="0 0 20 20" fill="none" xmlns="http://www.w3.org/2000/svg">
<path d="M14.7917 2.5C15.51 2.5 16.1988 2.78534 16.7067 3.29325C17.2147 3.80116 17.5 4.49004 17.5 5.20833V10.8325L13.5425 10.8333L13.365 10.8392C12.8866 10.8707 12.4252 11.0286 12.0279 11.2969C11.6305 11.5651 11.3115 11.934 11.1033 12.3658C10.7533 12.4608 10.3867 12.5075 10.0008 12.5075C9.15972 12.5163 8.33689 12.262 7.6475 11.78C7.58008 11.732 7.5038 11.6978 7.42308 11.6795C7.34235 11.6612 7.2588 11.6591 7.17726 11.6734C7.09572 11.6876 7.01783 11.7179 6.9481 11.7625C6.87837 11.8071 6.81819 11.8651 6.77106 11.9332C6.72393 12.0012 6.69079 12.0779 6.67356 12.1589C6.65632 12.2399 6.65534 12.3234 6.67067 12.4048C6.686 12.4861 6.71733 12.5636 6.76285 12.6327C6.80837 12.7019 6.86717 12.7613 6.93583 12.8075C7.83418 13.4345 8.90534 13.7665 10.0008 13.7575C10.19 13.7575 10.3758 13.7492 10.56 13.7308L10.8342 13.6975L10.8333 17.5H5.20833C4.49004 17.5 3.80116 17.2147 3.29325 16.7067C2.78534 16.1988 2.5 15.51 2.5 14.7917V5.20833C2.5 4.49004 2.78534 3.80116 3.29325 3.29325C3.80116 2.78534 4.49004 2.5 5.20833 2.5H14.7917ZM16.9508 12.2667L12.2667 16.95C12.2096 17.0069 12.1489 17.06 12.085 17.1092L12.0833 13.5417L12.0883 13.4225C12.1166 13.0793 12.2653 12.7572 12.5083 12.5131C12.7513 12.2691 13.0728 12.1189 13.4158 12.0892L13.5417 12.0833H17.11C17.0608 12.1475 17.0083 12.2083 16.9508 12.2667ZM7.50083 6.45833C7.36162 6.45439 7.22302 6.47841 7.09325 6.52897C6.96348 6.57953 6.84516 6.65559 6.74529 6.75267C6.64543 6.84975 6.56605 6.96587 6.51184 7.09416C6.45764 7.22245 6.42971 7.36031 6.42971 7.49958C6.42971 7.63886 6.45764 7.77672 6.51184 7.90501C6.56605 8.0333 6.64543 8.14942 6.74529 8.2465C6.84516 8.34357 6.96348 8.41964 7.09325 8.4702C7.22302 8.52075 7.36162 8.54477 7.50083 8.54083C7.77189 8.53306 8.02923 8.41989 8.21816 8.22538C8.4071 8.03087 8.51273 7.77034 8.51263 7.49918C8.51252 7.22801 8.40667 6.96758 8.21758 6.77322C8.02849 6.57886 7.77106 6.46589 7.5 6.45833H7.50083ZM12.5008 6.45833C12.3616 6.45439 12.223 6.47841 12.0932 6.52897C11.9635 6.57953 11.8452 6.65559 11.7453 6.75267C11.6454 6.84975 11.566 6.96587 11.5118 7.09416C11.4576 7.22245 11.4297 7.36031 11.4297 7.49958C11.4297 7.63886 11.4576 7.77672 11.5118 7.90501C11.566 8.0333 11.6454 8.14942 11.7453 8.2465C11.8452 8.34357 11.9635 8.41964 12.0932 8.4702C12.223 8.52075 12.3616 8.54477 12.5008 8.54083C12.7719 8.53316 13.0293 8.4201 13.2183 8.22566C13.4073 8.03123 13.513 7.77075 13.513 7.49958C13.513 7.22842 13.4073 6.96794 13.2183 6.7735C13.0293 6.57907 12.7719 6.466 12.5008 6.45833Z" fill="#161716" fill-opacity="0.6"/>
</svg>
